<?xml version="1.0" encoding="utf-8" standalone="no"?>
<!DOCTYPE svg PUBLIC "-//W3C//DTD SVG 1.1//EN"
  "http://www.w3.org/Graphics/SVG/1.1/DTD/svg11.dtd">
<svg xmlns:xlink="http://www.w3.org/1999/xlink" width="460.8pt" height="345.6pt" viewBox="0 0 460.8 345.6" xmlns="http://www.w3.org/2000/svg" version="1.1">
 <metadata>
  <rdf:RDF xmlns:dc="http://purl.org/dc/elements/1.1/" xmlns:cc="http://creativecommons.org/ns#" xmlns:rdf="http://www.w3.org/1999/02/22-rdf-syntax-ns#">
   <cc:Work>
    <dc:type rdf:resource="http://purl.org/dc/dcmitype/StillImage"/>
    <dc:date>2022-08-22T12:07:48.069560</dc:date>
    <dc:format>image/svg+xml</dc:format>
    <dc:creator>
     <cc:Agent>
      <dc:title>Matplotlib v3.5.3, https://matplotlib.org/</dc:title>
     </cc:Agent>
    </dc:creator>
   </cc:Work>
  </rdf:RDF>
 </metadata>
 <defs>
  <style type="text/css">*{stroke-linejoin: round; stroke-linecap: butt}</style>
 </defs>
 <g id="figure_1">
  <g id="patch_1">
   <path d="M 0 345.6 
L 460.8 345.6 
L 460.8 0 
L 0 0 
z
" style="fill: #ffffff"/>
  </g>
  <g id="axes_1">
   <g id="patch_2">
    <path d="M 57.6 307.584 
L 414.72 307.584 
L 414.72 41.472 
L 57.6 41.472 
z
" style="fill: #ffffff"/>
   </g>
   <g id="matplotlib.axis_1">
    <g id="xtick_1">
     <g id="line2d_1">
      <defs>
       <path id="m3ac24ab0d5" d="M 0 0 
L 0 3.5 
" style="stroke: #000000; stroke-width: 0.8"/>
      </defs>
      <g>
       <use xlink:href="#m3ac24ab0d5" x="73.832727" y="307.584" style="stroke: #000000; stroke-width: 0.8"/>
      </g>
     </g>
     <g id="text_1">
      <!-- −1.00 -->
      <g transform="translate(58.510071 322.182437)scale(0.1 -0.1)">
       <defs>
        <path id="DejaVuSans-2212" d="M 678 2272 
L 4684 2272 
L 4684 1741 
L 678 1741 
L 678 2272 
z
" transform="scale(0.015625)"/>
        <path id="DejaVuSans-31" d="M 794 531 
L 1825 531 
L 1825 4091 
L 703 3866 
L 703 4441 
L 1819 4666 
L 2450 4666 
L 2450 531 
L 3481 531 
L 3481 0 
L 794 0 
L 794 531 
z
" transform="scale(0.015625)"/>
        <path id="DejaVuSans-2e" d="M 684 794 
L 1344 794 
L 1344 0 
L 684 0 
L 684 794 
z
" transform="scale(0.015625)"/>
        <path id="DejaVuSans-30" d="M 2034 4250 
Q 1547 4250 1301 3770 
Q 1056 3291 1056 2328 
Q 1056 1369 1301 889 
Q 1547 409 2034 409 
Q 2525 409 2770 889 
Q 3016 1369 3016 2328 
Q 3016 3291 2770 3770 
Q 2525 4250 2034 4250 
z
M 2034 4750 
Q 2819 4750 3233 4129 
Q 3647 3509 3647 2328 
Q 3647 1150 3233 529 
Q 2819 -91 2034 -91 
Q 1250 -91 836 529 
Q 422 1150 422 2328 
Q 422 3509 836 4129 
Q 1250 4750 2034 4750 
z
" transform="scale(0.015625)"/>
       </defs>
       <use xlink:href="#DejaVuSans-2212"/>
       <use xlink:href="#DejaVuSans-31" x="83.789062"/>
       <use xlink:href="#DejaVuSans-2e" x="147.412109"/>
       <use xlink:href="#DejaVuSans-30" x="179.199219"/>
       <use xlink:href="#DejaVuSans-30" x="242.822266"/>
      </g>
     </g>
    </g>
    <g id="xtick_2">
     <g id="line2d_2">
      <g>
       <use xlink:href="#m3ac24ab0d5" x="114.618474" y="307.584" style="stroke: #000000; stroke-width: 0.8"/>
      </g>
     </g>
     <g id="text_2">
      <!-- −0.75 -->
      <g transform="translate(99.295818 322.182437)scale(0.1 -0.1)">
       <defs>
        <path id="DejaVuSans-37" d="M 525 4666 
L 3525 4666 
L 3525 4397 
L 1831 0 
L 1172 0 
L 2766 4134 
L 525 4134 
L 525 4666 
z
" transform="scale(0.015625)"/>
        <path id="DejaVuSans-35" d="M 691 4666 
L 3169 4666 
L 3169 4134 
L 1269 4134 
L 1269 2991 
Q 1406 3038 1543 3061 
Q 1681 3084 1819 3084 
Q 2600 3084 3056 2656 
Q 3513 2228 3513 1497 
Q 3513 744 3044 326 
Q 2575 -91 1722 -91 
Q 1428 -91 1123 -41 
Q 819 9 494 109 
L 494 744 
Q 775 591 1075 516 
Q 1375 441 1709 441 
Q 2250 441 2565 725 
Q 2881 1009 2881 1497 
Q 2881 1984 2565 2268 
Q 2250 2553 1709 2553 
Q 1456 2553 1204 2497 
Q 953 2441 691 2322 
L 691 4666 
z
" transform="scale(0.015625)"/>
       </defs>
       <use xlink:href="#DejaVuSans-2212"/>
       <use xlink:href="#DejaVuSans-30" x="83.789062"/>
       <use xlink:href="#DejaVuSans-2e" x="147.412109"/>
       <use xlink:href="#DejaVuSans-37" x="179.199219"/>
       <use xlink:href="#DejaVuSans-35" x="242.822266"/>
      </g>
     </g>
    </g>
    <g id="xtick_3">
     <g id="line2d_3">
      <g>
       <use xlink:href="#m3ac24ab0d5" x="155.404221" y="307.584" style="stroke: #000000; stroke-width: 0.8"/>
      </g>
     </g>
     <g id="text_3">
      <!-- −0.50 -->
      <g transform="translate(140.081565 322.182437)scale(0.1 -0.1)">
       <use xlink:href="#DejaVuSans-2212"/>
       <use xlink:href="#DejaVuSans-30" x="83.789062"/>
       <use xlink:href="#DejaVuSans-2e" x="147.412109"/>
       <use xlink:href="#DejaVuSans-35" x="179.199219"/>
       <use xlink:href="#DejaVuSans-30" x="242.822266"/>
      </g>
     </g>
    </g>
    <g id="xtick_4">
     <g id="line2d_4">
      <g>
       <use xlink:href="#m3ac24ab0d5" x="196.189968" y="307.584" style="stroke: #000000; stroke-width: 0.8"/>
      </g>
     </g>
     <g id="text_4">
      <!-- −0.25 -->
      <g transform="translate(180.867312 322.182437)scale(0.1 -0.1)">
       <defs>
        <path id="DejaVuSans-32" d="M 1228 531 
L 3431 531 
L 3431 0 
L 469 0 
L 469 531 
Q 828 903 1448 1529 
Q 2069 2156 2228 2338 
Q 2531 2678 2651 2914 
Q 2772 3150 2772 3378 
Q 2772 3750 2511 3984 
Q 2250 4219 1831 4219 
Q 1534 4219 1204 4116 
Q 875 4013 500 3803 
L 500 4441 
Q 881 4594 1212 4672 
Q 1544 4750 1819 4750 
Q 2544 4750 2975 4387 
Q 3406 4025 3406 3419 
Q 3406 3131 3298 2873 
Q 3191 2616 2906 2266 
Q 2828 2175 2409 1742 
Q 1991 1309 1228 531 
z
" transform="scale(0.015625)"/>
       </defs>
       <use xlink:href="#DejaVuSans-2212"/>
       <use xlink:href="#DejaVuSans-30" x="83.789062"/>
       <use xlink:href="#DejaVuSans-2e" x="147.412109"/>
       <use xlink:href="#DejaVuSans-32" x="179.199219"/>
       <use xlink:href="#DejaVuSans-35" x="242.822266"/>
      </g>
     </g>
    </g>
    <g id="xtick_5">
     <g id="line2d_5">
      <g>
       <use xlink:href="#m3ac24ab0d5" x="236.975715" y="307.584" style="stroke: #000000; stroke-width: 0.8"/>
      </g>
     </g>
     <g id="text_5">
      <!-- 0.00 -->
      <g transform="translate(225.842902 322.182437)scale(0.1 -0.1)">
       <use xlink:href="#DejaVuSans-30"/>
       <use xlink:href="#DejaVuSans-2e" x="63.623047"/>
       <use xlink:href="#DejaVuSans-30" x="95.410156"/>
       <use xlink:href="#DejaVuSans-30" x="159.033203"/>
      </g>
     </g>
    </g>
    <g id="xtick_6">
     <g id="line2d_6">
      <g>
       <use xlink:href="#m3ac24ab0d5" x="277.761462" y="307.584" style="stroke: #000000; stroke-width: 0.8"/>
      </g>
     </g>
     <g id="text_6">
      <!-- 0.25 -->
      <g transform="translate(266.628649 322.182437)scale(0.1 -0.1)">
       <use xlink:href="#DejaVuSans-30"/>
       <use xlink:href="#DejaVuSans-2e" x="63.623047"/>
       <use xlink:href="#DejaVuSans-32" x="95.410156"/>
       <use xlink:href="#DejaVuSans-35" x="159.033203"/>
      </g>
     </g>
    </g>
    <g id="xtick_7">
     <g id="line2d_7">
      <g>
       <use xlink:href="#m3ac24ab0d5" x="318.547209" y="307.584" style="stroke: #000000; stroke-width: 0.8"/>
      </g>
     </g>
     <g id="text_7">
      <!-- 0.50 -->
      <g transform="translate(307.414396 322.182437)scale(0.1 -0.1)">
       <use xlink:href="#DejaVuSans-30"/>
       <use xlink:href="#DejaVuSans-2e" x="63.623047"/>
       <use xlink:href="#DejaVuSans-35" x="95.410156"/>
       <use xlink:href="#DejaVuSans-30" x="159.033203"/>
      </g>
     </g>
    </g>
    <g id="xtick_8">
     <g id="line2d_8">
      <g>
       <use xlink:href="#m3ac24ab0d5" x="359.332956" y="307.584" style="stroke: #000000; stroke-width: 0.8"/>
      </g>
     </g>
     <g id="text_8">
      <!-- 0.75 -->
      <g transform="translate(348.200143 322.182437)scale(0.1 -0.1)">
       <use xlink:href="#DejaVuSans-30"/>
       <use xlink:href="#DejaVuSans-2e" x="63.623047"/>
       <use xlink:href="#DejaVuSans-37" x="95.410156"/>
       <use xlink:href="#DejaVuSans-35" x="159.033203"/>
      </g>
     </g>
    </g>
    <g id="xtick_9">
     <g id="line2d_9">
      <g>
       <use xlink:href="#m3ac24ab0d5" x="400.118703" y="307.584" style="stroke: #000000; stroke-width: 0.8"/>
      </g>
     </g>
     <g id="text_9">
      <!-- 1.00 -->
      <g transform="translate(388.98589 322.182437)scale(0.1 -0.1)">
       <use xlink:href="#DejaVuSans-31"/>
       <use xlink:href="#DejaVuSans-2e" x="63.623047"/>
       <use xlink:href="#DejaVuSans-30" x="95.410156"/>
       <use xlink:href="#DejaVuSans-30" x="159.033203"/>
      </g>
     </g>
    </g>
    <g id="text_10">
     <!-- Value of k -->
     <g transform="translate(211.535781 335.860562)scale(0.1 -0.1)">
      <defs>
       <path id="DejaVuSans-56" d="M 1831 0 
L 50 4666 
L 709 4666 
L 2188 738 
L 3669 4666 
L 4325 4666 
L 2547 0 
L 1831 0 
z
" transform="scale(0.015625)"/>
       <path id="DejaVuSans-61" d="M 2194 1759 
Q 1497 1759 1228 1600 
Q 959 1441 959 1056 
Q 959 750 1161 570 
Q 1363 391 1709 391 
Q 2188 391 2477 730 
Q 2766 1069 2766 1631 
L 2766 1759 
L 2194 1759 
z
M 3341 1997 
L 3341 0 
L 2766 0 
L 2766 531 
Q 2569 213 2275 61 
Q 1981 -91 1556 -91 
Q 1019 -91 701 211 
Q 384 513 384 1019 
Q 384 1609 779 1909 
Q 1175 2209 1959 2209 
L 2766 2209 
L 2766 2266 
Q 2766 2663 2505 2880 
Q 2244 3097 1772 3097 
Q 1472 3097 1187 3025 
Q 903 2953 641 2809 
L 641 3341 
Q 956 3463 1253 3523 
Q 1550 3584 1831 3584 
Q 2591 3584 2966 3190 
Q 3341 2797 3341 1997 
z
" transform="scale(0.015625)"/>
       <path id="DejaVuSans-6c" d="M 603 4863 
L 1178 4863 
L 1178 0 
L 603 0 
L 603 4863 
z
" transform="scale(0.015625)"/>
       <path id="DejaVuSans-75" d="M 544 1381 
L 544 3500 
L 1119 3500 
L 1119 1403 
Q 1119 906 1312 657 
Q 1506 409 1894 409 
Q 2359 409 2629 706 
Q 2900 1003 2900 1516 
L 2900 3500 
L 3475 3500 
L 3475 0 
L 2900 0 
L 2900 538 
Q 2691 219 2414 64 
Q 2138 -91 1772 -91 
Q 1169 -91 856 284 
Q 544 659 544 1381 
z
M 1991 3584 
L 1991 3584 
z
" transform="scale(0.015625)"/>
       <path id="DejaVuSans-65" d="M 3597 1894 
L 3597 1613 
L 953 1613 
Q 991 1019 1311 708 
Q 1631 397 2203 397 
Q 2534 397 2845 478 
Q 3156 559 3463 722 
L 3463 178 
Q 3153 47 2828 -22 
Q 2503 -91 2169 -91 
Q 1331 -91 842 396 
Q 353 884 353 1716 
Q 353 2575 817 3079 
Q 1281 3584 2069 3584 
Q 2775 3584 3186 3129 
Q 3597 2675 3597 1894 
z
M 3022 2063 
Q 3016 2534 2758 2815 
Q 2500 3097 2075 3097 
Q 1594 3097 1305 2825 
Q 1016 2553 972 2059 
L 3022 2063 
z
" transform="scale(0.015625)"/>
       <path id="DejaVuSans-20" transform="scale(0.015625)"/>
       <path id="DejaVuSans-6f" d="M 1959 3097 
Q 1497 3097 1228 2736 
Q 959 2375 959 1747 
Q 959 1119 1226 758 
Q 1494 397 1959 397 
Q 2419 397 2687 759 
Q 2956 1122 2956 1747 
Q 2956 2369 2687 2733 
Q 2419 3097 1959 3097 
z
M 1959 3584 
Q 2709 3584 3137 3096 
Q 3566 2609 3566 1747 
Q 3566 888 3137 398 
Q 2709 -91 1959 -91 
Q 1206 -91 779 398 
Q 353 888 353 1747 
Q 353 2609 779 3096 
Q 1206 3584 1959 3584 
z
" transform="scale(0.015625)"/>
       <path id="DejaVuSans-66" d="M 2375 4863 
L 2375 4384 
L 1825 4384 
Q 1516 4384 1395 4259 
Q 1275 4134 1275 3809 
L 1275 3500 
L 2222 3500 
L 2222 3053 
L 1275 3053 
L 1275 0 
L 697 0 
L 697 3053 
L 147 3053 
L 147 3500 
L 697 3500 
L 697 3744 
Q 697 4328 969 4595 
Q 1241 4863 1831 4863 
L 2375 4863 
z
" transform="scale(0.015625)"/>
       <path id="DejaVuSans-6b" d="M 581 4863 
L 1159 4863 
L 1159 1991 
L 2875 3500 
L 3609 3500 
L 1753 1863 
L 3688 0 
L 2938 0 
L 1159 1709 
L 1159 0 
L 581 0 
L 581 4863 
z
" transform="scale(0.015625)"/>
      </defs>
      <use xlink:href="#DejaVuSans-56"/>
      <use xlink:href="#DejaVuSans-61" x="60.658203"/>
      <use xlink:href="#DejaVuSans-6c" x="121.9375"/>
      <use xlink:href="#DejaVuSans-75" x="149.720703"/>
      <use xlink:href="#DejaVuSans-65" x="213.099609"/>
      <use xlink:href="#DejaVuSans-20" x="274.623047"/>
      <use xlink:href="#DejaVuSans-6f" x="306.410156"/>
      <use xlink:href="#DejaVuSans-66" x="367.591797"/>
      <use xlink:href="#DejaVuSans-20" x="402.796875"/>
      <use xlink:href="#DejaVuSans-6b" x="434.583984"/>
     </g>
    </g>
   </g>
   <g id="matplotlib.axis_2">
    <g id="ytick_1">
     <g id="line2d_10">
      <defs>
       <path id="m746cc09ac0" d="M 0 0 
L -3.5 0 
" style="stroke: #000000; stroke-width: 0.8"/>
      </defs>
      <g>
       <use xlink:href="#m746cc09ac0" x="57.6" y="295.488" style="stroke: #000000; stroke-width: 0.8"/>
      </g>
     </g>
     <g id="text_11">
      <!-- 0.0 -->
      <g transform="translate(34.696875 299.287219)scale(0.1 -0.1)">
       <use xlink:href="#DejaVuSans-30"/>
       <use xlink:href="#DejaVuSans-2e" x="63.623047"/>
       <use xlink:href="#DejaVuSans-30" x="95.410156"/>
      </g>
     </g>
    </g>
    <g id="ytick_2">
     <g id="line2d_11">
      <g>
       <use xlink:href="#m746cc09ac0" x="57.6" y="247.104" style="stroke: #000000; stroke-width: 0.8"/>
      </g>
     </g>
     <g id="text_12">
      <!-- 0.2 -->
      <g transform="translate(34.696875 250.903219)scale(0.1 -0.1)">
       <use xlink:href="#DejaVuSans-30"/>
       <use xlink:href="#DejaVuSans-2e" x="63.623047"/>
       <use xlink:href="#DejaVuSans-32" x="95.410156"/>
      </g>
     </g>
    </g>
    <g id="ytick_3">
     <g id="line2d_12">
      <g>
       <use xlink:href="#m746cc09ac0" x="57.6" y="198.72" style="stroke: #000000; stroke-width: 0.8"/>
      </g>
     </g>
     <g id="text_13">
      <!-- 0.4 -->
      <g transform="translate(34.696875 202.519219)scale(0.1 -0.1)">
       <defs>
        <path id="DejaVuSans-34" d="M 2419 4116 
L 825 1625 
L 2419 1625 
L 2419 4116 
z
M 2253 4666 
L 3047 4666 
L 3047 1625 
L 3713 1625 
L 3713 1100 
L 3047 1100 
L 3047 0 
L 2419 0 
L 2419 1100 
L 313 1100 
L 313 1709 
L 2253 4666 
z
" transform="scale(0.015625)"/>
       </defs>
       <use xlink:href="#DejaVuSans-30"/>
       <use xlink:href="#DejaVuSans-2e" x="63.623047"/>
       <use xlink:href="#DejaVuSans-34" x="95.410156"/>
      </g>
     </g>
    </g>
    <g id="ytick_4">
     <g id="line2d_13">
      <g>
       <use xlink:href="#m746cc09ac0" x="57.6" y="150.336" style="stroke: #000000; stroke-width: 0.8"/>
      </g>
     </g>
     <g id="text_14">
      <!-- 0.6 -->
      <g transform="translate(34.696875 154.135219)scale(0.1 -0.1)">
       <defs>
        <path id="DejaVuSans-36" d="M 2113 2584 
Q 1688 2584 1439 2293 
Q 1191 2003 1191 1497 
Q 1191 994 1439 701 
Q 1688 409 2113 409 
Q 2538 409 2786 701 
Q 3034 994 3034 1497 
Q 3034 2003 2786 2293 
Q 2538 2584 2113 2584 
z
M 3366 4563 
L 3366 3988 
Q 3128 4100 2886 4159 
Q 2644 4219 2406 4219 
Q 1781 4219 1451 3797 
Q 1122 3375 1075 2522 
Q 1259 2794 1537 2939 
Q 1816 3084 2150 3084 
Q 2853 3084 3261 2657 
Q 3669 2231 3669 1497 
Q 3669 778 3244 343 
Q 2819 -91 2113 -91 
Q 1303 -91 875 529 
Q 447 1150 447 2328 
Q 447 3434 972 4092 
Q 1497 4750 2381 4750 
Q 2619 4750 2861 4703 
Q 3103 4656 3366 4563 
z
" transform="scale(0.015625)"/>
       </defs>
       <use xlink:href="#DejaVuSans-30"/>
       <use xlink:href="#DejaVuSans-2e" x="63.623047"/>
       <use xlink:href="#DejaVuSans-36" x="95.410156"/>
      </g>
     </g>
    </g>
    <g id="ytick_5">
     <g id="line2d_14">
      <g>
       <use xlink:href="#m746cc09ac0" x="57.6" y="101.952" style="stroke: #000000; stroke-width: 0.8"/>
      </g>
     </g>
     <g id="text_15">
      <!-- 0.8 -->
      <g transform="translate(34.696875 105.751219)scale(0.1 -0.1)">
       <defs>
        <path id="DejaVuSans-38" d="M 2034 2216 
Q 1584 2216 1326 1975 
Q 1069 1734 1069 1313 
Q 1069 891 1326 650 
Q 1584 409 2034 409 
Q 2484 409 2743 651 
Q 3003 894 3003 1313 
Q 3003 1734 2745 1975 
Q 2488 2216 2034 2216 
z
M 1403 2484 
Q 997 2584 770 2862 
Q 544 3141 544 3541 
Q 544 4100 942 4425 
Q 1341 4750 2034 4750 
Q 2731 4750 3128 4425 
Q 3525 4100 3525 3541 
Q 3525 3141 3298 2862 
Q 3072 2584 2669 2484 
Q 3125 2378 3379 2068 
Q 3634 1759 3634 1313 
Q 3634 634 3220 271 
Q 2806 -91 2034 -91 
Q 1263 -91 848 271 
Q 434 634 434 1313 
Q 434 1759 690 2068 
Q 947 2378 1403 2484 
z
M 1172 3481 
Q 1172 3119 1398 2916 
Q 1625 2713 2034 2713 
Q 2441 2713 2670 2916 
Q 2900 3119 2900 3481 
Q 2900 3844 2670 4047 
Q 2441 4250 2034 4250 
Q 1625 4250 1398 4047 
Q 1172 3844 1172 3481 
z
" transform="scale(0.015625)"/>
       </defs>
       <use xlink:href="#DejaVuSans-30"/>
       <use xlink:href="#DejaVuSans-2e" x="63.623047"/>
       <use xlink:href="#DejaVuSans-38" x="95.410156"/>
      </g>
     </g>
    </g>
    <g id="ytick_6">
     <g id="line2d_15">
      <g>
       <use xlink:href="#m746cc09ac0" x="57.6" y="53.568" style="stroke: #000000; stroke-width: 0.8"/>
      </g>
     </g>
     <g id="text_16">
      <!-- 1.0 -->
      <g transform="translate(34.696875 57.367219)scale(0.1 -0.1)">
       <use xlink:href="#DejaVuSans-31"/>
       <use xlink:href="#DejaVuSans-2e" x="63.623047"/>
       <use xlink:href="#DejaVuSans-30" x="95.410156"/>
      </g>
     </g>
    </g>
    <g id="text_17">
     <!-- CDF(k) -->
     <g transform="translate(28.617187 191.542062)rotate(-90)scale(0.1 -0.1)">
      <defs>
       <path id="DejaVuSans-43" d="M 4122 4306 
L 4122 3641 
Q 3803 3938 3442 4084 
Q 3081 4231 2675 4231 
Q 1875 4231 1450 3742 
Q 1025 3253 1025 2328 
Q 1025 1406 1450 917 
Q 1875 428 2675 428 
Q 3081 428 3442 575 
Q 3803 722 4122 1019 
L 4122 359 
Q 3791 134 3420 21 
Q 3050 -91 2638 -91 
Q 1578 -91 968 557 
Q 359 1206 359 2328 
Q 359 3453 968 4101 
Q 1578 4750 2638 4750 
Q 3056 4750 3426 4639 
Q 3797 4528 4122 4306 
z
" transform="scale(0.015625)"/>
       <path id="DejaVuSans-44" d="M 1259 4147 
L 1259 519 
L 2022 519 
Q 2988 519 3436 956 
Q 3884 1394 3884 2338 
Q 3884 3275 3436 3711 
Q 2988 4147 2022 4147 
L 1259 4147 
z
M 628 4666 
L 1925 4666 
Q 3281 4666 3915 4102 
Q 4550 3538 4550 2338 
Q 4550 1131 3912 565 
Q 3275 0 1925 0 
L 628 0 
L 628 4666 
z
" transform="scale(0.015625)"/>
       <path id="DejaVuSans-46" d="M 628 4666 
L 3309 4666 
L 3309 4134 
L 1259 4134 
L 1259 2759 
L 3109 2759 
L 3109 2228 
L 1259 2228 
L 1259 0 
L 628 0 
L 628 4666 
z
" transform="scale(0.015625)"/>
       <path id="DejaVuSans-28" d="M 1984 4856 
Q 1566 4138 1362 3434 
Q 1159 2731 1159 2009 
Q 1159 1288 1364 580 
Q 1569 -128 1984 -844 
L 1484 -844 
Q 1016 -109 783 600 
Q 550 1309 550 2009 
Q 550 2706 781 3412 
Q 1013 4119 1484 4856 
L 1984 4856 
z
" transform="scale(0.015625)"/>
       <path id="DejaVuSans-29" d="M 513 4856 
L 1013 4856 
Q 1481 4119 1714 3412 
Q 1947 2706 1947 2009 
Q 1947 1309 1714 600 
Q 1481 -109 1013 -844 
L 513 -844 
Q 928 -128 1133 580 
Q 1338 1288 1338 2009 
Q 1338 2731 1133 3434 
Q 928 4138 513 4856 
z
" transform="scale(0.015625)"/>
      </defs>
      <use xlink:href="#DejaVuSans-43"/>
      <use xlink:href="#DejaVuSans-44" x="69.824219"/>
      <use xlink:href="#DejaVuSans-46" x="146.826172"/>
      <use xlink:href="#DejaVuSans-28" x="204.345703"/>
      <use xlink:href="#DejaVuSans-6b" x="243.359375"/>
      <use xlink:href="#DejaVuSans-29" x="301.269531"/>
     </g>
    </g>
   </g>
   <g id="line2d_16">
    <path d="M 73.832727 295.488 
L 77.095587 290.915712 
L 78.727017 288.931968 
L 80.358447 286.682112 
L 81.989877 284.11776 
L 86.884166 277.271424 
L 88.515596 274.973184 
L 91.778456 271.102464 
L 93.409886 269.11872 
L 95.041316 266.747904 
L 103.198465 256.393728 
L 104.829895 254.48256 
L 106.461325 252.208512 
L 111.355614 246.62016 
L 114.618474 242.62848 
L 117.881334 238.927104 
L 119.512764 237.403008 
L 121.144194 235.661184 
L 122.775624 234.088704 
L 126.038483 230.459904 
L 129.301343 227.02464 
L 130.932773 224.895744 
L 132.564203 223.27488 
L 134.195633 221.170176 
L 135.827063 219.718656 
L 137.458492 217.95264 
L 139.089922 216.646272 
L 140.721352 215.001216 
L 147.247072 209.84832 
L 150.509931 207.1872 
L 152.141361 206.292096 
L 153.772791 205.058304 
L 155.404221 203.606784 
L 166.82423 196.034688 
L 171.71852 193.15584 
L 173.34995 192.236544 
L 178.244239 189.962496 
L 181.507099 188.002944 
L 186.401389 185.849856 
L 188.032819 184.882176 
L 189.664249 184.156416 
L 194.558538 182.63232 
L 197.821398 181.350144 
L 199.452828 180.745344 
L 201.084258 180.019584 
L 202.715688 179.438976 
L 204.347117 179.076096 
L 205.978547 178.495488 
L 215.767127 175.97952 
L 220.661416 175.181184 
L 227.187136 174.576384 
L 233.712855 174.189312 
L 241.870005 174.116736 
L 248.395724 173.632896 
L 250.027154 173.245824 
L 253.290014 172.665216 
L 254.921444 172.302336 
L 256.552873 172.157184 
L 259.815733 171.310464 
L 261.447163 170.826624 
L 263.078593 170.463744 
L 264.710023 169.93152 
L 266.341453 169.617024 
L 269.604312 168.576768 
L 274.498602 166.955904 
L 276.130032 166.18176 
L 279.392892 165.262464 
L 284.287181 163.351296 
L 285.918611 162.601344 
L 287.550041 161.996544 
L 289.181471 161.125632 
L 294.075761 158.827392 
L 295.70719 158.07744 
L 298.97005 156.214656 
L 300.60148 155.488896 
L 303.86434 153.505152 
L 305.49577 152.222976 
L 307.1272 151.376256 
L 308.75863 149.997312 
L 312.021489 147.892608 
L 313.652919 146.562048 
L 318.547209 143.054208 
L 321.810069 140.320512 
L 325.072928 138.215808 
L 326.704358 136.328832 
L 329.967218 133.595136 
L 331.598648 132.43392 
L 338.124367 126.893952 
L 344.650087 120.023424 
L 346.281517 118.692864 
L 347.912947 116.854272 
L 349.544376 114.749568 
L 352.807236 111.120768 
L 354.438666 109.8144 
L 357.701526 106.30656 
L 359.332956 104.226048 
L 362.595815 100.766592 
L 365.858675 97.524864 
L 370.752965 91.6704 
L 372.384395 89.952768 
L 377.278684 83.977344 
L 378.910114 81.824256 
L 382.172974 76.840704 
L 383.804404 75.002112 
L 387.067264 70.889472 
L 388.698693 68.639616 
L 390.330123 66.655872 
L 391.961553 64.357632 
L 393.592983 62.252928 
L 395.224413 59.785344 
L 398.487273 55.479168 
L 398.487273 55.479168 
" clip-path="url(#pdc9e38c900)" style="fill: none; stroke: #1f77b4; stroke-width: 1.5; stroke-linecap: square"/>
   </g>
   <g id="line2d_17">
    <path d="M 73.832727 295.488 
L 75.464157 295.488 
L 77.095587 295.342848 
L 80.358447 294.689664 
L 81.989877 294.326784 
L 83.621307 293.504256 
L 85.252736 293.18976 
L 86.884166 292.58496 
L 91.778456 290.383488 
L 93.409886 289.125504 
L 95.041316 288.35136 
L 96.672746 287.335296 
L 98.304175 286.101504 
L 99.935605 285.182208 
L 101.567035 283.803264 
L 106.461325 280.682496 
L 109.724185 277.731072 
L 111.355614 276.569856 
L 112.987044 275.04576 
L 114.618474 273.691008 
L 116.249904 272.481408 
L 121.144194 268.199424 
L 122.775624 266.844672 
L 124.407053 265.683456 
L 126.038483 264.377088 
L 127.669913 262.70784 
L 129.301343 261.353088 
L 130.932773 259.514496 
L 132.564203 258.208128 
L 134.195633 256.684032 
L 139.089922 253.248768 
L 140.721352 251.676288 
L 152.141361 244.007424 
L 153.772791 243.305856 
L 155.404221 242.434944 
L 157.035651 241.757568 
L 163.56137 238.6368 
L 168.45566 236.749824 
L 170.08709 236.09664 
L 181.507099 232.419456 
L 186.401389 230.314752 
L 188.032819 229.347072 
L 189.664249 228.524544 
L 191.295678 227.363328 
L 196.189968 224.24256 
L 197.821398 223.129728 
L 199.452828 221.871744 
L 201.084258 220.37184 
L 202.715688 219.259008 
L 205.978547 216.549504 
L 209.241407 213.35616 
L 212.504267 210.017664 
L 214.135697 208.227456 
L 215.767127 205.905024 
L 217.398556 204.187392 
L 219.029986 202.252032 
L 223.924276 194.60736 
L 225.555706 192.0672 
L 227.187136 189.139968 
L 230.449995 184.035456 
L 235.344285 176.46336 
L 236.975715 172.810368 
L 238.607145 169.713792 
L 241.870005 163.980288 
L 243.501434 160.98048 
L 246.764294 155.488896 
L 253.290014 145.957248 
L 256.552873 141.070464 
L 259.815733 136.715904 
L 261.447163 134.659584 
L 263.078593 133.03872 
L 264.710023 131.22432 
L 269.604312 126.797184 
L 272.867172 124.20864 
L 274.498602 123.216768 
L 276.130032 121.716864 
L 277.761462 120.555648 
L 282.655751 117.773568 
L 284.287181 116.926848 
L 285.918611 116.297856 
L 289.181471 114.628608 
L 294.075761 112.572288 
L 295.70719 111.87072 
L 297.33862 111.290112 
L 300.60148 110.370816 
L 307.1272 107.975808 
L 310.390059 106.814592 
L 312.021489 106.330752 
L 313.652919 105.653376 
L 315.284349 104.758272 
L 318.547209 103.451904 
L 321.810069 101.734272 
L 323.441498 100.766592 
L 325.072928 100.089216 
L 326.704358 98.637696 
L 328.335788 97.863552 
L 331.598648 95.78304 
L 333.230078 94.670208 
L 338.124367 90.775296 
L 339.755797 89.37216 
L 343.018657 87.267456 
L 346.281517 84.219264 
L 347.912947 82.791936 
L 352.807236 79.45344 
L 357.701526 75.292416 
L 360.964386 73.115136 
L 362.595815 71.518464 
L 365.858675 68.954112 
L 367.490105 67.35744 
L 369.121535 66.38976 
L 370.752965 65.18016 
L 378.910114 60.632064 
L 383.804404 57.632256 
L 387.067264 56.132352 
L 390.330123 55.188864 
L 391.961553 54.995328 
L 393.592983 54.342144 
L 396.855843 53.93088 
L 398.487273 53.616384 
L 398.487273 53.616384 
" clip-path="url(#pdc9e38c900)" style="fill: none; stroke: #ff7f0e; stroke-width: 1.5; stroke-linecap: square"/>
   </g>
   <g id="line2d_18">
    <path d="M 73.832727 295.488 
L 86.884166 295.391232 
L 91.778456 295.270272 
L 99.935605 294.76224 
L 103.198465 294.230016 
L 104.829895 293.721984 
L 111.355614 292.560768 
L 114.618474 291.714048 
L 117.881334 290.625408 
L 121.144194 289.19808 
L 122.775624 288.641664 
L 127.669913 287.6256 
L 130.932773 286.319232 
L 132.564203 285.859584 
L 134.195633 285.158016 
L 135.827063 284.649984 
L 139.089922 283.488768 
L 143.984212 282.085632 
L 145.615642 281.505024 
L 148.878502 279.932544 
L 150.509931 279.351936 
L 153.772791 277.489152 
L 155.404221 276.7392 
L 157.035651 275.747328 
L 163.56137 270.667008 
L 166.82423 267.691392 
L 170.08709 263.55456 
L 171.71852 261.885312 
L 174.98138 257.845248 
L 176.61281 255.81312 
L 178.244239 254.143872 
L 179.875669 251.845632 
L 192.927108 235.97568 
L 194.558538 234.209664 
L 199.452828 228.331008 
L 202.715688 225.08928 
L 204.347117 223.105536 
L 205.978547 221.508864 
L 209.241407 218.001024 
L 210.872837 215.89632 
L 215.767127 210.501504 
L 217.398556 208.566144 
L 220.661416 203.703552 
L 222.292846 201.526272 
L 225.555706 195.889536 
L 227.187136 193.252608 
L 228.818566 190.13184 
L 232.081425 183.575808 
L 235.344285 177.092352 
L 236.975715 174.04416 
L 240.238575 167.488128 
L 241.870005 164.536704 
L 243.501434 161.125632 
L 246.764294 155.682432 
L 248.395724 153.23904 
L 250.027154 151.06176 
L 251.658584 148.569984 
L 253.290014 146.392704 
L 254.921444 143.465472 
L 256.552873 140.90112 
L 259.815733 136.377216 
L 263.078593 132.288768 
L 264.710023 130.643712 
L 266.341453 128.611584 
L 272.867172 121.886208 
L 279.392892 113.878656 
L 281.024322 111.919104 
L 282.655751 109.620864 
L 284.287181 107.830656 
L 285.918611 106.209792 
L 289.181471 102.266496 
L 290.812901 100.7424 
L 295.70719 94.45248 
L 300.60148 88.912512 
L 302.23291 86.856192 
L 305.49577 83.2032 
L 313.652919 76.018176 
L 316.915779 73.88928 
L 321.810069 71.083008 
L 323.441498 70.550784 
L 329.967218 67.84128 
L 331.598648 67.018752 
L 336.492937 65.446272 
L 338.124367 64.69632 
L 339.755797 64.09152 
L 341.387227 63.317376 
L 346.281517 61.744896 
L 347.912947 61.30944 
L 352.807236 59.688576 
L 354.438666 59.325696 
L 360.964386 57.366144 
L 362.595815 56.979072 
L 364.227245 56.47104 
L 365.858675 56.083968 
L 367.490105 55.551744 
L 369.121535 55.188864 
L 372.384395 54.825984 
L 383.804404 53.713152 
L 390.330123 53.592192 
L 398.487273 53.568 
L 398.487273 53.568 
" clip-path="url(#pdc9e38c900)" style="fill: none; stroke: #2ca02c; stroke-width: 1.5; stroke-linecap: square"/>
   </g>
   <g id="line2d_19">
    <path d="M 73.832727 295.488 
L 114.618474 295.391232 
L 117.881334 295.294464 
L 121.144194 295.12512 
L 127.669913 294.859008 
L 137.458492 294.15744 
L 139.089922 293.891328 
L 140.721352 293.746176 
L 142.352782 293.407488 
L 143.984212 293.238144 
L 150.509931 291.762432 
L 153.772791 290.722176 
L 155.404221 289.827072 
L 157.035651 289.367424 
L 160.298511 288.206208 
L 161.929941 287.190144 
L 166.82423 285.254784 
L 171.71852 282.690432 
L 173.34995 281.263104 
L 174.98138 280.053504 
L 183.138529 272.215296 
L 186.401389 269.046144 
L 188.032819 266.965632 
L 189.664249 265.248 
L 191.295678 263.022336 
L 194.558538 259.466112 
L 197.821398 254.313216 
L 201.084258 249.208704 
L 202.715688 246.402432 
L 205.978547 241.29792 
L 209.241407 235.104768 
L 210.872837 231.887232 
L 212.504267 229.177728 
L 223.924276 205.13088 
L 225.555706 201.50208 
L 227.187136 197.316864 
L 228.818566 194.12352 
L 230.449995 190.035072 
L 232.081425 186.357888 
L 233.712855 183.019392 
L 235.344285 178.785792 
L 236.975715 175.229568 
L 238.607145 170.923392 
L 240.238575 167.39136 
L 241.870005 163.375488 
L 243.501434 160.085376 
L 246.764294 151.90848 
L 248.395724 148.739328 
L 256.552873 130.692096 
L 258.184303 127.401984 
L 263.078593 118.378368 
L 264.710023 115.01568 
L 269.604312 107.225856 
L 271.235742 104.564736 
L 272.867172 101.492352 
L 277.761462 93.12192 
L 279.392892 90.968832 
L 281.024322 88.549632 
L 284.287181 84.219264 
L 289.181471 78.48576 
L 290.812901 76.961664 
L 294.075761 73.478016 
L 295.70719 71.929728 
L 298.97005 69.17184 
L 300.60148 68.252544 
L 302.23291 67.091328 
L 303.86434 66.123648 
L 307.1272 63.97056 
L 312.021489 61.575552 
L 315.284349 60.2208 
L 321.810069 58.358016 
L 323.441498 57.729024 
L 326.704358 56.882304 
L 331.598648 55.793664 
L 333.230078 55.479168 
L 336.492937 55.164672 
L 343.018657 54.438912 
L 346.281517 54.366336 
L 347.912947 54.196992 
L 369.121535 53.664768 
L 398.487273 53.568 
L 398.487273 53.568 
" clip-path="url(#pdc9e38c900)" style="fill: none; stroke: #d62728; stroke-width: 1.5; stroke-linecap: square"/>
   </g>
   <g id="line2d_20">
    <path d="M 73.832727 295.488 
L 142.352782 295.391232 
L 150.509931 295.24608 
L 153.772791 295.12512 
L 160.298511 294.713856 
L 161.929941 294.302592 
L 170.08709 293.020416 
L 171.71852 292.536576 
L 173.34995 291.835008 
L 174.98138 291.302784 
L 176.61281 290.359296 
L 179.875669 288.859392 
L 181.507099 287.794944 
L 184.769959 286.004736 
L 186.401389 284.891904 
L 189.664249 282.06144 
L 191.295678 280.368 
L 194.558538 277.174656 
L 196.189968 275.481216 
L 202.715688 265.538304 
L 207.609977 255.958272 
L 210.872837 249.111936 
L 214.135697 240.69312 
L 215.767127 237.330432 
L 223.924276 215.920512 
L 228.818566 201.961728 
L 230.449995 196.712064 
L 232.081425 190.833408 
L 235.344285 180.69696 
L 236.975715 175.568256 
L 238.607145 169.617024 
L 240.238575 164.827008 
L 241.870005 159.64992 
L 246.764294 142.981632 
L 248.395724 137.731968 
L 258.184303 108.84672 
L 261.447163 102.024576 
L 263.078593 98.419968 
L 264.710023 95.250816 
L 266.341453 92.444544 
L 267.972883 88.960896 
L 272.867172 80.034048 
L 274.498602 77.469696 
L 276.130032 75.195648 
L 277.761462 73.453824 
L 279.392892 70.98624 
L 281.024322 68.92992 
L 282.655751 67.139712 
L 284.287181 65.712384 
L 285.918611 64.551168 
L 287.550041 63.220608 
L 289.181471 62.0352 
L 290.812901 61.164288 
L 292.444331 60.051456 
L 294.075761 59.422464 
L 295.70719 58.212864 
L 297.33862 57.753216 
L 298.97005 57.124224 
L 303.86434 55.914624 
L 307.1272 55.14048 
L 312.021489 54.342144 
L 315.284349 54.05184 
L 320.178639 53.834112 
L 344.650087 53.568 
L 398.487273 53.568 
L 398.487273 53.568 
" clip-path="url(#pdc9e38c900)" style="fill: none; stroke: #9467bd; stroke-width: 1.5; stroke-linecap: square"/>
   </g>
   <g id="line2d_21">
    <path d="M 73.832727 295.488 
L 171.71852 295.415424 
L 179.875669 294.955776 
L 188.032819 293.770368 
L 192.927108 292.197888 
L 196.189968 290.722176 
L 197.821398 289.633536 
L 199.452828 288.278784 
L 202.715688 284.891904 
L 204.347117 283.077504 
L 205.978547 280.924416 
L 209.241407 275.481216 
L 210.872837 272.312064 
L 212.504267 268.683264 
L 214.135697 264.135168 
L 215.767127 260.216064 
L 217.398556 255.619584 
L 220.661416 244.854144 
L 222.292846 239.943168 
L 225.555706 226.29888 
L 227.187136 219.815424 
L 232.081425 198.526464 
L 233.712855 189.986688 
L 236.975715 174.842496 
L 245.132864 136.740096 
L 246.764294 129.579264 
L 251.658584 110.007936 
L 253.290014 103.7664 
L 256.552873 93.557376 
L 258.184303 88.694784 
L 263.078593 76.937472 
L 266.341453 70.5024 
L 267.972883 68.034816 
L 271.235742 63.946368 
L 274.498602 60.898176 
L 276.130032 59.85792 
L 281.024322 57.1968 
L 282.655751 56.519424 
L 284.287181 56.132352 
L 285.918611 55.600128 
L 290.812901 54.680832 
L 294.075761 54.269568 
L 295.70719 53.979264 
L 302.23291 53.785728 
L 312.021489 53.592192 
L 398.487273 53.568 
L 398.487273 53.568 
" clip-path="url(#pdc9e38c900)" style="fill: none; stroke: #8c564b; stroke-width: 1.5; stroke-linecap: square"/>
   </g>
   <g id="line2d_22">
    <path d="M 73.832727 295.488 
L 191.295678 295.415424 
L 194.558538 295.221888 
L 201.084258 294.350976 
L 202.715688 293.939712 
L 204.347117 293.359104 
L 207.609977 291.01248 
L 209.241407 289.56096 
L 210.872837 287.722368 
L 212.504267 284.988672 
L 214.135697 282.54528 
L 217.398556 274.465152 
L 219.029986 269.650944 
L 220.661416 264.135168 
L 223.924276 250.950528 
L 225.555706 243.11232 
L 227.187136 234.717696 
L 230.449995 215.630208 
L 232.081425 205.058304 
L 233.712855 195.357312 
L 235.344285 183.866112 
L 240.238575 152.343936 
L 243.501434 132.966144 
L 245.132864 122.87808 
L 248.395724 107.008128 
L 253.290014 85.0176 
L 256.552873 74.566656 
L 259.815733 67.188096 
L 261.447163 64.381824 
L 263.078593 62.083584 
L 264.710023 60.172416 
L 266.341453 58.551552 
L 267.972883 57.245184 
L 269.604312 56.204928 
L 271.235742 55.454976 
L 272.867172 54.922752 
L 274.498602 54.53568 
L 277.761462 54.027648 
L 282.655751 53.68896 
L 287.550041 53.616384 
L 292.444331 53.568 
L 398.487273 53.568 
L 398.487273 53.568 
" clip-path="url(#pdc9e38c900)" style="fill: none; stroke: #e377c2; stroke-width: 1.5; stroke-linecap: square"/>
   </g>
   <g id="patch_3">
    <path d="M 57.6 307.584 
L 57.6 41.472 
" style="fill: none; stroke: #000000; stroke-width: 0.8; stroke-linejoin: miter; stroke-linecap: square"/>
   </g>
   <g id="patch_4">
    <path d="M 414.72 307.584 
L 414.72 41.472 
" style="fill: none; stroke: #000000; stroke-width: 0.8; stroke-linejoin: miter; stroke-linecap: square"/>
   </g>
   <g id="patch_5">
    <path d="M 57.6 307.584 
L 414.72 307.584 
" style="fill: none; stroke: #000000; stroke-width: 0.8; stroke-linejoin: miter; stroke-linecap: square"/>
   </g>
   <g id="patch_6">
    <path d="M 57.6 41.472 
L 414.72 41.472 
" style="fill: none; stroke: #000000; stroke-width: 0.8; stroke-linejoin: miter; stroke-linecap: square"/>
   </g>
   <g id="text_18">
    <!-- CDF plots for different N values -->
    <g transform="translate(141.915937 35.472)scale(0.12 -0.12)">
     <defs>
      <path id="DejaVuSans-70" d="M 1159 525 
L 1159 -1331 
L 581 -1331 
L 581 3500 
L 1159 3500 
L 1159 2969 
Q 1341 3281 1617 3432 
Q 1894 3584 2278 3584 
Q 2916 3584 3314 3078 
Q 3713 2572 3713 1747 
Q 3713 922 3314 415 
Q 2916 -91 2278 -91 
Q 1894 -91 1617 61 
Q 1341 213 1159 525 
z
M 3116 1747 
Q 3116 2381 2855 2742 
Q 2594 3103 2138 3103 
Q 1681 3103 1420 2742 
Q 1159 2381 1159 1747 
Q 1159 1113 1420 752 
Q 1681 391 2138 391 
Q 2594 391 2855 752 
Q 3116 1113 3116 1747 
z
" transform="scale(0.015625)"/>
      <path id="DejaVuSans-74" d="M 1172 4494 
L 1172 3500 
L 2356 3500 
L 2356 3053 
L 1172 3053 
L 1172 1153 
Q 1172 725 1289 603 
Q 1406 481 1766 481 
L 2356 481 
L 2356 0 
L 1766 0 
Q 1100 0 847 248 
Q 594 497 594 1153 
L 594 3053 
L 172 3053 
L 172 3500 
L 594 3500 
L 594 4494 
L 1172 4494 
z
" transform="scale(0.015625)"/>
      <path id="DejaVuSans-73" d="M 2834 3397 
L 2834 2853 
Q 2591 2978 2328 3040 
Q 2066 3103 1784 3103 
Q 1356 3103 1142 2972 
Q 928 2841 928 2578 
Q 928 2378 1081 2264 
Q 1234 2150 1697 2047 
L 1894 2003 
Q 2506 1872 2764 1633 
Q 3022 1394 3022 966 
Q 3022 478 2636 193 
Q 2250 -91 1575 -91 
Q 1294 -91 989 -36 
Q 684 19 347 128 
L 347 722 
Q 666 556 975 473 
Q 1284 391 1588 391 
Q 1994 391 2212 530 
Q 2431 669 2431 922 
Q 2431 1156 2273 1281 
Q 2116 1406 1581 1522 
L 1381 1569 
Q 847 1681 609 1914 
Q 372 2147 372 2553 
Q 372 3047 722 3315 
Q 1072 3584 1716 3584 
Q 2034 3584 2315 3537 
Q 2597 3491 2834 3397 
z
" transform="scale(0.015625)"/>
      <path id="DejaVuSans-72" d="M 2631 2963 
Q 2534 3019 2420 3045 
Q 2306 3072 2169 3072 
Q 1681 3072 1420 2755 
Q 1159 2438 1159 1844 
L 1159 0 
L 581 0 
L 581 3500 
L 1159 3500 
L 1159 2956 
Q 1341 3275 1631 3429 
Q 1922 3584 2338 3584 
Q 2397 3584 2469 3576 
Q 2541 3569 2628 3553 
L 2631 2963 
z
" transform="scale(0.015625)"/>
      <path id="DejaVuSans-64" d="M 2906 2969 
L 2906 4863 
L 3481 4863 
L 3481 0 
L 2906 0 
L 2906 525 
Q 2725 213 2448 61 
Q 2172 -91 1784 -91 
Q 1150 -91 751 415 
Q 353 922 353 1747 
Q 353 2572 751 3078 
Q 1150 3584 1784 3584 
Q 2172 3584 2448 3432 
Q 2725 3281 2906 2969 
z
M 947 1747 
Q 947 1113 1208 752 
Q 1469 391 1925 391 
Q 2381 391 2643 752 
Q 2906 1113 2906 1747 
Q 2906 2381 2643 2742 
Q 2381 3103 1925 3103 
Q 1469 3103 1208 2742 
Q 947 2381 947 1747 
z
" transform="scale(0.015625)"/>
      <path id="DejaVuSans-69" d="M 603 3500 
L 1178 3500 
L 1178 0 
L 603 0 
L 603 3500 
z
M 603 4863 
L 1178 4863 
L 1178 4134 
L 603 4134 
L 603 4863 
z
" transform="scale(0.015625)"/>
      <path id="DejaVuSans-6e" d="M 3513 2113 
L 3513 0 
L 2938 0 
L 2938 2094 
Q 2938 2591 2744 2837 
Q 2550 3084 2163 3084 
Q 1697 3084 1428 2787 
Q 1159 2491 1159 1978 
L 1159 0 
L 581 0 
L 581 3500 
L 1159 3500 
L 1159 2956 
Q 1366 3272 1645 3428 
Q 1925 3584 2291 3584 
Q 2894 3584 3203 3211 
Q 3513 2838 3513 2113 
z
" transform="scale(0.015625)"/>
      <path id="DejaVuSans-4e" d="M 628 4666 
L 1478 4666 
L 3547 763 
L 3547 4666 
L 4159 4666 
L 4159 0 
L 3309 0 
L 1241 3903 
L 1241 0 
L 628 0 
L 628 4666 
z
" transform="scale(0.015625)"/>
      <path id="DejaVuSans-76" d="M 191 3500 
L 800 3500 
L 1894 563 
L 2988 3500 
L 3597 3500 
L 2284 0 
L 1503 0 
L 191 3500 
z
" transform="scale(0.015625)"/>
     </defs>
     <use xlink:href="#DejaVuSans-43"/>
     <use xlink:href="#DejaVuSans-44" x="69.824219"/>
     <use xlink:href="#DejaVuSans-46" x="146.826172"/>
     <use xlink:href="#DejaVuSans-20" x="204.345703"/>
     <use xlink:href="#DejaVuSans-70" x="236.132812"/>
     <use xlink:href="#DejaVuSans-6c" x="299.609375"/>
     <use xlink:href="#DejaVuSans-6f" x="327.392578"/>
     <use xlink:href="#DejaVuSans-74" x="388.574219"/>
     <use xlink:href="#DejaVuSans-73" x="427.783203"/>
     <use xlink:href="#DejaVuSans-20" x="479.882812"/>
     <use xlink:href="#DejaVuSans-66" x="511.669922"/>
     <use xlink:href="#DejaVuSans-6f" x="546.875"/>
     <use xlink:href="#DejaVuSans-72" x="608.056641"/>
     <use xlink:href="#DejaVuSans-20" x="649.169922"/>
     <use xlink:href="#DejaVuSans-64" x="680.957031"/>
     <use xlink:href="#DejaVuSans-69" x="744.433594"/>
     <use xlink:href="#DejaVuSans-66" x="772.216797"/>
     <use xlink:href="#DejaVuSans-66" x="807.421875"/>
     <use xlink:href="#DejaVuSans-65" x="842.626953"/>
     <use xlink:href="#DejaVuSans-72" x="904.150391"/>
     <use xlink:href="#DejaVuSans-65" x="943.013672"/>
     <use xlink:href="#DejaVuSans-6e" x="1004.537109"/>
     <use xlink:href="#DejaVuSans-74" x="1067.916016"/>
     <use xlink:href="#DejaVuSans-20" x="1107.125"/>
     <use xlink:href="#DejaVuSans-4e" x="1138.912109"/>
     <use xlink:href="#DejaVuSans-20" x="1213.716797"/>
     <use xlink:href="#DejaVuSans-76" x="1245.503906"/>
     <use xlink:href="#DejaVuSans-61" x="1304.683594"/>
     <use xlink:href="#DejaVuSans-6c" x="1365.962891"/>
     <use xlink:href="#DejaVuSans-75" x="1393.746094"/>
     <use xlink:href="#DejaVuSans-65" x="1457.125"/>
     <use xlink:href="#DejaVuSans-73" x="1518.648438"/>
    </g>
   </g>
   <g id="legend_1">
    <g id="patch_7">
     <path d="M 64.6 152.218875 
L 131.542188 152.218875 
Q 133.542188 152.218875 133.542188 150.218875 
L 133.542188 48.472 
Q 133.542188 46.472 131.542188 46.472 
L 64.6 46.472 
Q 62.6 46.472 62.6 48.472 
L 62.6 150.218875 
Q 62.6 152.218875 64.6 152.218875 
z
" style="fill: #ffffff; opacity: 0.8; stroke: #cccccc; stroke-linejoin: miter"/>
    </g>
    <g id="line2d_23">
     <path d="M 66.6 54.570438 
L 76.6 54.570438 
L 86.6 54.570438 
" style="fill: none; stroke: #1f77b4; stroke-width: 1.5; stroke-linecap: square"/>
    </g>
    <g id="text_19">
     <!-- N = 1 -->
     <g transform="translate(94.6 58.070438)scale(0.1 -0.1)">
      <defs>
       <path id="DejaVuSans-3d" d="M 678 2906 
L 4684 2906 
L 4684 2381 
L 678 2381 
L 678 2906 
z
M 678 1631 
L 4684 1631 
L 4684 1100 
L 678 1100 
L 678 1631 
z
" transform="scale(0.015625)"/>
      </defs>
      <use xlink:href="#DejaVuSans-4e"/>
      <use xlink:href="#DejaVuSans-20" x="74.804688"/>
      <use xlink:href="#DejaVuSans-3d" x="106.591797"/>
      <use xlink:href="#DejaVuSans-20" x="190.380859"/>
      <use xlink:href="#DejaVuSans-31" x="222.167969"/>
     </g>
    </g>
    <g id="line2d_24">
     <path d="M 66.6 69.248563 
L 76.6 69.248563 
L 86.6 69.248563 
" style="fill: none; stroke: #ff7f0e; stroke-width: 1.5; stroke-linecap: square"/>
    </g>
    <g id="text_20">
     <!-- N = 2 -->
     <g transform="translate(94.6 72.748563)scale(0.1 -0.1)">
      <use xlink:href="#DejaVuSans-4e"/>
      <use xlink:href="#DejaVuSans-20" x="74.804688"/>
      <use xlink:href="#DejaVuSans-3d" x="106.591797"/>
      <use xlink:href="#DejaVuSans-20" x="190.380859"/>
      <use xlink:href="#DejaVuSans-32" x="222.167969"/>
     </g>
    </g>
    <g id="line2d_25">
     <path d="M 66.6 83.926688 
L 76.6 83.926688 
L 86.6 83.926688 
" style="fill: none; stroke: #2ca02c; stroke-width: 1.5; stroke-linecap: square"/>
    </g>
    <g id="text_21">
     <!-- N = 4 -->
     <g transform="translate(94.6 87.426688)scale(0.1 -0.1)">
      <use xlink:href="#DejaVuSans-4e"/>
      <use xlink:href="#DejaVuSans-20" x="74.804688"/>
      <use xlink:href="#DejaVuSans-3d" x="106.591797"/>
      <use xlink:href="#DejaVuSans-20" x="190.380859"/>
      <use xlink:href="#DejaVuSans-34" x="222.167969"/>
     </g>
    </g>
    <g id="line2d_26">
     <path d="M 66.6 98.604813 
L 76.6 98.604813 
L 86.6 98.604813 
" style="fill: none; stroke: #d62728; stroke-width: 1.5; stroke-linecap: square"/>
    </g>
    <g id="text_22">
     <!-- N = 8 -->
     <g transform="translate(94.6 102.104813)scale(0.1 -0.1)">
      <use xlink:href="#DejaVuSans-4e"/>
      <use xlink:href="#DejaVuSans-20" x="74.804688"/>
      <use xlink:href="#DejaVuSans-3d" x="106.591797"/>
      <use xlink:href="#DejaVuSans-20" x="190.380859"/>
      <use xlink:href="#DejaVuSans-38" x="222.167969"/>
     </g>
    </g>
    <g id="line2d_27">
     <path d="M 66.6 113.282938 
L 76.6 113.282938 
L 86.6 113.282938 
" style="fill: none; stroke: #9467bd; stroke-width: 1.5; stroke-linecap: square"/>
    </g>
    <g id="text_23">
     <!-- N = 16 -->
     <g transform="translate(94.6 116.782938)scale(0.1 -0.1)">
      <use xlink:href="#DejaVuSans-4e"/>
      <use xlink:href="#DejaVuSans-20" x="74.804688"/>
      <use xlink:href="#DejaVuSans-3d" x="106.591797"/>
      <use xlink:href="#DejaVuSans-20" x="190.380859"/>
      <use xlink:href="#DejaVuSans-31" x="222.167969"/>
      <use xlink:href="#DejaVuSans-36" x="285.791016"/>
     </g>
    </g>
    <g id="line2d_28">
     <path d="M 66.6 127.961063 
L 76.6 127.961063 
L 86.6 127.961063 
" style="fill: none; stroke: #8c564b; stroke-width: 1.5; stroke-linecap: square"/>
    </g>
    <g id="text_24">
     <!-- N = 32 -->
     <g transform="translate(94.6 131.461063)scale(0.1 -0.1)">
      <defs>
       <path id="DejaVuSans-33" d="M 2597 2516 
Q 3050 2419 3304 2112 
Q 3559 1806 3559 1356 
Q 3559 666 3084 287 
Q 2609 -91 1734 -91 
Q 1441 -91 1130 -33 
Q 819 25 488 141 
L 488 750 
Q 750 597 1062 519 
Q 1375 441 1716 441 
Q 2309 441 2620 675 
Q 2931 909 2931 1356 
Q 2931 1769 2642 2001 
Q 2353 2234 1838 2234 
L 1294 2234 
L 1294 2753 
L 1863 2753 
Q 2328 2753 2575 2939 
Q 2822 3125 2822 3475 
Q 2822 3834 2567 4026 
Q 2313 4219 1838 4219 
Q 1578 4219 1281 4162 
Q 984 4106 628 3988 
L 628 4550 
Q 988 4650 1302 4700 
Q 1616 4750 1894 4750 
Q 2613 4750 3031 4423 
Q 3450 4097 3450 3541 
Q 3450 3153 3228 2886 
Q 3006 2619 2597 2516 
z
" transform="scale(0.015625)"/>
      </defs>
      <use xlink:href="#DejaVuSans-4e"/>
      <use xlink:href="#DejaVuSans-20" x="74.804688"/>
      <use xlink:href="#DejaVuSans-3d" x="106.591797"/>
      <use xlink:href="#DejaVuSans-20" x="190.380859"/>
      <use xlink:href="#DejaVuSans-33" x="222.167969"/>
      <use xlink:href="#DejaVuSans-32" x="285.791016"/>
     </g>
    </g>
    <g id="line2d_29">
     <path d="M 66.6 142.639188 
L 76.6 142.639188 
L 86.6 142.639188 
" style="fill: none; stroke: #e377c2; stroke-width: 1.5; stroke-linecap: square"/>
    </g>
    <g id="text_25">
     <!-- N = 64 -->
     <g transform="translate(94.6 146.139188)scale(0.1 -0.1)">
      <use xlink:href="#DejaVuSans-4e"/>
      <use xlink:href="#DejaVuSans-20" x="74.804688"/>
      <use xlink:href="#DejaVuSans-3d" x="106.591797"/>
      <use xlink:href="#DejaVuSans-20" x="190.380859"/>
      <use xlink:href="#DejaVuSans-36" x="222.167969"/>
      <use xlink:href="#DejaVuSans-34" x="285.791016"/>
     </g>
    </g>
   </g>
  </g>
 </g>
 <defs>
  <clipPath id="pdc9e38c900">
   <rect x="57.6" y="41.472" width="357.12" height="266.112"/>
  </clipPath>
 </defs>
</svg>
