<?xml version="1.0" encoding="utf-8" standalone="no"?>
<!DOCTYPE svg PUBLIC "-//W3C//DTD SVG 1.1//EN"
  "http://www.w3.org/Graphics/SVG/1.1/DTD/svg11.dtd">
<svg xmlns:xlink="http://www.w3.org/1999/xlink" width="460.8pt" height="345.6pt" viewBox="0 0 460.8 345.6" xmlns="http://www.w3.org/2000/svg" version="1.1">
 <metadata>
  <rdf:RDF xmlns:dc="http://purl.org/dc/elements/1.1/" xmlns:cc="http://creativecommons.org/ns#" xmlns:rdf="http://www.w3.org/1999/02/22-rdf-syntax-ns#">
   <cc:Work>
    <dc:type rdf:resource="http://purl.org/dc/dcmitype/StillImage"/>
    <dc:date>2022-08-22T12:07:41.380212</dc:date>
    <dc:format>image/svg+xml</dc:format>
    <dc:creator>
     <cc:Agent>
      <dc:title>Matplotlib v3.5.3, https://matplotlib.org/</dc:title>
     </cc:Agent>
    </dc:creator>
   </cc:Work>
  </rdf:RDF>
 </metadata>
 <defs>
  <style type="text/css">*{stroke-linejoin: round; stroke-linecap: butt}</style>
 </defs>
 <g id="figure_1">
  <g id="patch_1">
   <path d="M 0 345.6 
L 460.8 345.6 
L 460.8 0 
L 0 0 
z
" style="fill: #ffffff"/>
  </g>
  <g id="axes_1">
   <g id="patch_2">
    <path d="M 57.6 307.584 
L 414.72 307.584 
L 414.72 41.472 
L 57.6 41.472 
z
" style="fill: #ffffff"/>
   </g>
   <g id="patch_3">
    <path d="M 73.832727 307.584 
L 75.464157 307.584 
L 75.464157 59.017846 
L 73.832727 59.017846 
z
" clip-path="url(#p946a5f0f30)" style="fill: #1f77b4"/>
   </g>
   <g id="patch_4">
    <path d="M 75.464157 307.584 
L 77.095587 307.584 
L 77.095587 67.059692 
L 75.464157 67.059692 
z
" clip-path="url(#p946a5f0f30)" style="fill: #1f77b4"/>
   </g>
   <g id="patch_5">
    <path d="M 77.095587 307.584 
L 78.727017 307.584 
L 78.727017 67.059692 
L 77.095587 67.059692 
z
" clip-path="url(#p946a5f0f30)" style="fill: #1f77b4"/>
   </g>
   <g id="patch_6">
    <path d="M 78.727017 307.584 
L 80.358447 307.584 
L 80.358447 71.933538 
L 78.727017 71.933538 
z
" clip-path="url(#p946a5f0f30)" style="fill: #1f77b4"/>
   </g>
   <g id="patch_7">
    <path d="M 80.358447 307.584 
L 81.989877 307.584 
L 81.989877 88.504615 
L 80.358447 88.504615 
z
" clip-path="url(#p946a5f0f30)" style="fill: #1f77b4"/>
   </g>
   <g id="patch_8">
    <path d="M 81.989877 307.584 
L 83.621307 307.584 
L 83.621307 76.32 
L 81.989877 76.32 
z
" clip-path="url(#p946a5f0f30)" style="fill: #1f77b4"/>
   </g>
   <g id="patch_9">
    <path d="M 83.621307 307.584 
L 85.252736 307.584 
L 85.252736 77.538462 
L 83.621307 77.538462 
z
" clip-path="url(#p946a5f0f30)" style="fill: #1f77b4"/>
   </g>
   <g id="patch_10">
    <path d="M 85.252736 307.584 
L 86.884166 307.584 
L 86.884166 74.370462 
L 85.252736 74.370462 
z
" clip-path="url(#p946a5f0f30)" style="fill: #1f77b4"/>
   </g>
   <g id="patch_11">
    <path d="M 86.884166 307.584 
L 88.515596 307.584 
L 88.515596 95.328 
L 86.884166 95.328 
z
" clip-path="url(#p946a5f0f30)" style="fill: #1f77b4"/>
   </g>
   <g id="patch_12">
    <path d="M 88.515596 307.584 
L 90.147026 307.584 
L 90.147026 90.210462 
L 88.515596 90.210462 
z
" clip-path="url(#p946a5f0f30)" style="fill: #1f77b4"/>
   </g>
   <g id="patch_13">
    <path d="M 90.147026 307.584 
L 91.778456 307.584 
L 91.778456 81.437538 
L 90.147026 81.437538 
z
" clip-path="url(#p946a5f0f30)" style="fill: #1f77b4"/>
   </g>
   <g id="patch_14">
    <path d="M 91.778456 307.584 
L 93.409886 307.584 
L 93.409886 92.16 
L 91.778456 92.16 
z
" clip-path="url(#p946a5f0f30)" style="fill: #1f77b4"/>
   </g>
   <g id="patch_15">
    <path d="M 93.409886 307.584 
L 95.041316 307.584 
L 95.041316 104.832 
L 93.409886 104.832 
z
" clip-path="url(#p946a5f0f30)" style="fill: #1f77b4"/>
   </g>
   <g id="patch_16">
    <path d="M 95.041316 307.584 
L 96.672746 307.584 
L 96.672746 96.790154 
L 95.041316 96.790154 
z
" clip-path="url(#p946a5f0f30)" style="fill: #1f77b4"/>
   </g>
   <g id="patch_17">
    <path d="M 96.672746 307.584 
L 98.304175 307.584 
L 98.304175 89.235692 
L 96.672746 89.235692 
z
" clip-path="url(#p946a5f0f30)" style="fill: #1f77b4"/>
   </g>
   <g id="patch_18">
    <path d="M 98.304175 307.584 
L 99.935605 307.584 
L 99.935605 108.243692 
L 98.304175 108.243692 
z
" clip-path="url(#p946a5f0f30)" style="fill: #1f77b4"/>
   </g>
   <g id="patch_19">
    <path d="M 99.935605 307.584 
L 101.567035 307.584 
L 101.567035 104.588308 
L 99.935605 104.588308 
z
" clip-path="url(#p946a5f0f30)" style="fill: #1f77b4"/>
   </g>
   <g id="patch_20">
    <path d="M 101.567035 307.584 
L 103.198465 307.584 
L 103.198465 96.546462 
L 101.567035 96.546462 
z
" clip-path="url(#p946a5f0f30)" style="fill: #1f77b4"/>
   </g>
   <g id="patch_21">
    <path d="M 103.198465 307.584 
L 104.829895 307.584 
L 104.829895 98.983385 
L 103.198465 98.983385 
z
" clip-path="url(#p946a5f0f30)" style="fill: #1f77b4"/>
   </g>
   <g id="patch_22">
    <path d="M 104.829895 307.584 
L 106.461325 307.584 
L 106.461325 113.117538 
L 104.829895 113.117538 
z
" clip-path="url(#p946a5f0f30)" style="fill: #1f77b4"/>
   </g>
   <g id="patch_23">
    <path d="M 106.461325 307.584 
L 108.092755 307.584 
L 108.092755 113.117538 
L 106.461325 113.117538 
z
" clip-path="url(#p946a5f0f30)" style="fill: #1f77b4"/>
   </g>
   <g id="patch_24">
    <path d="M 108.092755 307.584 
L 109.724185 307.584 
L 109.724185 116.285538 
L 108.092755 116.285538 
z
" clip-path="url(#p946a5f0f30)" style="fill: #1f77b4"/>
   </g>
   <g id="patch_25">
    <path d="M 109.724185 307.584 
L 111.355614 307.584 
L 111.355614 112.142769 
L 109.724185 112.142769 
z
" clip-path="url(#p946a5f0f30)" style="fill: #1f77b4"/>
   </g>
   <g id="patch_26">
    <path d="M 111.355614 307.584 
L 112.987044 307.584 
L 112.987044 136.512 
L 111.355614 136.512 
z
" clip-path="url(#p946a5f0f30)" style="fill: #1f77b4"/>
   </g>
   <g id="patch_27">
    <path d="M 112.987044 307.584 
L 114.618474 307.584 
L 114.618474 111.899077 
L 112.987044 111.899077 
z
" clip-path="url(#p946a5f0f30)" style="fill: #1f77b4"/>
   </g>
   <g id="patch_28">
    <path d="M 114.618474 307.584 
L 116.249904 307.584 
L 116.249904 131.638154 
L 114.618474 131.638154 
z
" clip-path="url(#p946a5f0f30)" style="fill: #1f77b4"/>
   </g>
   <g id="patch_29">
    <path d="M 116.249904 307.584 
L 117.881334 307.584 
L 117.881334 129.688615 
L 116.249904 129.688615 
z
" clip-path="url(#p946a5f0f30)" style="fill: #1f77b4"/>
   </g>
   <g id="patch_30">
    <path d="M 117.881334 307.584 
L 119.512764 307.584 
L 119.512764 139.68 
L 117.881334 139.68 
z
" clip-path="url(#p946a5f0f30)" style="fill: #1f77b4"/>
   </g>
   <g id="patch_31">
    <path d="M 119.512764 307.584 
L 121.144194 307.584 
L 121.144194 131.638154 
L 119.512764 131.638154 
z
" clip-path="url(#p946a5f0f30)" style="fill: #1f77b4"/>
   </g>
   <g id="patch_32">
    <path d="M 121.144194 307.584 
L 122.775624 307.584 
L 122.775624 128.957538 
L 121.144194 128.957538 
z
" clip-path="url(#p946a5f0f30)" style="fill: #1f77b4"/>
   </g>
   <g id="patch_33">
    <path d="M 122.775624 307.584 
L 124.407053 307.584 
L 124.407053 123.108923 
L 122.775624 123.108923 
z
" clip-path="url(#p946a5f0f30)" style="fill: #1f77b4"/>
   </g>
   <g id="patch_34">
    <path d="M 124.407053 307.584 
L 126.038483 307.584 
L 126.038483 162.099692 
L 124.407053 162.099692 
z
" clip-path="url(#p946a5f0f30)" style="fill: #1f77b4"/>
   </g>
   <g id="patch_35">
    <path d="M 126.038483 307.584 
L 127.669913 307.584 
L 127.669913 142.848 
L 126.038483 142.848 
z
" clip-path="url(#p946a5f0f30)" style="fill: #1f77b4"/>
   </g>
   <g id="patch_36">
    <path d="M 127.669913 307.584 
L 129.301343 307.584 
L 129.301343 162.587077 
L 127.669913 162.587077 
z
" clip-path="url(#p946a5f0f30)" style="fill: #1f77b4"/>
   </g>
   <g id="patch_37">
    <path d="M 129.301343 307.584 
L 130.932773 307.584 
L 130.932773 148.452923 
L 129.301343 148.452923 
z
" clip-path="url(#p946a5f0f30)" style="fill: #1f77b4"/>
   </g>
   <g id="patch_38">
    <path d="M 130.932773 307.584 
L 132.564203 307.584 
L 132.564203 146.990769 
L 130.932773 146.990769 
z
" clip-path="url(#p946a5f0f30)" style="fill: #1f77b4"/>
   </g>
   <g id="patch_39">
    <path d="M 132.564203 307.584 
L 134.195633 307.584 
L 134.195633 160.393846 
L 132.564203 160.393846 
z
" clip-path="url(#p946a5f0f30)" style="fill: #1f77b4"/>
   </g>
   <g id="patch_40">
    <path d="M 134.195633 307.584 
L 135.827063 307.584 
L 135.827063 162.099692 
L 134.195633 162.099692 
z
" clip-path="url(#p946a5f0f30)" style="fill: #1f77b4"/>
   </g>
   <g id="patch_41">
    <path d="M 135.827063 307.584 
L 137.458492 307.584 
L 137.458492 156.738462 
L 135.827063 156.738462 
z
" clip-path="url(#p946a5f0f30)" style="fill: #1f77b4"/>
   </g>
   <g id="patch_42">
    <path d="M 137.458492 307.584 
L 139.089922 307.584 
L 139.089922 161.612308 
L 137.458492 161.612308 
z
" clip-path="url(#p946a5f0f30)" style="fill: #1f77b4"/>
   </g>
   <g id="patch_43">
    <path d="M 139.089922 307.584 
L 140.721352 307.584 
L 140.721352 160.637538 
L 139.089922 160.637538 
z
" clip-path="url(#p946a5f0f30)" style="fill: #1f77b4"/>
   </g>
   <g id="patch_44">
    <path d="M 140.721352 307.584 
L 142.352782 307.584 
L 142.352782 169.410462 
L 140.721352 169.410462 
z
" clip-path="url(#p946a5f0f30)" style="fill: #1f77b4"/>
   </g>
   <g id="patch_45">
    <path d="M 142.352782 307.584 
L 143.984212 307.584 
L 143.984212 165.024 
L 142.352782 165.024 
z
" clip-path="url(#p946a5f0f30)" style="fill: #1f77b4"/>
   </g>
   <g id="patch_46">
    <path d="M 143.984212 307.584 
L 145.615642 307.584 
L 145.615642 177.696 
L 143.984212 177.696 
z
" clip-path="url(#p946a5f0f30)" style="fill: #1f77b4"/>
   </g>
   <g id="patch_47">
    <path d="M 145.615642 307.584 
L 147.247072 307.584 
L 147.247072 176.721231 
L 145.615642 176.721231 
z
" clip-path="url(#p946a5f0f30)" style="fill: #1f77b4"/>
   </g>
   <g id="patch_48">
    <path d="M 147.247072 307.584 
L 148.878502 307.584 
L 148.878502 165.755077 
L 147.247072 165.755077 
z
" clip-path="url(#p946a5f0f30)" style="fill: #1f77b4"/>
   </g>
   <g id="patch_49">
    <path d="M 148.878502 307.584 
L 150.509931 307.584 
L 150.509931 172.822154 
L 148.878502 172.822154 
z
" clip-path="url(#p946a5f0f30)" style="fill: #1f77b4"/>
   </g>
   <g id="patch_50">
    <path d="M 150.509931 307.584 
L 152.141361 307.584 
L 152.141361 172.578462 
L 150.509931 172.578462 
z
" clip-path="url(#p946a5f0f30)" style="fill: #1f77b4"/>
   </g>
   <g id="patch_51">
    <path d="M 152.141361 307.584 
L 153.772791 307.584 
L 153.772791 194.267077 
L 152.141361 194.267077 
z
" clip-path="url(#p946a5f0f30)" style="fill: #1f77b4"/>
   </g>
   <g id="patch_52">
    <path d="M 153.772791 307.584 
L 155.404221 307.584 
L 155.404221 183.544615 
L 153.772791 183.544615 
z
" clip-path="url(#p946a5f0f30)" style="fill: #1f77b4"/>
   </g>
   <g id="patch_53">
    <path d="M 155.404221 307.584 
L 157.035651 307.584 
L 157.035651 182.813538 
L 155.404221 182.813538 
z
" clip-path="url(#p946a5f0f30)" style="fill: #1f77b4"/>
   </g>
   <g id="patch_54">
    <path d="M 157.035651 307.584 
L 158.667081 307.584 
L 158.667081 193.048615 
L 157.035651 193.048615 
z
" clip-path="url(#p946a5f0f30)" style="fill: #1f77b4"/>
   </g>
   <g id="patch_55">
    <path d="M 158.667081 307.584 
L 160.298511 307.584 
L 160.298511 185.006769 
L 158.667081 185.006769 
z
" clip-path="url(#p946a5f0f30)" style="fill: #1f77b4"/>
   </g>
   <g id="patch_56">
    <path d="M 160.298511 307.584 
L 161.929941 307.584 
L 161.929941 193.779692 
L 160.298511 193.779692 
z
" clip-path="url(#p946a5f0f30)" style="fill: #1f77b4"/>
   </g>
   <g id="patch_57">
    <path d="M 161.929941 307.584 
L 163.56137 307.584 
L 163.56137 195.241846 
L 161.929941 195.241846 
z
" clip-path="url(#p946a5f0f30)" style="fill: #1f77b4"/>
   </g>
   <g id="patch_58">
    <path d="M 163.56137 307.584 
L 165.1928 307.584 
L 165.1928 191.099077 
L 163.56137 191.099077 
z
" clip-path="url(#p946a5f0f30)" style="fill: #1f77b4"/>
   </g>
   <g id="patch_59">
    <path d="M 165.1928 307.584 
L 166.82423 307.584 
L 166.82423 195.972923 
L 165.1928 195.972923 
z
" clip-path="url(#p946a5f0f30)" style="fill: #1f77b4"/>
   </g>
   <g id="patch_60">
    <path d="M 166.82423 307.584 
L 168.45566 307.584 
L 168.45566 209.132308 
L 166.82423 209.132308 
z
" clip-path="url(#p946a5f0f30)" style="fill: #1f77b4"/>
   </g>
   <g id="patch_61">
    <path d="M 168.45566 307.584 
L 170.08709 307.584 
L 170.08709 207.670154 
L 168.45566 207.670154 
z
" clip-path="url(#p946a5f0f30)" style="fill: #1f77b4"/>
   </g>
   <g id="patch_62">
    <path d="M 170.08709 307.584 
L 171.71852 307.584 
L 171.71852 211.569231 
L 170.08709 211.569231 
z
" clip-path="url(#p946a5f0f30)" style="fill: #1f77b4"/>
   </g>
   <g id="patch_63">
    <path d="M 171.71852 307.584 
L 173.34995 307.584 
L 173.34995 212.300308 
L 171.71852 212.300308 
z
" clip-path="url(#p946a5f0f30)" style="fill: #1f77b4"/>
   </g>
   <g id="patch_64">
    <path d="M 173.34995 307.584 
L 174.98138 307.584 
L 174.98138 208.644923 
L 173.34995 208.644923 
z
" clip-path="url(#p946a5f0f30)" style="fill: #1f77b4"/>
   </g>
   <g id="patch_65">
    <path d="M 174.98138 307.584 
L 176.61281 307.584 
L 176.61281 220.342154 
L 174.98138 220.342154 
z
" clip-path="url(#p946a5f0f30)" style="fill: #1f77b4"/>
   </g>
   <g id="patch_66">
    <path d="M 176.61281 307.584 
L 178.244239 307.584 
L 178.244239 214.493538 
L 176.61281 214.493538 
z
" clip-path="url(#p946a5f0f30)" style="fill: #1f77b4"/>
   </g>
   <g id="patch_67">
    <path d="M 178.244239 307.584 
L 179.875669 307.584 
L 179.875669 222.779077 
L 178.244239 222.779077 
z
" clip-path="url(#p946a5f0f30)" style="fill: #1f77b4"/>
   </g>
   <g id="patch_68">
    <path d="M 179.875669 307.584 
L 181.507099 307.584 
L 181.507099 224.728615 
L 179.875669 224.728615 
z
" clip-path="url(#p946a5f0f30)" style="fill: #1f77b4"/>
   </g>
   <g id="patch_69">
    <path d="M 181.507099 307.584 
L 183.138529 307.584 
L 183.138529 227.165538 
L 181.507099 227.165538 
z
" clip-path="url(#p946a5f0f30)" style="fill: #1f77b4"/>
   </g>
   <g id="patch_70">
    <path d="M 183.138529 307.584 
L 184.769959 307.584 
L 184.769959 233.014154 
L 183.138529 233.014154 
z
" clip-path="url(#p946a5f0f30)" style="fill: #1f77b4"/>
   </g>
   <g id="patch_71">
    <path d="M 184.769959 307.584 
L 186.401389 307.584 
L 186.401389 240.568615 
L 184.769959 240.568615 
z
" clip-path="url(#p946a5f0f30)" style="fill: #1f77b4"/>
   </g>
   <g id="patch_72">
    <path d="M 186.401389 307.584 
L 188.032819 307.584 
L 188.032819 234.963692 
L 186.401389 234.963692 
z
" clip-path="url(#p946a5f0f30)" style="fill: #1f77b4"/>
   </g>
   <g id="patch_73">
    <path d="M 188.032819 307.584 
L 189.664249 307.584 
L 189.664249 240.081231 
L 188.032819 240.081231 
z
" clip-path="url(#p946a5f0f30)" style="fill: #1f77b4"/>
   </g>
   <g id="patch_74">
    <path d="M 189.664249 307.584 
L 191.295678 307.584 
L 191.295678 238.131692 
L 189.664249 238.131692 
z
" clip-path="url(#p946a5f0f30)" style="fill: #1f77b4"/>
   </g>
   <g id="patch_75">
    <path d="M 191.295678 307.584 
L 192.927108 307.584 
L 192.927108 237.156923 
L 191.295678 237.156923 
z
" clip-path="url(#p946a5f0f30)" style="fill: #1f77b4"/>
   </g>
   <g id="patch_76">
    <path d="M 192.927108 307.584 
L 194.558538 307.584 
L 194.558538 241.543385 
L 192.927108 241.543385 
z
" clip-path="url(#p946a5f0f30)" style="fill: #1f77b4"/>
   </g>
   <g id="patch_77">
    <path d="M 194.558538 307.584 
L 196.189968 307.584 
L 196.189968 246.904615 
L 194.558538 246.904615 
z
" clip-path="url(#p946a5f0f30)" style="fill: #1f77b4"/>
   </g>
   <g id="patch_78">
    <path d="M 196.189968 307.584 
L 197.821398 307.584 
L 197.821398 247.879385 
L 196.189968 247.879385 
z
" clip-path="url(#p946a5f0f30)" style="fill: #1f77b4"/>
   </g>
   <g id="patch_79">
    <path d="M 197.821398 307.584 
L 199.452828 307.584 
L 199.452828 252.996923 
L 197.821398 252.996923 
z
" clip-path="url(#p946a5f0f30)" style="fill: #1f77b4"/>
   </g>
   <g id="patch_80">
    <path d="M 199.452828 307.584 
L 201.084258 307.584 
L 201.084258 247.879385 
L 199.452828 247.879385 
z
" clip-path="url(#p946a5f0f30)" style="fill: #1f77b4"/>
   </g>
   <g id="patch_81">
    <path d="M 201.084258 307.584 
L 202.715688 307.584 
L 202.715688 259.820308 
L 201.084258 259.820308 
z
" clip-path="url(#p946a5f0f30)" style="fill: #1f77b4"/>
   </g>
   <g id="patch_82">
    <path d="M 202.715688 307.584 
L 204.347117 307.584 
L 204.347117 254.459077 
L 202.715688 254.459077 
z
" clip-path="url(#p946a5f0f30)" style="fill: #1f77b4"/>
   </g>
   <g id="patch_83">
    <path d="M 204.347117 307.584 
L 205.978547 307.584 
L 205.978547 265.668923 
L 204.347117 265.668923 
z
" clip-path="url(#p946a5f0f30)" style="fill: #1f77b4"/>
   </g>
   <g id="patch_84">
    <path d="M 205.978547 307.584 
L 207.609977 307.584 
L 207.609977 255.677538 
L 205.978547 255.677538 
z
" clip-path="url(#p946a5f0f30)" style="fill: #1f77b4"/>
   </g>
   <g id="patch_85">
    <path d="M 207.609977 307.584 
L 209.241407 307.584 
L 209.241407 263.719385 
L 207.609977 263.719385 
z
" clip-path="url(#p946a5f0f30)" style="fill: #1f77b4"/>
   </g>
   <g id="patch_86">
    <path d="M 209.241407 307.584 
L 210.872837 307.584 
L 210.872837 266.156308 
L 209.241407 266.156308 
z
" clip-path="url(#p946a5f0f30)" style="fill: #1f77b4"/>
   </g>
   <g id="patch_87">
    <path d="M 210.872837 307.584 
L 212.504267 307.584 
L 212.504267 272.979692 
L 210.872837 272.979692 
z
" clip-path="url(#p946a5f0f30)" style="fill: #1f77b4"/>
   </g>
   <g id="patch_88">
    <path d="M 212.504267 307.584 
L 214.135697 307.584 
L 214.135697 268.836923 
L 212.504267 268.836923 
z
" clip-path="url(#p946a5f0f30)" style="fill: #1f77b4"/>
   </g>
   <g id="patch_89">
    <path d="M 214.135697 307.584 
L 215.767127 307.584 
L 215.767127 275.660308 
L 214.135697 275.660308 
z
" clip-path="url(#p946a5f0f30)" style="fill: #1f77b4"/>
   </g>
   <g id="patch_90">
    <path d="M 215.767127 307.584 
L 217.398556 307.584 
L 217.398556 275.416615 
L 215.767127 275.416615 
z
" clip-path="url(#p946a5f0f30)" style="fill: #1f77b4"/>
   </g>
   <g id="patch_91">
    <path d="M 217.398556 307.584 
L 219.029986 307.584 
L 219.029986 280.534154 
L 217.398556 280.534154 
z
" clip-path="url(#p946a5f0f30)" style="fill: #1f77b4"/>
   </g>
   <g id="patch_92">
    <path d="M 219.029986 307.584 
L 220.661416 307.584 
L 220.661416 278.828308 
L 219.029986 278.828308 
z
" clip-path="url(#p946a5f0f30)" style="fill: #1f77b4"/>
   </g>
   <g id="patch_93">
    <path d="M 220.661416 307.584 
L 222.292846 307.584 
L 222.292846 283.214769 
L 220.661416 283.214769 
z
" clip-path="url(#p946a5f0f30)" style="fill: #1f77b4"/>
   </g>
   <g id="patch_94">
    <path d="M 222.292846 307.584 
L 223.924276 307.584 
L 223.924276 287.113846 
L 222.292846 287.113846 
z
" clip-path="url(#p946a5f0f30)" style="fill: #1f77b4"/>
   </g>
   <g id="patch_95">
    <path d="M 223.924276 307.584 
L 225.555706 307.584 
L 225.555706 289.063385 
L 223.924276 289.063385 
z
" clip-path="url(#p946a5f0f30)" style="fill: #1f77b4"/>
   </g>
   <g id="patch_96">
    <path d="M 225.555706 307.584 
L 227.187136 307.584 
L 227.187136 293.206154 
L 225.555706 293.206154 
z
" clip-path="url(#p946a5f0f30)" style="fill: #1f77b4"/>
   </g>
   <g id="patch_97">
    <path d="M 227.187136 307.584 
L 228.818566 307.584 
L 228.818566 295.399385 
L 227.187136 295.399385 
z
" clip-path="url(#p946a5f0f30)" style="fill: #1f77b4"/>
   </g>
   <g id="patch_98">
    <path d="M 228.818566 307.584 
L 230.449995 307.584 
L 230.449995 294.180923 
L 228.818566 294.180923 
z
" clip-path="url(#p946a5f0f30)" style="fill: #1f77b4"/>
   </g>
   <g id="patch_99">
    <path d="M 230.449995 307.584 
L 232.081425 307.584 
L 232.081425 299.785846 
L 230.449995 299.785846 
z
" clip-path="url(#p946a5f0f30)" style="fill: #1f77b4"/>
   </g>
   <g id="patch_100">
    <path d="M 232.081425 307.584 
L 233.712855 307.584 
L 233.712855 302.466462 
L 232.081425 302.466462 
z
" clip-path="url(#p946a5f0f30)" style="fill: #1f77b4"/>
   </g>
   <g id="patch_101">
    <path d="M 233.712855 307.584 
L 235.344285 307.584 
L 235.344285 302.710154 
L 233.712855 302.710154 
z
" clip-path="url(#p946a5f0f30)" style="fill: #1f77b4"/>
   </g>
   <g id="patch_102">
    <path d="M 235.344285 307.584 
L 236.975715 307.584 
L 236.975715 305.878154 
L 235.344285 305.878154 
z
" clip-path="url(#p946a5f0f30)" style="fill: #1f77b4"/>
   </g>
   <g id="patch_103">
    <path d="M 236.975715 307.584 
L 238.607145 307.584 
L 238.607145 306.609231 
L 236.975715 306.609231 
z
" clip-path="url(#p946a5f0f30)" style="fill: #1f77b4"/>
   </g>
   <g id="patch_104">
    <path d="M 238.607145 307.584 
L 240.238575 307.584 
L 240.238575 303.684923 
L 238.607145 303.684923 
z
" clip-path="url(#p946a5f0f30)" style="fill: #1f77b4"/>
   </g>
   <g id="patch_105">
    <path d="M 240.238575 307.584 
L 241.870005 307.584 
L 241.870005 304.172308 
L 240.238575 304.172308 
z
" clip-path="url(#p946a5f0f30)" style="fill: #1f77b4"/>
   </g>
   <g id="patch_106">
    <path d="M 241.870005 307.584 
L 243.501434 307.584 
L 243.501434 297.348923 
L 241.870005 297.348923 
z
" clip-path="url(#p946a5f0f30)" style="fill: #1f77b4"/>
   </g>
   <g id="patch_107">
    <path d="M 243.501434 307.584 
L 245.132864 307.584 
L 245.132864 297.592615 
L 243.501434 297.592615 
z
" clip-path="url(#p946a5f0f30)" style="fill: #1f77b4"/>
   </g>
   <g id="patch_108">
    <path d="M 245.132864 307.584 
L 246.764294 307.584 
L 246.764294 291.500308 
L 245.132864 291.500308 
z
" clip-path="url(#p946a5f0f30)" style="fill: #1f77b4"/>
   </g>
   <g id="patch_109">
    <path d="M 246.764294 307.584 
L 248.395724 307.584 
L 248.395724 291.256615 
L 246.764294 291.256615 
z
" clip-path="url(#p946a5f0f30)" style="fill: #1f77b4"/>
   </g>
   <g id="patch_110">
    <path d="M 248.395724 307.584 
L 250.027154 307.584 
L 250.027154 287.601231 
L 248.395724 287.601231 
z
" clip-path="url(#p946a5f0f30)" style="fill: #1f77b4"/>
   </g>
   <g id="patch_111">
    <path d="M 250.027154 307.584 
L 251.658584 307.584 
L 251.658584 289.307077 
L 250.027154 289.307077 
z
" clip-path="url(#p946a5f0f30)" style="fill: #1f77b4"/>
   </g>
   <g id="patch_112">
    <path d="M 251.658584 307.584 
L 253.290014 307.584 
L 253.290014 284.676923 
L 251.658584 284.676923 
z
" clip-path="url(#p946a5f0f30)" style="fill: #1f77b4"/>
   </g>
   <g id="patch_113">
    <path d="M 253.290014 307.584 
L 254.921444 307.584 
L 254.921444 281.265231 
L 253.290014 281.265231 
z
" clip-path="url(#p946a5f0f30)" style="fill: #1f77b4"/>
   </g>
   <g id="patch_114">
    <path d="M 254.921444 307.584 
L 256.552873 307.584 
L 256.552873 277.122462 
L 254.921444 277.122462 
z
" clip-path="url(#p946a5f0f30)" style="fill: #1f77b4"/>
   </g>
   <g id="patch_115">
    <path d="M 256.552873 307.584 
L 258.184303 307.584 
L 258.184303 279.315692 
L 256.552873 279.315692 
z
" clip-path="url(#p946a5f0f30)" style="fill: #1f77b4"/>
   </g>
   <g id="patch_116">
    <path d="M 258.184303 307.584 
L 259.815733 307.584 
L 259.815733 279.559385 
L 258.184303 279.559385 
z
" clip-path="url(#p946a5f0f30)" style="fill: #1f77b4"/>
   </g>
   <g id="patch_117">
    <path d="M 259.815733 307.584 
L 261.447163 307.584 
L 261.447163 271.761231 
L 259.815733 271.761231 
z
" clip-path="url(#p946a5f0f30)" style="fill: #1f77b4"/>
   </g>
   <g id="patch_118">
    <path d="M 261.447163 307.584 
L 263.078593 307.584 
L 263.078593 274.441846 
L 261.447163 274.441846 
z
" clip-path="url(#p946a5f0f30)" style="fill: #1f77b4"/>
   </g>
   <g id="patch_119">
    <path d="M 263.078593 307.584 
L 264.710023 307.584 
L 264.710023 268.349538 
L 263.078593 268.349538 
z
" clip-path="url(#p946a5f0f30)" style="fill: #1f77b4"/>
   </g>
   <g id="patch_120">
    <path d="M 264.710023 307.584 
L 266.341453 307.584 
L 266.341453 270.299077 
L 264.710023 270.299077 
z
" clip-path="url(#p946a5f0f30)" style="fill: #1f77b4"/>
   </g>
   <g id="patch_121">
    <path d="M 266.341453 307.584 
L 267.972883 307.584 
L 267.972883 259.089231 
L 266.341453 259.089231 
z
" clip-path="url(#p946a5f0f30)" style="fill: #1f77b4"/>
   </g>
   <g id="patch_122">
    <path d="M 267.972883 307.584 
L 269.604312 307.584 
L 269.604312 261.769846 
L 267.972883 261.769846 
z
" clip-path="url(#p946a5f0f30)" style="fill: #1f77b4"/>
   </g>
   <g id="patch_123">
    <path d="M 269.604312 307.584 
L 271.235742 307.584 
L 271.235742 253.240615 
L 269.604312 253.240615 
z
" clip-path="url(#p946a5f0f30)" style="fill: #1f77b4"/>
   </g>
   <g id="patch_124">
    <path d="M 271.235742 307.584 
L 272.867172 307.584 
L 272.867172 257.870769 
L 271.235742 257.870769 
z
" clip-path="url(#p946a5f0f30)" style="fill: #1f77b4"/>
   </g>
   <g id="patch_125">
    <path d="M 272.867172 307.584 
L 274.498602 307.584 
L 274.498602 250.072615 
L 272.867172 250.072615 
z
" clip-path="url(#p946a5f0f30)" style="fill: #1f77b4"/>
   </g>
   <g id="patch_126">
    <path d="M 274.498602 307.584 
L 276.130032 307.584 
L 276.130032 250.56 
L 274.498602 250.56 
z
" clip-path="url(#p946a5f0f30)" style="fill: #1f77b4"/>
   </g>
   <g id="patch_127">
    <path d="M 276.130032 307.584 
L 277.761462 307.584 
L 277.761462 244.711385 
L 276.130032 244.711385 
z
" clip-path="url(#p946a5f0f30)" style="fill: #1f77b4"/>
   </g>
   <g id="patch_128">
    <path d="M 277.761462 307.584 
L 279.392892 307.584 
L 279.392892 244.955077 
L 277.761462 244.955077 
z
" clip-path="url(#p946a5f0f30)" style="fill: #1f77b4"/>
   </g>
   <g id="patch_129">
    <path d="M 279.392892 307.584 
L 281.024322 307.584 
L 281.024322 241.787077 
L 279.392892 241.787077 
z
" clip-path="url(#p946a5f0f30)" style="fill: #1f77b4"/>
   </g>
   <g id="patch_130">
    <path d="M 281.024322 307.584 
L 282.655751 307.584 
L 282.655751 245.198769 
L 281.024322 245.198769 
z
" clip-path="url(#p946a5f0f30)" style="fill: #1f77b4"/>
   </g>
   <g id="patch_131">
    <path d="M 282.655751 307.584 
L 284.287181 307.584 
L 284.287181 239.593846 
L 282.655751 239.593846 
z
" clip-path="url(#p946a5f0f30)" style="fill: #1f77b4"/>
   </g>
   <g id="patch_132">
    <path d="M 284.287181 307.584 
L 285.918611 307.584 
L 285.918611 227.652923 
L 284.287181 227.652923 
z
" clip-path="url(#p946a5f0f30)" style="fill: #1f77b4"/>
   </g>
   <g id="patch_133">
    <path d="M 285.918611 307.584 
L 287.550041 307.584 
L 287.550041 225.703385 
L 285.918611 225.703385 
z
" clip-path="url(#p946a5f0f30)" style="fill: #1f77b4"/>
   </g>
   <g id="patch_134">
    <path d="M 287.550041 307.584 
L 289.181471 307.584 
L 289.181471 226.921846 
L 287.550041 226.921846 
z
" clip-path="url(#p946a5f0f30)" style="fill: #1f77b4"/>
   </g>
   <g id="patch_135">
    <path d="M 289.181471 307.584 
L 290.812901 307.584 
L 290.812901 224.484923 
L 289.181471 224.484923 
z
" clip-path="url(#p946a5f0f30)" style="fill: #1f77b4"/>
   </g>
   <g id="patch_136">
    <path d="M 290.812901 307.584 
L 292.444331 307.584 
L 292.444331 225.216 
L 290.812901 225.216 
z
" clip-path="url(#p946a5f0f30)" style="fill: #1f77b4"/>
   </g>
   <g id="patch_137">
    <path d="M 292.444331 307.584 
L 294.075761 307.584 
L 294.075761 214.493538 
L 292.444331 214.493538 
z
" clip-path="url(#p946a5f0f30)" style="fill: #1f77b4"/>
   </g>
   <g id="patch_138">
    <path d="M 294.075761 307.584 
L 295.70719 307.584 
L 295.70719 223.753846 
L 294.075761 223.753846 
z
" clip-path="url(#p946a5f0f30)" style="fill: #1f77b4"/>
   </g>
   <g id="patch_139">
    <path d="M 295.70719 307.584 
L 297.33862 307.584 
L 297.33862 222.779077 
L 295.70719 222.779077 
z
" clip-path="url(#p946a5f0f30)" style="fill: #1f77b4"/>
   </g>
   <g id="patch_140">
    <path d="M 297.33862 307.584 
L 298.97005 307.584 
L 298.97005 216.199385 
L 297.33862 216.199385 
z
" clip-path="url(#p946a5f0f30)" style="fill: #1f77b4"/>
   </g>
   <g id="patch_141">
    <path d="M 298.97005 307.584 
L 300.60148 307.584 
L 300.60148 218.88 
L 298.97005 218.88 
z
" clip-path="url(#p946a5f0f30)" style="fill: #1f77b4"/>
   </g>
   <g id="patch_142">
    <path d="M 300.60148 307.584 
L 302.23291 307.584 
L 302.23291 215.712 
L 300.60148 215.712 
z
" clip-path="url(#p946a5f0f30)" style="fill: #1f77b4"/>
   </g>
   <g id="patch_143">
    <path d="M 302.23291 307.584 
L 303.86434 307.584 
L 303.86434 210.838154 
L 302.23291 210.838154 
z
" clip-path="url(#p946a5f0f30)" style="fill: #1f77b4"/>
   </g>
   <g id="patch_144">
    <path d="M 303.86434 307.584 
L 305.49577 307.584 
L 305.49577 198.166154 
L 303.86434 198.166154 
z
" clip-path="url(#p946a5f0f30)" style="fill: #1f77b4"/>
   </g>
   <g id="patch_145">
    <path d="M 305.49577 307.584 
L 307.1272 307.584 
L 307.1272 199.872 
L 305.49577 199.872 
z
" clip-path="url(#p946a5f0f30)" style="fill: #1f77b4"/>
   </g>
   <g id="patch_146">
    <path d="M 307.1272 307.584 
L 308.75863 307.584 
L 308.75863 207.426462 
L 307.1272 207.426462 
z
" clip-path="url(#p946a5f0f30)" style="fill: #1f77b4"/>
   </g>
   <g id="patch_147">
    <path d="M 308.75863 307.584 
L 310.390059 307.584 
L 310.390059 196.704 
L 308.75863 196.704 
z
" clip-path="url(#p946a5f0f30)" style="fill: #1f77b4"/>
   </g>
   <g id="patch_148">
    <path d="M 310.390059 307.584 
L 312.021489 307.584 
L 312.021489 194.998154 
L 310.390059 194.998154 
z
" clip-path="url(#p946a5f0f30)" style="fill: #1f77b4"/>
   </g>
   <g id="patch_149">
    <path d="M 312.021489 307.584 
L 313.652919 307.584 
L 313.652919 189.149538 
L 312.021489 189.149538 
z
" clip-path="url(#p946a5f0f30)" style="fill: #1f77b4"/>
   </g>
   <g id="patch_150">
    <path d="M 313.652919 307.584 
L 315.284349 307.584 
L 315.284349 202.552615 
L 313.652919 202.552615 
z
" clip-path="url(#p946a5f0f30)" style="fill: #1f77b4"/>
   </g>
   <g id="patch_151">
    <path d="M 315.284349 307.584 
L 316.915779 307.584 
L 316.915779 193.536 
L 315.284349 193.536 
z
" clip-path="url(#p946a5f0f30)" style="fill: #1f77b4"/>
   </g>
   <g id="patch_152">
    <path d="M 316.915779 307.584 
L 318.547209 307.584 
L 318.547209 189.880615 
L 316.915779 189.880615 
z
" clip-path="url(#p946a5f0f30)" style="fill: #1f77b4"/>
   </g>
   <g id="patch_153">
    <path d="M 318.547209 307.584 
L 320.178639 307.584 
L 320.178639 185.494154 
L 318.547209 185.494154 
z
" clip-path="url(#p946a5f0f30)" style="fill: #1f77b4"/>
   </g>
   <g id="patch_154">
    <path d="M 320.178639 307.584 
L 321.810069 307.584 
L 321.810069 191.830154 
L 320.178639 191.830154 
z
" clip-path="url(#p946a5f0f30)" style="fill: #1f77b4"/>
   </g>
   <g id="patch_155">
    <path d="M 321.810069 307.584 
L 323.441498 307.584 
L 323.441498 179.401846 
L 321.810069 179.401846 
z
" clip-path="url(#p946a5f0f30)" style="fill: #1f77b4"/>
   </g>
   <g id="patch_156">
    <path d="M 323.441498 307.584 
L 325.072928 307.584 
L 325.072928 186.225231 
L 323.441498 186.225231 
z
" clip-path="url(#p946a5f0f30)" style="fill: #1f77b4"/>
   </g>
   <g id="patch_157">
    <path d="M 325.072928 307.584 
L 326.704358 307.584 
L 326.704358 183.544615 
L 325.072928 183.544615 
z
" clip-path="url(#p946a5f0f30)" style="fill: #1f77b4"/>
   </g>
   <g id="patch_158">
    <path d="M 326.704358 307.584 
L 328.335788 307.584 
L 328.335788 175.259077 
L 326.704358 175.259077 
z
" clip-path="url(#p946a5f0f30)" style="fill: #1f77b4"/>
   </g>
   <g id="patch_159">
    <path d="M 328.335788 307.584 
L 329.967218 307.584 
L 329.967218 167.948308 
L 328.335788 167.948308 
z
" clip-path="url(#p946a5f0f30)" style="fill: #1f77b4"/>
   </g>
   <g id="patch_160">
    <path d="M 329.967218 307.584 
L 331.598648 307.584 
L 331.598648 163.318154 
L 329.967218 163.318154 
z
" clip-path="url(#p946a5f0f30)" style="fill: #1f77b4"/>
   </g>
   <g id="patch_161">
    <path d="M 331.598648 307.584 
L 333.230078 307.584 
L 333.230078 159.175385 
L 331.598648 159.175385 
z
" clip-path="url(#p946a5f0f30)" style="fill: #1f77b4"/>
   </g>
   <g id="patch_162">
    <path d="M 333.230078 307.584 
L 334.861508 307.584 
L 334.861508 167.460923 
L 333.230078 167.460923 
z
" clip-path="url(#p946a5f0f30)" style="fill: #1f77b4"/>
   </g>
   <g id="patch_163">
    <path d="M 334.861508 307.584 
L 336.492937 307.584 
L 336.492937 168.192 
L 334.861508 168.192 
z
" clip-path="url(#p946a5f0f30)" style="fill: #1f77b4"/>
   </g>
   <g id="patch_164">
    <path d="M 336.492937 307.584 
L 338.124367 307.584 
L 338.124367 154.788923 
L 336.492937 154.788923 
z
" clip-path="url(#p946a5f0f30)" style="fill: #1f77b4"/>
   </g>
   <g id="patch_165">
    <path d="M 338.124367 307.584 
L 339.755797 307.584 
L 339.755797 146.990769 
L 338.124367 146.990769 
z
" clip-path="url(#p946a5f0f30)" style="fill: #1f77b4"/>
   </g>
   <g id="patch_166">
    <path d="M 339.755797 307.584 
L 341.387227 307.584 
L 341.387227 156.007385 
L 339.755797 156.007385 
z
" clip-path="url(#p946a5f0f30)" style="fill: #1f77b4"/>
   </g>
   <g id="patch_167">
    <path d="M 341.387227 307.584 
L 343.018657 307.584 
L 343.018657 138.461538 
L 341.387227 138.461538 
z
" clip-path="url(#p946a5f0f30)" style="fill: #1f77b4"/>
   </g>
   <g id="patch_168">
    <path d="M 343.018657 307.584 
L 344.650087 307.584 
L 344.650087 140.898462 
L 343.018657 140.898462 
z
" clip-path="url(#p946a5f0f30)" style="fill: #1f77b4"/>
   </g>
   <g id="patch_169">
    <path d="M 344.650087 307.584 
L 346.281517 307.584 
L 346.281517 142.604308 
L 344.650087 142.604308 
z
" clip-path="url(#p946a5f0f30)" style="fill: #1f77b4"/>
   </g>
   <g id="patch_170">
    <path d="M 346.281517 307.584 
L 347.912947 307.584 
L 347.912947 140.898462 
L 346.281517 140.898462 
z
" clip-path="url(#p946a5f0f30)" style="fill: #1f77b4"/>
   </g>
   <g id="patch_171">
    <path d="M 347.912947 307.584 
L 349.544376 307.584 
L 349.544376 134.075077 
L 347.912947 134.075077 
z
" clip-path="url(#p946a5f0f30)" style="fill: #1f77b4"/>
   </g>
   <g id="patch_172">
    <path d="M 349.544376 307.584 
L 351.175806 307.584 
L 351.175806 137.243077 
L 349.544376 137.243077 
z
" clip-path="url(#p946a5f0f30)" style="fill: #1f77b4"/>
   </g>
   <g id="patch_173">
    <path d="M 351.175806 307.584 
L 352.807236 307.584 
L 352.807236 141.385846 
L 351.175806 141.385846 
z
" clip-path="url(#p946a5f0f30)" style="fill: #1f77b4"/>
   </g>
   <g id="patch_174">
    <path d="M 352.807236 307.584 
L 354.438666 307.584 
L 354.438666 126.276923 
L 352.807236 126.276923 
z
" clip-path="url(#p946a5f0f30)" style="fill: #1f77b4"/>
   </g>
   <g id="patch_175">
    <path d="M 354.438666 307.584 
L 356.070096 307.584 
L 356.070096 117.504 
L 354.438666 117.504 
z
" clip-path="url(#p946a5f0f30)" style="fill: #1f77b4"/>
   </g>
   <g id="patch_176">
    <path d="M 356.070096 307.584 
L 357.701526 307.584 
L 357.701526 123.84 
L 356.070096 123.84 
z
" clip-path="url(#p946a5f0f30)" style="fill: #1f77b4"/>
   </g>
   <g id="patch_177">
    <path d="M 357.701526 307.584 
L 359.332956 307.584 
L 359.332956 126.764308 
L 357.701526 126.764308 
z
" clip-path="url(#p946a5f0f30)" style="fill: #1f77b4"/>
   </g>
   <g id="patch_178">
    <path d="M 359.332956 307.584 
L 360.964386 307.584 
L 360.964386 120.428308 
L 359.332956 120.428308 
z
" clip-path="url(#p946a5f0f30)" style="fill: #1f77b4"/>
   </g>
   <g id="patch_179">
    <path d="M 360.964386 307.584 
L 362.595815 307.584 
L 362.595815 125.058462 
L 360.964386 125.058462 
z
" clip-path="url(#p946a5f0f30)" style="fill: #1f77b4"/>
   </g>
   <g id="patch_180">
    <path d="M 362.595815 307.584 
L 364.227245 307.584 
L 364.227245 117.747692 
L 362.595815 117.747692 
z
" clip-path="url(#p946a5f0f30)" style="fill: #1f77b4"/>
   </g>
   <g id="patch_181">
    <path d="M 364.227245 307.584 
L 365.858675 307.584 
L 365.858675 115.798154 
L 364.227245 115.798154 
z
" clip-path="url(#p946a5f0f30)" style="fill: #1f77b4"/>
   </g>
   <g id="patch_182">
    <path d="M 365.858675 307.584 
L 367.490105 307.584 
L 367.490105 115.554462 
L 365.858675 115.554462 
z
" clip-path="url(#p946a5f0f30)" style="fill: #1f77b4"/>
   </g>
   <g id="patch_183">
    <path d="M 367.490105 307.584 
L 369.121535 307.584 
L 369.121535 123.352615 
L 367.490105 123.352615 
z
" clip-path="url(#p946a5f0f30)" style="fill: #1f77b4"/>
   </g>
   <g id="patch_184">
    <path d="M 369.121535 307.584 
L 370.752965 307.584 
L 370.752965 103.126154 
L 369.121535 103.126154 
z
" clip-path="url(#p946a5f0f30)" style="fill: #1f77b4"/>
   </g>
   <g id="patch_185">
    <path d="M 370.752965 307.584 
L 372.384395 307.584 
L 372.384395 110.680615 
L 370.752965 110.680615 
z
" clip-path="url(#p946a5f0f30)" style="fill: #1f77b4"/>
   </g>
   <g id="patch_186">
    <path d="M 372.384395 307.584 
L 374.015825 307.584 
L 374.015825 115.798154 
L 372.384395 115.798154 
z
" clip-path="url(#p946a5f0f30)" style="fill: #1f77b4"/>
   </g>
   <g id="patch_187">
    <path d="M 374.015825 307.584 
L 375.647254 307.584 
L 375.647254 92.16 
L 374.015825 92.16 
z
" clip-path="url(#p946a5f0f30)" style="fill: #1f77b4"/>
   </g>
   <g id="patch_188">
    <path d="M 375.647254 307.584 
L 377.278684 307.584 
L 377.278684 104.832 
L 375.647254 104.832 
z
" clip-path="url(#p946a5f0f30)" style="fill: #1f77b4"/>
   </g>
   <g id="patch_189">
    <path d="M 377.278684 307.584 
L 378.910114 307.584 
L 378.910114 87.773538 
L 377.278684 87.773538 
z
" clip-path="url(#p946a5f0f30)" style="fill: #1f77b4"/>
   </g>
   <g id="patch_190">
    <path d="M 378.910114 307.584 
L 380.541544 307.584 
L 380.541544 98.739692 
L 378.910114 98.739692 
z
" clip-path="url(#p946a5f0f30)" style="fill: #1f77b4"/>
   </g>
   <g id="patch_191">
    <path d="M 380.541544 307.584 
L 382.172974 307.584 
L 382.172974 87.286154 
L 380.541544 87.286154 
z
" clip-path="url(#p946a5f0f30)" style="fill: #1f77b4"/>
   </g>
   <g id="patch_192">
    <path d="M 382.172974 307.584 
L 383.804404 307.584 
L 383.804404 87.286154 
L 382.172974 87.286154 
z
" clip-path="url(#p946a5f0f30)" style="fill: #1f77b4"/>
   </g>
   <g id="patch_193">
    <path d="M 383.804404 307.584 
L 385.435834 307.584 
L 385.435834 93.134769 
L 383.804404 93.134769 
z
" clip-path="url(#p946a5f0f30)" style="fill: #1f77b4"/>
   </g>
   <g id="patch_194">
    <path d="M 385.435834 307.584 
L 387.067264 307.584 
L 387.067264 89.723077 
L 385.435834 89.723077 
z
" clip-path="url(#p946a5f0f30)" style="fill: #1f77b4"/>
   </g>
   <g id="patch_195">
    <path d="M 387.067264 307.584 
L 388.698693 307.584 
L 388.698693 79.244308 
L 387.067264 79.244308 
z
" clip-path="url(#p946a5f0f30)" style="fill: #1f77b4"/>
   </g>
   <g id="patch_196">
    <path d="M 388.698693 307.584 
L 390.330123 307.584 
L 390.330123 73.395692 
L 388.698693 73.395692 
z
" clip-path="url(#p946a5f0f30)" style="fill: #1f77b4"/>
   </g>
   <g id="patch_197">
    <path d="M 390.330123 307.584 
L 391.961553 307.584 
L 391.961553 78.269538 
L 390.330123 78.269538 
z
" clip-path="url(#p946a5f0f30)" style="fill: #1f77b4"/>
   </g>
   <g id="patch_198">
    <path d="M 391.961553 307.584 
L 393.592983 307.584 
L 393.592983 80.950154 
L 391.961553 80.950154 
z
" clip-path="url(#p946a5f0f30)" style="fill: #1f77b4"/>
   </g>
   <g id="patch_199">
    <path d="M 393.592983 307.584 
L 395.224413 307.584 
L 395.224413 65.110154 
L 393.592983 65.110154 
z
" clip-path="url(#p946a5f0f30)" style="fill: #1f77b4"/>
   </g>
   <g id="patch_200">
    <path d="M 395.224413 307.584 
L 396.855843 307.584 
L 396.855843 74.370462 
L 395.224413 74.370462 
z
" clip-path="url(#p946a5f0f30)" style="fill: #1f77b4"/>
   </g>
   <g id="patch_201">
    <path d="M 396.855843 307.584 
L 398.487273 307.584 
L 398.487273 54.144 
L 396.855843 54.144 
z
" clip-path="url(#p946a5f0f30)" style="fill: #1f77b4"/>
   </g>
   <g id="matplotlib.axis_1">
    <g id="xtick_1">
     <g id="line2d_1">
      <defs>
       <path id="m7ff343cb71" d="M 0 0 
L 0 3.5 
" style="stroke: #000000; stroke-width: 0.8"/>
      </defs>
      <g>
       <use xlink:href="#m7ff343cb71" x="73.832727" y="307.584" style="stroke: #000000; stroke-width: 0.8"/>
      </g>
     </g>
     <g id="text_1">
      <!-- −1.00 -->
      <g transform="translate(58.510071 322.182437)scale(0.1 -0.1)">
       <defs>
        <path id="DejaVuSans-2212" d="M 678 2272 
L 4684 2272 
L 4684 1741 
L 678 1741 
L 678 2272 
z
" transform="scale(0.015625)"/>
        <path id="DejaVuSans-31" d="M 794 531 
L 1825 531 
L 1825 4091 
L 703 3866 
L 703 4441 
L 1819 4666 
L 2450 4666 
L 2450 531 
L 3481 531 
L 3481 0 
L 794 0 
L 794 531 
z
" transform="scale(0.015625)"/>
        <path id="DejaVuSans-2e" d="M 684 794 
L 1344 794 
L 1344 0 
L 684 0 
L 684 794 
z
" transform="scale(0.015625)"/>
        <path id="DejaVuSans-30" d="M 2034 4250 
Q 1547 4250 1301 3770 
Q 1056 3291 1056 2328 
Q 1056 1369 1301 889 
Q 1547 409 2034 409 
Q 2525 409 2770 889 
Q 3016 1369 3016 2328 
Q 3016 3291 2770 3770 
Q 2525 4250 2034 4250 
z
M 2034 4750 
Q 2819 4750 3233 4129 
Q 3647 3509 3647 2328 
Q 3647 1150 3233 529 
Q 2819 -91 2034 -91 
Q 1250 -91 836 529 
Q 422 1150 422 2328 
Q 422 3509 836 4129 
Q 1250 4750 2034 4750 
z
" transform="scale(0.015625)"/>
       </defs>
       <use xlink:href="#DejaVuSans-2212"/>
       <use xlink:href="#DejaVuSans-31" x="83.789062"/>
       <use xlink:href="#DejaVuSans-2e" x="147.412109"/>
       <use xlink:href="#DejaVuSans-30" x="179.199219"/>
       <use xlink:href="#DejaVuSans-30" x="242.822266"/>
      </g>
     </g>
    </g>
    <g id="xtick_2">
     <g id="line2d_2">
      <g>
       <use xlink:href="#m7ff343cb71" x="114.618474" y="307.584" style="stroke: #000000; stroke-width: 0.8"/>
      </g>
     </g>
     <g id="text_2">
      <!-- −0.75 -->
      <g transform="translate(99.295818 322.182437)scale(0.1 -0.1)">
       <defs>
        <path id="DejaVuSans-37" d="M 525 4666 
L 3525 4666 
L 3525 4397 
L 1831 0 
L 1172 0 
L 2766 4134 
L 525 4134 
L 525 4666 
z
" transform="scale(0.015625)"/>
        <path id="DejaVuSans-35" d="M 691 4666 
L 3169 4666 
L 3169 4134 
L 1269 4134 
L 1269 2991 
Q 1406 3038 1543 3061 
Q 1681 3084 1819 3084 
Q 2600 3084 3056 2656 
Q 3513 2228 3513 1497 
Q 3513 744 3044 326 
Q 2575 -91 1722 -91 
Q 1428 -91 1123 -41 
Q 819 9 494 109 
L 494 744 
Q 775 591 1075 516 
Q 1375 441 1709 441 
Q 2250 441 2565 725 
Q 2881 1009 2881 1497 
Q 2881 1984 2565 2268 
Q 2250 2553 1709 2553 
Q 1456 2553 1204 2497 
Q 953 2441 691 2322 
L 691 4666 
z
" transform="scale(0.015625)"/>
       </defs>
       <use xlink:href="#DejaVuSans-2212"/>
       <use xlink:href="#DejaVuSans-30" x="83.789062"/>
       <use xlink:href="#DejaVuSans-2e" x="147.412109"/>
       <use xlink:href="#DejaVuSans-37" x="179.199219"/>
       <use xlink:href="#DejaVuSans-35" x="242.822266"/>
      </g>
     </g>
    </g>
    <g id="xtick_3">
     <g id="line2d_3">
      <g>
       <use xlink:href="#m7ff343cb71" x="155.404221" y="307.584" style="stroke: #000000; stroke-width: 0.8"/>
      </g>
     </g>
     <g id="text_3">
      <!-- −0.50 -->
      <g transform="translate(140.081565 322.182437)scale(0.1 -0.1)">
       <use xlink:href="#DejaVuSans-2212"/>
       <use xlink:href="#DejaVuSans-30" x="83.789062"/>
       <use xlink:href="#DejaVuSans-2e" x="147.412109"/>
       <use xlink:href="#DejaVuSans-35" x="179.199219"/>
       <use xlink:href="#DejaVuSans-30" x="242.822266"/>
      </g>
     </g>
    </g>
    <g id="xtick_4">
     <g id="line2d_4">
      <g>
       <use xlink:href="#m7ff343cb71" x="196.189968" y="307.584" style="stroke: #000000; stroke-width: 0.8"/>
      </g>
     </g>
     <g id="text_4">
      <!-- −0.25 -->
      <g transform="translate(180.867312 322.182437)scale(0.1 -0.1)">
       <defs>
        <path id="DejaVuSans-32" d="M 1228 531 
L 3431 531 
L 3431 0 
L 469 0 
L 469 531 
Q 828 903 1448 1529 
Q 2069 2156 2228 2338 
Q 2531 2678 2651 2914 
Q 2772 3150 2772 3378 
Q 2772 3750 2511 3984 
Q 2250 4219 1831 4219 
Q 1534 4219 1204 4116 
Q 875 4013 500 3803 
L 500 4441 
Q 881 4594 1212 4672 
Q 1544 4750 1819 4750 
Q 2544 4750 2975 4387 
Q 3406 4025 3406 3419 
Q 3406 3131 3298 2873 
Q 3191 2616 2906 2266 
Q 2828 2175 2409 1742 
Q 1991 1309 1228 531 
z
" transform="scale(0.015625)"/>
       </defs>
       <use xlink:href="#DejaVuSans-2212"/>
       <use xlink:href="#DejaVuSans-30" x="83.789062"/>
       <use xlink:href="#DejaVuSans-2e" x="147.412109"/>
       <use xlink:href="#DejaVuSans-32" x="179.199219"/>
       <use xlink:href="#DejaVuSans-35" x="242.822266"/>
      </g>
     </g>
    </g>
    <g id="xtick_5">
     <g id="line2d_5">
      <g>
       <use xlink:href="#m7ff343cb71" x="236.975715" y="307.584" style="stroke: #000000; stroke-width: 0.8"/>
      </g>
     </g>
     <g id="text_5">
      <!-- 0.00 -->
      <g transform="translate(225.842902 322.182437)scale(0.1 -0.1)">
       <use xlink:href="#DejaVuSans-30"/>
       <use xlink:href="#DejaVuSans-2e" x="63.623047"/>
       <use xlink:href="#DejaVuSans-30" x="95.410156"/>
       <use xlink:href="#DejaVuSans-30" x="159.033203"/>
      </g>
     </g>
    </g>
    <g id="xtick_6">
     <g id="line2d_6">
      <g>
       <use xlink:href="#m7ff343cb71" x="277.761462" y="307.584" style="stroke: #000000; stroke-width: 0.8"/>
      </g>
     </g>
     <g id="text_6">
      <!-- 0.25 -->
      <g transform="translate(266.628649 322.182437)scale(0.1 -0.1)">
       <use xlink:href="#DejaVuSans-30"/>
       <use xlink:href="#DejaVuSans-2e" x="63.623047"/>
       <use xlink:href="#DejaVuSans-32" x="95.410156"/>
       <use xlink:href="#DejaVuSans-35" x="159.033203"/>
      </g>
     </g>
    </g>
    <g id="xtick_7">
     <g id="line2d_7">
      <g>
       <use xlink:href="#m7ff343cb71" x="318.547209" y="307.584" style="stroke: #000000; stroke-width: 0.8"/>
      </g>
     </g>
     <g id="text_7">
      <!-- 0.50 -->
      <g transform="translate(307.414396 322.182437)scale(0.1 -0.1)">
       <use xlink:href="#DejaVuSans-30"/>
       <use xlink:href="#DejaVuSans-2e" x="63.623047"/>
       <use xlink:href="#DejaVuSans-35" x="95.410156"/>
       <use xlink:href="#DejaVuSans-30" x="159.033203"/>
      </g>
     </g>
    </g>
    <g id="xtick_8">
     <g id="line2d_8">
      <g>
       <use xlink:href="#m7ff343cb71" x="359.332956" y="307.584" style="stroke: #000000; stroke-width: 0.8"/>
      </g>
     </g>
     <g id="text_8">
      <!-- 0.75 -->
      <g transform="translate(348.200143 322.182437)scale(0.1 -0.1)">
       <use xlink:href="#DejaVuSans-30"/>
       <use xlink:href="#DejaVuSans-2e" x="63.623047"/>
       <use xlink:href="#DejaVuSans-37" x="95.410156"/>
       <use xlink:href="#DejaVuSans-35" x="159.033203"/>
      </g>
     </g>
    </g>
    <g id="xtick_9">
     <g id="line2d_9">
      <g>
       <use xlink:href="#m7ff343cb71" x="400.118703" y="307.584" style="stroke: #000000; stroke-width: 0.8"/>
      </g>
     </g>
     <g id="text_9">
      <!-- 1.00 -->
      <g transform="translate(388.98589 322.182437)scale(0.1 -0.1)">
       <use xlink:href="#DejaVuSans-31"/>
       <use xlink:href="#DejaVuSans-2e" x="63.623047"/>
       <use xlink:href="#DejaVuSans-30" x="95.410156"/>
       <use xlink:href="#DejaVuSans-30" x="159.033203"/>
      </g>
     </g>
    </g>
    <g id="text_10">
     <!-- Value of k -->
     <g transform="translate(211.535781 335.860562)scale(0.1 -0.1)">
      <defs>
       <path id="DejaVuSans-56" d="M 1831 0 
L 50 4666 
L 709 4666 
L 2188 738 
L 3669 4666 
L 4325 4666 
L 2547 0 
L 1831 0 
z
" transform="scale(0.015625)"/>
       <path id="DejaVuSans-61" d="M 2194 1759 
Q 1497 1759 1228 1600 
Q 959 1441 959 1056 
Q 959 750 1161 570 
Q 1363 391 1709 391 
Q 2188 391 2477 730 
Q 2766 1069 2766 1631 
L 2766 1759 
L 2194 1759 
z
M 3341 1997 
L 3341 0 
L 2766 0 
L 2766 531 
Q 2569 213 2275 61 
Q 1981 -91 1556 -91 
Q 1019 -91 701 211 
Q 384 513 384 1019 
Q 384 1609 779 1909 
Q 1175 2209 1959 2209 
L 2766 2209 
L 2766 2266 
Q 2766 2663 2505 2880 
Q 2244 3097 1772 3097 
Q 1472 3097 1187 3025 
Q 903 2953 641 2809 
L 641 3341 
Q 956 3463 1253 3523 
Q 1550 3584 1831 3584 
Q 2591 3584 2966 3190 
Q 3341 2797 3341 1997 
z
" transform="scale(0.015625)"/>
       <path id="DejaVuSans-6c" d="M 603 4863 
L 1178 4863 
L 1178 0 
L 603 0 
L 603 4863 
z
" transform="scale(0.015625)"/>
       <path id="DejaVuSans-75" d="M 544 1381 
L 544 3500 
L 1119 3500 
L 1119 1403 
Q 1119 906 1312 657 
Q 1506 409 1894 409 
Q 2359 409 2629 706 
Q 2900 1003 2900 1516 
L 2900 3500 
L 3475 3500 
L 3475 0 
L 2900 0 
L 2900 538 
Q 2691 219 2414 64 
Q 2138 -91 1772 -91 
Q 1169 -91 856 284 
Q 544 659 544 1381 
z
M 1991 3584 
L 1991 3584 
z
" transform="scale(0.015625)"/>
       <path id="DejaVuSans-65" d="M 3597 1894 
L 3597 1613 
L 953 1613 
Q 991 1019 1311 708 
Q 1631 397 2203 397 
Q 2534 397 2845 478 
Q 3156 559 3463 722 
L 3463 178 
Q 3153 47 2828 -22 
Q 2503 -91 2169 -91 
Q 1331 -91 842 396 
Q 353 884 353 1716 
Q 353 2575 817 3079 
Q 1281 3584 2069 3584 
Q 2775 3584 3186 3129 
Q 3597 2675 3597 1894 
z
M 3022 2063 
Q 3016 2534 2758 2815 
Q 2500 3097 2075 3097 
Q 1594 3097 1305 2825 
Q 1016 2553 972 2059 
L 3022 2063 
z
" transform="scale(0.015625)"/>
       <path id="DejaVuSans-20" transform="scale(0.015625)"/>
       <path id="DejaVuSans-6f" d="M 1959 3097 
Q 1497 3097 1228 2736 
Q 959 2375 959 1747 
Q 959 1119 1226 758 
Q 1494 397 1959 397 
Q 2419 397 2687 759 
Q 2956 1122 2956 1747 
Q 2956 2369 2687 2733 
Q 2419 3097 1959 3097 
z
M 1959 3584 
Q 2709 3584 3137 3096 
Q 3566 2609 3566 1747 
Q 3566 888 3137 398 
Q 2709 -91 1959 -91 
Q 1206 -91 779 398 
Q 353 888 353 1747 
Q 353 2609 779 3096 
Q 1206 3584 1959 3584 
z
" transform="scale(0.015625)"/>
       <path id="DejaVuSans-66" d="M 2375 4863 
L 2375 4384 
L 1825 4384 
Q 1516 4384 1395 4259 
Q 1275 4134 1275 3809 
L 1275 3500 
L 2222 3500 
L 2222 3053 
L 1275 3053 
L 1275 0 
L 697 0 
L 697 3053 
L 147 3053 
L 147 3500 
L 697 3500 
L 697 3744 
Q 697 4328 969 4595 
Q 1241 4863 1831 4863 
L 2375 4863 
z
" transform="scale(0.015625)"/>
       <path id="DejaVuSans-6b" d="M 581 4863 
L 1159 4863 
L 1159 1991 
L 2875 3500 
L 3609 3500 
L 1753 1863 
L 3688 0 
L 2938 0 
L 1159 1709 
L 1159 0 
L 581 0 
L 581 4863 
z
" transform="scale(0.015625)"/>
      </defs>
      <use xlink:href="#DejaVuSans-56"/>
      <use xlink:href="#DejaVuSans-61" x="60.658203"/>
      <use xlink:href="#DejaVuSans-6c" x="121.9375"/>
      <use xlink:href="#DejaVuSans-75" x="149.720703"/>
      <use xlink:href="#DejaVuSans-65" x="213.099609"/>
      <use xlink:href="#DejaVuSans-20" x="274.623047"/>
      <use xlink:href="#DejaVuSans-6f" x="306.410156"/>
      <use xlink:href="#DejaVuSans-66" x="367.591797"/>
      <use xlink:href="#DejaVuSans-20" x="402.796875"/>
      <use xlink:href="#DejaVuSans-6b" x="434.583984"/>
     </g>
    </g>
   </g>
   <g id="matplotlib.axis_2">
    <g id="ytick_1">
     <g id="line2d_10">
      <defs>
       <path id="meb4fd6e8f6" d="M 0 0 
L -3.5 0 
" style="stroke: #000000; stroke-width: 0.8"/>
      </defs>
      <g>
       <use xlink:href="#meb4fd6e8f6" x="57.6" y="307.584" style="stroke: #000000; stroke-width: 0.8"/>
      </g>
     </g>
     <g id="text_11">
      <!-- 0 -->
      <g transform="translate(44.2375 311.383219)scale(0.1 -0.1)">
       <use xlink:href="#DejaVuSans-30"/>
      </g>
     </g>
    </g>
    <g id="ytick_2">
     <g id="line2d_11">
      <g>
       <use xlink:href="#meb4fd6e8f6" x="57.6" y="258.845538" style="stroke: #000000; stroke-width: 0.8"/>
      </g>
     </g>
     <g id="text_12">
      <!-- 200 -->
      <g transform="translate(31.5125 262.644757)scale(0.1 -0.1)">
       <use xlink:href="#DejaVuSans-32"/>
       <use xlink:href="#DejaVuSans-30" x="63.623047"/>
       <use xlink:href="#DejaVuSans-30" x="127.246094"/>
      </g>
     </g>
    </g>
    <g id="ytick_3">
     <g id="line2d_12">
      <g>
       <use xlink:href="#meb4fd6e8f6" x="57.6" y="210.107077" style="stroke: #000000; stroke-width: 0.8"/>
      </g>
     </g>
     <g id="text_13">
      <!-- 400 -->
      <g transform="translate(31.5125 213.906296)scale(0.1 -0.1)">
       <defs>
        <path id="DejaVuSans-34" d="M 2419 4116 
L 825 1625 
L 2419 1625 
L 2419 4116 
z
M 2253 4666 
L 3047 4666 
L 3047 1625 
L 3713 1625 
L 3713 1100 
L 3047 1100 
L 3047 0 
L 2419 0 
L 2419 1100 
L 313 1100 
L 313 1709 
L 2253 4666 
z
" transform="scale(0.015625)"/>
       </defs>
       <use xlink:href="#DejaVuSans-34"/>
       <use xlink:href="#DejaVuSans-30" x="63.623047"/>
       <use xlink:href="#DejaVuSans-30" x="127.246094"/>
      </g>
     </g>
    </g>
    <g id="ytick_4">
     <g id="line2d_13">
      <g>
       <use xlink:href="#meb4fd6e8f6" x="57.6" y="161.368615" style="stroke: #000000; stroke-width: 0.8"/>
      </g>
     </g>
     <g id="text_14">
      <!-- 600 -->
      <g transform="translate(31.5125 165.167834)scale(0.1 -0.1)">
       <defs>
        <path id="DejaVuSans-36" d="M 2113 2584 
Q 1688 2584 1439 2293 
Q 1191 2003 1191 1497 
Q 1191 994 1439 701 
Q 1688 409 2113 409 
Q 2538 409 2786 701 
Q 3034 994 3034 1497 
Q 3034 2003 2786 2293 
Q 2538 2584 2113 2584 
z
M 3366 4563 
L 3366 3988 
Q 3128 4100 2886 4159 
Q 2644 4219 2406 4219 
Q 1781 4219 1451 3797 
Q 1122 3375 1075 2522 
Q 1259 2794 1537 2939 
Q 1816 3084 2150 3084 
Q 2853 3084 3261 2657 
Q 3669 2231 3669 1497 
Q 3669 778 3244 343 
Q 2819 -91 2113 -91 
Q 1303 -91 875 529 
Q 447 1150 447 2328 
Q 447 3434 972 4092 
Q 1497 4750 2381 4750 
Q 2619 4750 2861 4703 
Q 3103 4656 3366 4563 
z
" transform="scale(0.015625)"/>
       </defs>
       <use xlink:href="#DejaVuSans-36"/>
       <use xlink:href="#DejaVuSans-30" x="63.623047"/>
       <use xlink:href="#DejaVuSans-30" x="127.246094"/>
      </g>
     </g>
    </g>
    <g id="ytick_5">
     <g id="line2d_14">
      <g>
       <use xlink:href="#meb4fd6e8f6" x="57.6" y="112.630154" style="stroke: #000000; stroke-width: 0.8"/>
      </g>
     </g>
     <g id="text_15">
      <!-- 800 -->
      <g transform="translate(31.5125 116.429373)scale(0.1 -0.1)">
       <defs>
        <path id="DejaVuSans-38" d="M 2034 2216 
Q 1584 2216 1326 1975 
Q 1069 1734 1069 1313 
Q 1069 891 1326 650 
Q 1584 409 2034 409 
Q 2484 409 2743 651 
Q 3003 894 3003 1313 
Q 3003 1734 2745 1975 
Q 2488 2216 2034 2216 
z
M 1403 2484 
Q 997 2584 770 2862 
Q 544 3141 544 3541 
Q 544 4100 942 4425 
Q 1341 4750 2034 4750 
Q 2731 4750 3128 4425 
Q 3525 4100 3525 3541 
Q 3525 3141 3298 2862 
Q 3072 2584 2669 2484 
Q 3125 2378 3379 2068 
Q 3634 1759 3634 1313 
Q 3634 634 3220 271 
Q 2806 -91 2034 -91 
Q 1263 -91 848 271 
Q 434 634 434 1313 
Q 434 1759 690 2068 
Q 947 2378 1403 2484 
z
M 1172 3481 
Q 1172 3119 1398 2916 
Q 1625 2713 2034 2713 
Q 2441 2713 2670 2916 
Q 2900 3119 2900 3481 
Q 2900 3844 2670 4047 
Q 2441 4250 2034 4250 
Q 1625 4250 1398 4047 
Q 1172 3844 1172 3481 
z
" transform="scale(0.015625)"/>
       </defs>
       <use xlink:href="#DejaVuSans-38"/>
       <use xlink:href="#DejaVuSans-30" x="63.623047"/>
       <use xlink:href="#DejaVuSans-30" x="127.246094"/>
      </g>
     </g>
    </g>
    <g id="ytick_6">
     <g id="line2d_15">
      <g>
       <use xlink:href="#meb4fd6e8f6" x="57.6" y="63.891692" style="stroke: #000000; stroke-width: 0.8"/>
      </g>
     </g>
     <g id="text_16">
      <!-- 1000 -->
      <g transform="translate(25.15 67.690911)scale(0.1 -0.1)">
       <use xlink:href="#DejaVuSans-31"/>
       <use xlink:href="#DejaVuSans-30" x="63.623047"/>
       <use xlink:href="#DejaVuSans-30" x="127.246094"/>
       <use xlink:href="#DejaVuSans-30" x="190.869141"/>
      </g>
     </g>
    </g>
    <g id="text_17">
     <!-- Frequency -->
     <g transform="translate(19.070312 200.357687)rotate(-90)scale(0.1 -0.1)">
      <defs>
       <path id="DejaVuSans-46" d="M 628 4666 
L 3309 4666 
L 3309 4134 
L 1259 4134 
L 1259 2759 
L 3109 2759 
L 3109 2228 
L 1259 2228 
L 1259 0 
L 628 0 
L 628 4666 
z
" transform="scale(0.015625)"/>
       <path id="DejaVuSans-72" d="M 2631 2963 
Q 2534 3019 2420 3045 
Q 2306 3072 2169 3072 
Q 1681 3072 1420 2755 
Q 1159 2438 1159 1844 
L 1159 0 
L 581 0 
L 581 3500 
L 1159 3500 
L 1159 2956 
Q 1341 3275 1631 3429 
Q 1922 3584 2338 3584 
Q 2397 3584 2469 3576 
Q 2541 3569 2628 3553 
L 2631 2963 
z
" transform="scale(0.015625)"/>
       <path id="DejaVuSans-71" d="M 947 1747 
Q 947 1113 1208 752 
Q 1469 391 1925 391 
Q 2381 391 2643 752 
Q 2906 1113 2906 1747 
Q 2906 2381 2643 2742 
Q 2381 3103 1925 3103 
Q 1469 3103 1208 2742 
Q 947 2381 947 1747 
z
M 2906 525 
Q 2725 213 2448 61 
Q 2172 -91 1784 -91 
Q 1150 -91 751 415 
Q 353 922 353 1747 
Q 353 2572 751 3078 
Q 1150 3584 1784 3584 
Q 2172 3584 2448 3432 
Q 2725 3281 2906 2969 
L 2906 3500 
L 3481 3500 
L 3481 -1331 
L 2906 -1331 
L 2906 525 
z
" transform="scale(0.015625)"/>
       <path id="DejaVuSans-6e" d="M 3513 2113 
L 3513 0 
L 2938 0 
L 2938 2094 
Q 2938 2591 2744 2837 
Q 2550 3084 2163 3084 
Q 1697 3084 1428 2787 
Q 1159 2491 1159 1978 
L 1159 0 
L 581 0 
L 581 3500 
L 1159 3500 
L 1159 2956 
Q 1366 3272 1645 3428 
Q 1925 3584 2291 3584 
Q 2894 3584 3203 3211 
Q 3513 2838 3513 2113 
z
" transform="scale(0.015625)"/>
       <path id="DejaVuSans-63" d="M 3122 3366 
L 3122 2828 
Q 2878 2963 2633 3030 
Q 2388 3097 2138 3097 
Q 1578 3097 1268 2742 
Q 959 2388 959 1747 
Q 959 1106 1268 751 
Q 1578 397 2138 397 
Q 2388 397 2633 464 
Q 2878 531 3122 666 
L 3122 134 
Q 2881 22 2623 -34 
Q 2366 -91 2075 -91 
Q 1284 -91 818 406 
Q 353 903 353 1747 
Q 353 2603 823 3093 
Q 1294 3584 2113 3584 
Q 2378 3584 2631 3529 
Q 2884 3475 3122 3366 
z
" transform="scale(0.015625)"/>
       <path id="DejaVuSans-79" d="M 2059 -325 
Q 1816 -950 1584 -1140 
Q 1353 -1331 966 -1331 
L 506 -1331 
L 506 -850 
L 844 -850 
Q 1081 -850 1212 -737 
Q 1344 -625 1503 -206 
L 1606 56 
L 191 3500 
L 800 3500 
L 1894 763 
L 2988 3500 
L 3597 3500 
L 2059 -325 
z
" transform="scale(0.015625)"/>
      </defs>
      <use xlink:href="#DejaVuSans-46"/>
      <use xlink:href="#DejaVuSans-72" x="50.269531"/>
      <use xlink:href="#DejaVuSans-65" x="89.132812"/>
      <use xlink:href="#DejaVuSans-71" x="150.65625"/>
      <use xlink:href="#DejaVuSans-75" x="214.132812"/>
      <use xlink:href="#DejaVuSans-65" x="277.511719"/>
      <use xlink:href="#DejaVuSans-6e" x="339.035156"/>
      <use xlink:href="#DejaVuSans-63" x="402.414062"/>
      <use xlink:href="#DejaVuSans-79" x="457.394531"/>
     </g>
    </g>
   </g>
   <g id="patch_202">
    <path d="M 57.6 307.584 
L 57.6 41.472 
" style="fill: none; stroke: #000000; stroke-width: 0.8; stroke-linejoin: miter; stroke-linecap: square"/>
   </g>
   <g id="patch_203">
    <path d="M 414.72 307.584 
L 414.72 41.472 
" style="fill: none; stroke: #000000; stroke-width: 0.8; stroke-linejoin: miter; stroke-linecap: square"/>
   </g>
   <g id="patch_204">
    <path d="M 57.6 307.584 
L 414.72 307.584 
" style="fill: none; stroke: #000000; stroke-width: 0.8; stroke-linejoin: miter; stroke-linecap: square"/>
   </g>
   <g id="patch_205">
    <path d="M 57.6 41.472 
L 414.72 41.472 
" style="fill: none; stroke: #000000; stroke-width: 0.8; stroke-linejoin: miter; stroke-linecap: square"/>
   </g>
   <g id="text_18">
    <!-- Frequency histogram plot -->
    <g transform="translate(159.435937 35.472)scale(0.12 -0.12)">
     <defs>
      <path id="DejaVuSans-68" d="M 3513 2113 
L 3513 0 
L 2938 0 
L 2938 2094 
Q 2938 2591 2744 2837 
Q 2550 3084 2163 3084 
Q 1697 3084 1428 2787 
Q 1159 2491 1159 1978 
L 1159 0 
L 581 0 
L 581 4863 
L 1159 4863 
L 1159 2956 
Q 1366 3272 1645 3428 
Q 1925 3584 2291 3584 
Q 2894 3584 3203 3211 
Q 3513 2838 3513 2113 
z
" transform="scale(0.015625)"/>
      <path id="DejaVuSans-69" d="M 603 3500 
L 1178 3500 
L 1178 0 
L 603 0 
L 603 3500 
z
M 603 4863 
L 1178 4863 
L 1178 4134 
L 603 4134 
L 603 4863 
z
" transform="scale(0.015625)"/>
      <path id="DejaVuSans-73" d="M 2834 3397 
L 2834 2853 
Q 2591 2978 2328 3040 
Q 2066 3103 1784 3103 
Q 1356 3103 1142 2972 
Q 928 2841 928 2578 
Q 928 2378 1081 2264 
Q 1234 2150 1697 2047 
L 1894 2003 
Q 2506 1872 2764 1633 
Q 3022 1394 3022 966 
Q 3022 478 2636 193 
Q 2250 -91 1575 -91 
Q 1294 -91 989 -36 
Q 684 19 347 128 
L 347 722 
Q 666 556 975 473 
Q 1284 391 1588 391 
Q 1994 391 2212 530 
Q 2431 669 2431 922 
Q 2431 1156 2273 1281 
Q 2116 1406 1581 1522 
L 1381 1569 
Q 847 1681 609 1914 
Q 372 2147 372 2553 
Q 372 3047 722 3315 
Q 1072 3584 1716 3584 
Q 2034 3584 2315 3537 
Q 2597 3491 2834 3397 
z
" transform="scale(0.015625)"/>
      <path id="DejaVuSans-74" d="M 1172 4494 
L 1172 3500 
L 2356 3500 
L 2356 3053 
L 1172 3053 
L 1172 1153 
Q 1172 725 1289 603 
Q 1406 481 1766 481 
L 2356 481 
L 2356 0 
L 1766 0 
Q 1100 0 847 248 
Q 594 497 594 1153 
L 594 3053 
L 172 3053 
L 172 3500 
L 594 3500 
L 594 4494 
L 1172 4494 
z
" transform="scale(0.015625)"/>
      <path id="DejaVuSans-67" d="M 2906 1791 
Q 2906 2416 2648 2759 
Q 2391 3103 1925 3103 
Q 1463 3103 1205 2759 
Q 947 2416 947 1791 
Q 947 1169 1205 825 
Q 1463 481 1925 481 
Q 2391 481 2648 825 
Q 2906 1169 2906 1791 
z
M 3481 434 
Q 3481 -459 3084 -895 
Q 2688 -1331 1869 -1331 
Q 1566 -1331 1297 -1286 
Q 1028 -1241 775 -1147 
L 775 -588 
Q 1028 -725 1275 -790 
Q 1522 -856 1778 -856 
Q 2344 -856 2625 -561 
Q 2906 -266 2906 331 
L 2906 616 
Q 2728 306 2450 153 
Q 2172 0 1784 0 
Q 1141 0 747 490 
Q 353 981 353 1791 
Q 353 2603 747 3093 
Q 1141 3584 1784 3584 
Q 2172 3584 2450 3431 
Q 2728 3278 2906 2969 
L 2906 3500 
L 3481 3500 
L 3481 434 
z
" transform="scale(0.015625)"/>
      <path id="DejaVuSans-6d" d="M 3328 2828 
Q 3544 3216 3844 3400 
Q 4144 3584 4550 3584 
Q 5097 3584 5394 3201 
Q 5691 2819 5691 2113 
L 5691 0 
L 5113 0 
L 5113 2094 
Q 5113 2597 4934 2840 
Q 4756 3084 4391 3084 
Q 3944 3084 3684 2787 
Q 3425 2491 3425 1978 
L 3425 0 
L 2847 0 
L 2847 2094 
Q 2847 2600 2669 2842 
Q 2491 3084 2119 3084 
Q 1678 3084 1418 2786 
Q 1159 2488 1159 1978 
L 1159 0 
L 581 0 
L 581 3500 
L 1159 3500 
L 1159 2956 
Q 1356 3278 1631 3431 
Q 1906 3584 2284 3584 
Q 2666 3584 2933 3390 
Q 3200 3197 3328 2828 
z
" transform="scale(0.015625)"/>
      <path id="DejaVuSans-70" d="M 1159 525 
L 1159 -1331 
L 581 -1331 
L 581 3500 
L 1159 3500 
L 1159 2969 
Q 1341 3281 1617 3432 
Q 1894 3584 2278 3584 
Q 2916 3584 3314 3078 
Q 3713 2572 3713 1747 
Q 3713 922 3314 415 
Q 2916 -91 2278 -91 
Q 1894 -91 1617 61 
Q 1341 213 1159 525 
z
M 3116 1747 
Q 3116 2381 2855 2742 
Q 2594 3103 2138 3103 
Q 1681 3103 1420 2742 
Q 1159 2381 1159 1747 
Q 1159 1113 1420 752 
Q 1681 391 2138 391 
Q 2594 391 2855 752 
Q 3116 1113 3116 1747 
z
" transform="scale(0.015625)"/>
     </defs>
     <use xlink:href="#DejaVuSans-46"/>
     <use xlink:href="#DejaVuSans-72" x="50.269531"/>
     <use xlink:href="#DejaVuSans-65" x="89.132812"/>
     <use xlink:href="#DejaVuSans-71" x="150.65625"/>
     <use xlink:href="#DejaVuSans-75" x="214.132812"/>
     <use xlink:href="#DejaVuSans-65" x="277.511719"/>
     <use xlink:href="#DejaVuSans-6e" x="339.035156"/>
     <use xlink:href="#DejaVuSans-63" x="402.414062"/>
     <use xlink:href="#DejaVuSans-79" x="457.394531"/>
     <use xlink:href="#DejaVuSans-20" x="516.574219"/>
     <use xlink:href="#DejaVuSans-68" x="548.361328"/>
     <use xlink:href="#DejaVuSans-69" x="611.740234"/>
     <use xlink:href="#DejaVuSans-73" x="639.523438"/>
     <use xlink:href="#DejaVuSans-74" x="691.623047"/>
     <use xlink:href="#DejaVuSans-6f" x="730.832031"/>
     <use xlink:href="#DejaVuSans-67" x="792.013672"/>
     <use xlink:href="#DejaVuSans-72" x="855.490234"/>
     <use xlink:href="#DejaVuSans-61" x="896.603516"/>
     <use xlink:href="#DejaVuSans-6d" x="957.882812"/>
     <use xlink:href="#DejaVuSans-20" x="1055.294922"/>
     <use xlink:href="#DejaVuSans-70" x="1087.082031"/>
     <use xlink:href="#DejaVuSans-6c" x="1150.558594"/>
     <use xlink:href="#DejaVuSans-6f" x="1178.341797"/>
     <use xlink:href="#DejaVuSans-74" x="1239.523438"/>
    </g>
   </g>
  </g>
 </g>
 <defs>
  <clipPath id="p946a5f0f30">
   <rect x="57.6" y="41.472" width="357.12" height="266.112"/>
  </clipPath>
 </defs>
</svg>
