<?xml version="1.0" encoding="utf-8" standalone="no"?>
<!DOCTYPE svg PUBLIC "-//W3C//DTD SVG 1.1//EN"
  "http://www.w3.org/Graphics/SVG/1.1/DTD/svg11.dtd">
<svg xmlns:xlink="http://www.w3.org/1999/xlink" width="460.8pt" height="345.6pt" viewBox="0 0 460.8 345.6" xmlns="http://www.w3.org/2000/svg" version="1.1">
 <metadata>
  <rdf:RDF xmlns:dc="http://purl.org/dc/elements/1.1/" xmlns:cc="http://creativecommons.org/ns#" xmlns:rdf="http://www.w3.org/1999/02/22-rdf-syntax-ns#">
   <cc:Work>
    <dc:type rdf:resource="http://purl.org/dc/dcmitype/StillImage"/>
    <dc:date>2022-08-22T12:07:42.264860</dc:date>
    <dc:format>image/svg+xml</dc:format>
    <dc:creator>
     <cc:Agent>
      <dc:title>Matplotlib v3.5.3, https://matplotlib.org/</dc:title>
     </cc:Agent>
    </dc:creator>
   </cc:Work>
  </rdf:RDF>
 </metadata>
 <defs>
  <style type="text/css">*{stroke-linejoin: round; stroke-linecap: butt}</style>
 </defs>
 <g id="figure_1">
  <g id="patch_1">
   <path d="M 0 345.6 
L 460.8 345.6 
L 460.8 0 
L 0 0 
z
" style="fill: #ffffff"/>
  </g>
  <g id="axes_1">
   <g id="patch_2">
    <path d="M 57.6 307.584 
L 414.72 307.584 
L 414.72 41.472 
L 57.6 41.472 
z
" style="fill: #ffffff"/>
   </g>
   <g id="patch_3">
    <path d="M 73.832727 307.584 
L 75.464157 307.584 
L 75.464157 307.584 
L 73.832727 307.584 
z
" clip-path="url(#p5e312ad9db)" style="fill: #1f77b4"/>
   </g>
   <g id="patch_4">
    <path d="M 75.464157 307.584 
L 77.095587 307.584 
L 77.095587 295.596973 
L 75.464157 295.596973 
z
" clip-path="url(#p5e312ad9db)" style="fill: #1f77b4"/>
   </g>
   <g id="patch_5">
    <path d="M 77.095587 307.584 
L 78.727017 307.584 
L 78.727017 293.884541 
L 77.095587 293.884541 
z
" clip-path="url(#p5e312ad9db)" style="fill: #1f77b4"/>
   </g>
   <g id="patch_6">
    <path d="M 78.727017 307.584 
L 80.358447 307.584 
L 80.358447 281.897514 
L 78.727017 281.897514 
z
" clip-path="url(#p5e312ad9db)" style="fill: #1f77b4"/>
   </g>
   <g id="patch_7">
    <path d="M 80.358447 307.584 
L 81.989877 307.584 
L 81.989877 273.335351 
L 80.358447 273.335351 
z
" clip-path="url(#p5e312ad9db)" style="fill: #1f77b4"/>
   </g>
   <g id="patch_8">
    <path d="M 81.989877 307.584 
L 83.621307 307.584 
L 83.621307 269.910486 
L 81.989877 269.910486 
z
" clip-path="url(#p5e312ad9db)" style="fill: #1f77b4"/>
   </g>
   <g id="patch_9">
    <path d="M 83.621307 307.584 
L 85.252736 307.584 
L 85.252736 269.910486 
L 83.621307 269.910486 
z
" clip-path="url(#p5e312ad9db)" style="fill: #1f77b4"/>
   </g>
   <g id="patch_10">
    <path d="M 85.252736 307.584 
L 86.884166 307.584 
L 86.884166 264.773189 
L 85.252736 264.773189 
z
" clip-path="url(#p5e312ad9db)" style="fill: #1f77b4"/>
   </g>
   <g id="patch_11">
    <path d="M 86.884166 307.584 
L 88.515596 307.584 
L 88.515596 268.198054 
L 86.884166 268.198054 
z
" clip-path="url(#p5e312ad9db)" style="fill: #1f77b4"/>
   </g>
   <g id="patch_12">
    <path d="M 88.515596 307.584 
L 90.147026 307.584 
L 90.147026 257.923459 
L 88.515596 257.923459 
z
" clip-path="url(#p5e312ad9db)" style="fill: #1f77b4"/>
   </g>
   <g id="patch_13">
    <path d="M 90.147026 307.584 
L 91.778456 307.584 
L 91.778456 237.37427 
L 90.147026 237.37427 
z
" clip-path="url(#p5e312ad9db)" style="fill: #1f77b4"/>
   </g>
   <g id="patch_14">
    <path d="M 91.778456 307.584 
L 93.409886 307.584 
L 93.409886 264.773189 
L 91.778456 264.773189 
z
" clip-path="url(#p5e312ad9db)" style="fill: #1f77b4"/>
   </g>
   <g id="patch_15">
    <path d="M 93.409886 307.584 
L 95.041316 307.584 
L 95.041316 256.211027 
L 93.409886 256.211027 
z
" clip-path="url(#p5e312ad9db)" style="fill: #1f77b4"/>
   </g>
   <g id="patch_16">
    <path d="M 95.041316 307.584 
L 96.672746 307.584 
L 96.672746 242.511568 
L 95.041316 242.511568 
z
" clip-path="url(#p5e312ad9db)" style="fill: #1f77b4"/>
   </g>
   <g id="patch_17">
    <path d="M 96.672746 307.584 
L 98.304175 307.584 
L 98.304175 225.387243 
L 96.672746 225.387243 
z
" clip-path="url(#p5e312ad9db)" style="fill: #1f77b4"/>
   </g>
   <g id="patch_18">
    <path d="M 98.304175 307.584 
L 99.935605 307.584 
L 99.935605 233.949405 
L 98.304175 233.949405 
z
" clip-path="url(#p5e312ad9db)" style="fill: #1f77b4"/>
   </g>
   <g id="patch_19">
    <path d="M 99.935605 307.584 
L 101.567035 307.584 
L 101.567035 254.498595 
L 99.935605 254.498595 
z
" clip-path="url(#p5e312ad9db)" style="fill: #1f77b4"/>
   </g>
   <g id="patch_20">
    <path d="M 101.567035 307.584 
L 103.198465 307.584 
L 103.198465 223.674811 
L 101.567035 223.674811 
z
" clip-path="url(#p5e312ad9db)" style="fill: #1f77b4"/>
   </g>
   <g id="patch_21">
    <path d="M 103.198465 307.584 
L 104.829895 307.584 
L 104.829895 218.537514 
L 103.198465 218.537514 
z
" clip-path="url(#p5e312ad9db)" style="fill: #1f77b4"/>
   </g>
   <g id="patch_22">
    <path d="M 104.829895 307.584 
L 106.461325 307.584 
L 106.461325 240.799135 
L 104.829895 240.799135 
z
" clip-path="url(#p5e312ad9db)" style="fill: #1f77b4"/>
   </g>
   <g id="patch_23">
    <path d="M 106.461325 307.584 
L 108.092755 307.584 
L 108.092755 225.387243 
L 106.461325 225.387243 
z
" clip-path="url(#p5e312ad9db)" style="fill: #1f77b4"/>
   </g>
   <g id="patch_24">
    <path d="M 108.092755 307.584 
L 109.724185 307.584 
L 109.724185 209.975351 
L 108.092755 209.975351 
z
" clip-path="url(#p5e312ad9db)" style="fill: #1f77b4"/>
   </g>
   <g id="patch_25">
    <path d="M 109.724185 307.584 
L 111.355614 307.584 
L 111.355614 233.949405 
L 109.724185 233.949405 
z
" clip-path="url(#p5e312ad9db)" style="fill: #1f77b4"/>
   </g>
   <g id="patch_26">
    <path d="M 111.355614 307.584 
L 112.987044 307.584 
L 112.987044 228.812108 
L 111.355614 228.812108 
z
" clip-path="url(#p5e312ad9db)" style="fill: #1f77b4"/>
   </g>
   <g id="patch_27">
    <path d="M 112.987044 307.584 
L 114.618474 307.584 
L 114.618474 197.988324 
L 112.987044 197.988324 
z
" clip-path="url(#p5e312ad9db)" style="fill: #1f77b4"/>
   </g>
   <g id="patch_28">
    <path d="M 114.618474 307.584 
L 116.249904 307.584 
L 116.249904 208.262919 
L 114.618474 208.262919 
z
" clip-path="url(#p5e312ad9db)" style="fill: #1f77b4"/>
   </g>
   <g id="patch_29">
    <path d="M 116.249904 307.584 
L 117.881334 307.584 
L 117.881334 208.262919 
L 116.249904 208.262919 
z
" clip-path="url(#p5e312ad9db)" style="fill: #1f77b4"/>
   </g>
   <g id="patch_30">
    <path d="M 117.881334 307.584 
L 119.512764 307.584 
L 119.512764 208.262919 
L 117.881334 208.262919 
z
" clip-path="url(#p5e312ad9db)" style="fill: #1f77b4"/>
   </g>
   <g id="patch_31">
    <path d="M 119.512764 307.584 
L 121.144194 307.584 
L 121.144194 191.138595 
L 119.512764 191.138595 
z
" clip-path="url(#p5e312ad9db)" style="fill: #1f77b4"/>
   </g>
   <g id="patch_32">
    <path d="M 121.144194 307.584 
L 122.775624 307.584 
L 122.775624 204.838054 
L 121.144194 204.838054 
z
" clip-path="url(#p5e312ad9db)" style="fill: #1f77b4"/>
   </g>
   <g id="patch_33">
    <path d="M 122.775624 307.584 
L 124.407053 307.584 
L 124.407053 203.125622 
L 122.775624 203.125622 
z
" clip-path="url(#p5e312ad9db)" style="fill: #1f77b4"/>
   </g>
   <g id="patch_34">
    <path d="M 124.407053 307.584 
L 126.038483 307.584 
L 126.038483 201.413189 
L 124.407053 201.413189 
z
" clip-path="url(#p5e312ad9db)" style="fill: #1f77b4"/>
   </g>
   <g id="patch_35">
    <path d="M 126.038483 307.584 
L 127.669913 307.584 
L 127.669913 215.112649 
L 126.038483 215.112649 
z
" clip-path="url(#p5e312ad9db)" style="fill: #1f77b4"/>
   </g>
   <g id="patch_36">
    <path d="M 127.669913 307.584 
L 129.301343 307.584 
L 129.301343 215.112649 
L 127.669913 215.112649 
z
" clip-path="url(#p5e312ad9db)" style="fill: #1f77b4"/>
   </g>
   <g id="patch_37">
    <path d="M 129.301343 307.584 
L 130.932773 307.584 
L 130.932773 215.112649 
L 129.301343 215.112649 
z
" clip-path="url(#p5e312ad9db)" style="fill: #1f77b4"/>
   </g>
   <g id="patch_38">
    <path d="M 130.932773 307.584 
L 132.564203 307.584 
L 132.564203 204.838054 
L 130.932773 204.838054 
z
" clip-path="url(#p5e312ad9db)" style="fill: #1f77b4"/>
   </g>
   <g id="patch_39">
    <path d="M 132.564203 307.584 
L 134.195633 307.584 
L 134.195633 203.125622 
L 132.564203 203.125622 
z
" clip-path="url(#p5e312ad9db)" style="fill: #1f77b4"/>
   </g>
   <g id="patch_40">
    <path d="M 134.195633 307.584 
L 135.827063 307.584 
L 135.827063 221.962378 
L 134.195633 221.962378 
z
" clip-path="url(#p5e312ad9db)" style="fill: #1f77b4"/>
   </g>
   <g id="patch_41">
    <path d="M 135.827063 307.584 
L 137.458492 307.584 
L 137.458492 227.099676 
L 135.827063 227.099676 
z
" clip-path="url(#p5e312ad9db)" style="fill: #1f77b4"/>
   </g>
   <g id="patch_42">
    <path d="M 137.458492 307.584 
L 139.089922 307.584 
L 139.089922 227.099676 
L 137.458492 227.099676 
z
" clip-path="url(#p5e312ad9db)" style="fill: #1f77b4"/>
   </g>
   <g id="patch_43">
    <path d="M 139.089922 307.584 
L 140.721352 307.584 
L 140.721352 211.687784 
L 139.089922 211.687784 
z
" clip-path="url(#p5e312ad9db)" style="fill: #1f77b4"/>
   </g>
   <g id="patch_44">
    <path d="M 140.721352 307.584 
L 142.352782 307.584 
L 142.352782 232.236973 
L 140.721352 232.236973 
z
" clip-path="url(#p5e312ad9db)" style="fill: #1f77b4"/>
   </g>
   <g id="patch_45">
    <path d="M 142.352782 307.584 
L 143.984212 307.584 
L 143.984212 215.112649 
L 142.352782 215.112649 
z
" clip-path="url(#p5e312ad9db)" style="fill: #1f77b4"/>
   </g>
   <g id="patch_46">
    <path d="M 143.984212 307.584 
L 145.615642 307.584 
L 145.615642 244.224 
L 143.984212 244.224 
z
" clip-path="url(#p5e312ad9db)" style="fill: #1f77b4"/>
   </g>
   <g id="patch_47">
    <path d="M 145.615642 307.584 
L 147.247072 307.584 
L 147.247072 233.949405 
L 145.615642 233.949405 
z
" clip-path="url(#p5e312ad9db)" style="fill: #1f77b4"/>
   </g>
   <g id="patch_48">
    <path d="M 147.247072 307.584 
L 148.878502 307.584 
L 148.878502 221.962378 
L 147.247072 221.962378 
z
" clip-path="url(#p5e312ad9db)" style="fill: #1f77b4"/>
   </g>
   <g id="patch_49">
    <path d="M 148.878502 307.584 
L 150.509931 307.584 
L 150.509931 230.524541 
L 148.878502 230.524541 
z
" clip-path="url(#p5e312ad9db)" style="fill: #1f77b4"/>
   </g>
   <g id="patch_50">
    <path d="M 150.509931 307.584 
L 152.141361 307.584 
L 152.141361 242.511568 
L 150.509931 242.511568 
z
" clip-path="url(#p5e312ad9db)" style="fill: #1f77b4"/>
   </g>
   <g id="patch_51">
    <path d="M 152.141361 307.584 
L 153.772791 307.584 
L 153.772791 251.07373 
L 152.141361 251.07373 
z
" clip-path="url(#p5e312ad9db)" style="fill: #1f77b4"/>
   </g>
   <g id="patch_52">
    <path d="M 153.772791 307.584 
L 155.404221 307.584 
L 155.404221 259.635892 
L 153.772791 259.635892 
z
" clip-path="url(#p5e312ad9db)" style="fill: #1f77b4"/>
   </g>
   <g id="patch_53">
    <path d="M 155.404221 307.584 
L 157.035651 307.584 
L 157.035651 251.07373 
L 155.404221 251.07373 
z
" clip-path="url(#p5e312ad9db)" style="fill: #1f77b4"/>
   </g>
   <g id="patch_54">
    <path d="M 157.035651 307.584 
L 158.667081 307.584 
L 158.667081 252.786162 
L 157.035651 252.786162 
z
" clip-path="url(#p5e312ad9db)" style="fill: #1f77b4"/>
   </g>
   <g id="patch_55">
    <path d="M 158.667081 307.584 
L 160.298511 307.584 
L 160.298511 266.485622 
L 158.667081 266.485622 
z
" clip-path="url(#p5e312ad9db)" style="fill: #1f77b4"/>
   </g>
   <g id="patch_56">
    <path d="M 160.298511 307.584 
L 161.929941 307.584 
L 161.929941 280.185081 
L 160.298511 280.185081 
z
" clip-path="url(#p5e312ad9db)" style="fill: #1f77b4"/>
   </g>
   <g id="patch_57">
    <path d="M 161.929941 307.584 
L 163.56137 307.584 
L 163.56137 256.211027 
L 161.929941 256.211027 
z
" clip-path="url(#p5e312ad9db)" style="fill: #1f77b4"/>
   </g>
   <g id="patch_58">
    <path d="M 163.56137 307.584 
L 165.1928 307.584 
L 165.1928 259.635892 
L 163.56137 259.635892 
z
" clip-path="url(#p5e312ad9db)" style="fill: #1f77b4"/>
   </g>
   <g id="patch_59">
    <path d="M 165.1928 307.584 
L 166.82423 307.584 
L 166.82423 268.198054 
L 165.1928 268.198054 
z
" clip-path="url(#p5e312ad9db)" style="fill: #1f77b4"/>
   </g>
   <g id="patch_60">
    <path d="M 166.82423 307.584 
L 168.45566 307.584 
L 168.45566 259.635892 
L 166.82423 259.635892 
z
" clip-path="url(#p5e312ad9db)" style="fill: #1f77b4"/>
   </g>
   <g id="patch_61">
    <path d="M 168.45566 307.584 
L 170.08709 307.584 
L 170.08709 273.335351 
L 168.45566 273.335351 
z
" clip-path="url(#p5e312ad9db)" style="fill: #1f77b4"/>
   </g>
   <g id="patch_62">
    <path d="M 170.08709 307.584 
L 171.71852 307.584 
L 171.71852 257.923459 
L 170.08709 257.923459 
z
" clip-path="url(#p5e312ad9db)" style="fill: #1f77b4"/>
   </g>
   <g id="patch_63">
    <path d="M 171.71852 307.584 
L 173.34995 307.584 
L 173.34995 276.760216 
L 171.71852 276.760216 
z
" clip-path="url(#p5e312ad9db)" style="fill: #1f77b4"/>
   </g>
   <g id="patch_64">
    <path d="M 173.34995 307.584 
L 174.98138 307.584 
L 174.98138 264.773189 
L 173.34995 264.773189 
z
" clip-path="url(#p5e312ad9db)" style="fill: #1f77b4"/>
   </g>
   <g id="patch_65">
    <path d="M 174.98138 307.584 
L 176.61281 307.584 
L 176.61281 261.348324 
L 174.98138 261.348324 
z
" clip-path="url(#p5e312ad9db)" style="fill: #1f77b4"/>
   </g>
   <g id="patch_66">
    <path d="M 176.61281 307.584 
L 178.244239 307.584 
L 178.244239 256.211027 
L 176.61281 256.211027 
z
" clip-path="url(#p5e312ad9db)" style="fill: #1f77b4"/>
   </g>
   <g id="patch_67">
    <path d="M 178.244239 307.584 
L 179.875669 307.584 
L 179.875669 261.348324 
L 178.244239 261.348324 
z
" clip-path="url(#p5e312ad9db)" style="fill: #1f77b4"/>
   </g>
   <g id="patch_68">
    <path d="M 179.875669 307.584 
L 181.507099 307.584 
L 181.507099 233.949405 
L 179.875669 233.949405 
z
" clip-path="url(#p5e312ad9db)" style="fill: #1f77b4"/>
   </g>
   <g id="patch_69">
    <path d="M 181.507099 307.584 
L 183.138529 307.584 
L 183.138529 249.361297 
L 181.507099 249.361297 
z
" clip-path="url(#p5e312ad9db)" style="fill: #1f77b4"/>
   </g>
   <g id="patch_70">
    <path d="M 183.138529 307.584 
L 184.769959 307.584 
L 184.769959 264.773189 
L 183.138529 264.773189 
z
" clip-path="url(#p5e312ad9db)" style="fill: #1f77b4"/>
   </g>
   <g id="patch_71">
    <path d="M 184.769959 307.584 
L 186.401389 307.584 
L 186.401389 251.07373 
L 184.769959 251.07373 
z
" clip-path="url(#p5e312ad9db)" style="fill: #1f77b4"/>
   </g>
   <g id="patch_72">
    <path d="M 186.401389 307.584 
L 188.032819 307.584 
L 188.032819 235.661838 
L 186.401389 235.661838 
z
" clip-path="url(#p5e312ad9db)" style="fill: #1f77b4"/>
   </g>
   <g id="patch_73">
    <path d="M 188.032819 307.584 
L 189.664249 307.584 
L 189.664249 239.086703 
L 188.032819 239.086703 
z
" clip-path="url(#p5e312ad9db)" style="fill: #1f77b4"/>
   </g>
   <g id="patch_74">
    <path d="M 189.664249 307.584 
L 191.295678 307.584 
L 191.295678 251.07373 
L 189.664249 251.07373 
z
" clip-path="url(#p5e312ad9db)" style="fill: #1f77b4"/>
   </g>
   <g id="patch_75">
    <path d="M 191.295678 307.584 
L 192.927108 307.584 
L 192.927108 261.348324 
L 191.295678 261.348324 
z
" clip-path="url(#p5e312ad9db)" style="fill: #1f77b4"/>
   </g>
   <g id="patch_76">
    <path d="M 192.927108 307.584 
L 194.558538 307.584 
L 194.558538 256.211027 
L 192.927108 256.211027 
z
" clip-path="url(#p5e312ad9db)" style="fill: #1f77b4"/>
   </g>
   <g id="patch_77">
    <path d="M 194.558538 307.584 
L 196.189968 307.584 
L 196.189968 221.962378 
L 194.558538 221.962378 
z
" clip-path="url(#p5e312ad9db)" style="fill: #1f77b4"/>
   </g>
   <g id="patch_78">
    <path d="M 196.189968 307.584 
L 197.821398 307.584 
L 197.821398 240.799135 
L 196.189968 240.799135 
z
" clip-path="url(#p5e312ad9db)" style="fill: #1f77b4"/>
   </g>
   <g id="patch_79">
    <path d="M 197.821398 307.584 
L 199.452828 307.584 
L 199.452828 242.511568 
L 197.821398 242.511568 
z
" clip-path="url(#p5e312ad9db)" style="fill: #1f77b4"/>
   </g>
   <g id="patch_80">
    <path d="M 199.452828 307.584 
L 201.084258 307.584 
L 201.084258 220.249946 
L 199.452828 220.249946 
z
" clip-path="url(#p5e312ad9db)" style="fill: #1f77b4"/>
   </g>
   <g id="patch_81">
    <path d="M 201.084258 307.584 
L 202.715688 307.584 
L 202.715688 215.112649 
L 201.084258 215.112649 
z
" clip-path="url(#p5e312ad9db)" style="fill: #1f77b4"/>
   </g>
   <g id="patch_82">
    <path d="M 202.715688 307.584 
L 204.347117 307.584 
L 204.347117 204.838054 
L 202.715688 204.838054 
z
" clip-path="url(#p5e312ad9db)" style="fill: #1f77b4"/>
   </g>
   <g id="patch_83">
    <path d="M 204.347117 307.584 
L 205.978547 307.584 
L 205.978547 184.288865 
L 204.347117 184.288865 
z
" clip-path="url(#p5e312ad9db)" style="fill: #1f77b4"/>
   </g>
   <g id="patch_84">
    <path d="M 205.978547 307.584 
L 207.609977 307.584 
L 207.609977 227.099676 
L 205.978547 227.099676 
z
" clip-path="url(#p5e312ad9db)" style="fill: #1f77b4"/>
   </g>
   <g id="patch_85">
    <path d="M 207.609977 307.584 
L 209.241407 307.584 
L 209.241407 211.687784 
L 207.609977 211.687784 
z
" clip-path="url(#p5e312ad9db)" style="fill: #1f77b4"/>
   </g>
   <g id="patch_86">
    <path d="M 209.241407 307.584 
L 210.872837 307.584 
L 210.872837 194.563459 
L 209.241407 194.563459 
z
" clip-path="url(#p5e312ad9db)" style="fill: #1f77b4"/>
   </g>
   <g id="patch_87">
    <path d="M 210.872837 307.584 
L 212.504267 307.584 
L 212.504267 197.988324 
L 210.872837 197.988324 
z
" clip-path="url(#p5e312ad9db)" style="fill: #1f77b4"/>
   </g>
   <g id="patch_88">
    <path d="M 212.504267 307.584 
L 214.135697 307.584 
L 214.135697 153.465081 
L 212.504267 153.465081 
z
" clip-path="url(#p5e312ad9db)" style="fill: #1f77b4"/>
   </g>
   <g id="patch_89">
    <path d="M 214.135697 307.584 
L 215.767127 307.584 
L 215.767127 167.164541 
L 214.135697 167.164541 
z
" clip-path="url(#p5e312ad9db)" style="fill: #1f77b4"/>
   </g>
   <g id="patch_90">
    <path d="M 215.767127 307.584 
L 217.398556 307.584 
L 217.398556 191.138595 
L 215.767127 191.138595 
z
" clip-path="url(#p5e312ad9db)" style="fill: #1f77b4"/>
   </g>
   <g id="patch_91">
    <path d="M 217.398556 307.584 
L 219.029986 307.584 
L 219.029986 179.151568 
L 217.398556 179.151568 
z
" clip-path="url(#p5e312ad9db)" style="fill: #1f77b4"/>
   </g>
   <g id="patch_92">
    <path d="M 219.029986 307.584 
L 220.661416 307.584 
L 220.661416 114.079135 
L 219.029986 114.079135 
z
" clip-path="url(#p5e312ad9db)" style="fill: #1f77b4"/>
   </g>
   <g id="patch_93">
    <path d="M 220.661416 307.584 
L 222.292846 307.584 
L 222.292846 175.726703 
L 220.661416 175.726703 
z
" clip-path="url(#p5e312ad9db)" style="fill: #1f77b4"/>
   </g>
   <g id="patch_94">
    <path d="M 222.292846 307.584 
L 223.924276 307.584 
L 223.924276 124.35373 
L 222.292846 124.35373 
z
" clip-path="url(#p5e312ad9db)" style="fill: #1f77b4"/>
   </g>
   <g id="patch_95">
    <path d="M 223.924276 307.584 
L 225.555706 307.584 
L 225.555706 95.242378 
L 223.924276 95.242378 
z
" clip-path="url(#p5e312ad9db)" style="fill: #1f77b4"/>
   </g>
   <g id="patch_96">
    <path d="M 225.555706 307.584 
L 227.187136 307.584 
L 227.187136 129.491027 
L 225.555706 129.491027 
z
" clip-path="url(#p5e312ad9db)" style="fill: #1f77b4"/>
   </g>
   <g id="patch_97">
    <path d="M 227.187136 307.584 
L 228.818566 307.584 
L 228.818566 126.066162 
L 227.187136 126.066162 
z
" clip-path="url(#p5e312ad9db)" style="fill: #1f77b4"/>
   </g>
   <g id="patch_98">
    <path d="M 228.818566 307.584 
L 230.449995 307.584 
L 230.449995 114.079135 
L 228.818566 114.079135 
z
" clip-path="url(#p5e312ad9db)" style="fill: #1f77b4"/>
   </g>
   <g id="patch_99">
    <path d="M 230.449995 307.584 
L 232.081425 307.584 
L 232.081425 95.242378 
L 230.449995 95.242378 
z
" clip-path="url(#p5e312ad9db)" style="fill: #1f77b4"/>
   </g>
   <g id="patch_100">
    <path d="M 232.081425 307.584 
L 233.712855 307.584 
L 233.712855 100.379676 
L 232.081425 100.379676 
z
" clip-path="url(#p5e312ad9db)" style="fill: #1f77b4"/>
   </g>
   <g id="patch_101">
    <path d="M 233.712855 307.584 
L 235.344285 307.584 
L 235.344285 59.281297 
L 233.712855 59.281297 
z
" clip-path="url(#p5e312ad9db)" style="fill: #1f77b4"/>
   </g>
   <g id="patch_102">
    <path d="M 235.344285 307.584 
L 236.975715 307.584 
L 236.975715 91.817514 
L 235.344285 91.817514 
z
" clip-path="url(#p5e312ad9db)" style="fill: #1f77b4"/>
   </g>
   <g id="patch_103">
    <path d="M 236.975715 307.584 
L 238.607145 307.584 
L 238.607145 102.092108 
L 236.975715 102.092108 
z
" clip-path="url(#p5e312ad9db)" style="fill: #1f77b4"/>
   </g>
   <g id="patch_104">
    <path d="M 238.607145 307.584 
L 240.238575 307.584 
L 240.238575 54.144 
L 238.607145 54.144 
z
" clip-path="url(#p5e312ad9db)" style="fill: #1f77b4"/>
   </g>
   <g id="patch_105">
    <path d="M 240.238575 307.584 
L 241.870005 307.584 
L 241.870005 91.817514 
L 240.238575 91.817514 
z
" clip-path="url(#p5e312ad9db)" style="fill: #1f77b4"/>
   </g>
   <g id="patch_106">
    <path d="M 241.870005 307.584 
L 243.501434 307.584 
L 243.501434 112.366703 
L 241.870005 112.366703 
z
" clip-path="url(#p5e312ad9db)" style="fill: #1f77b4"/>
   </g>
   <g id="patch_107">
    <path d="M 243.501434 307.584 
L 245.132864 307.584 
L 245.132864 84.967784 
L 243.501434 84.967784 
z
" clip-path="url(#p5e312ad9db)" style="fill: #1f77b4"/>
   </g>
   <g id="patch_108">
    <path d="M 245.132864 307.584 
L 246.764294 307.584 
L 246.764294 144.902919 
L 245.132864 144.902919 
z
" clip-path="url(#p5e312ad9db)" style="fill: #1f77b4"/>
   </g>
   <g id="patch_109">
    <path d="M 246.764294 307.584 
L 248.395724 307.584 
L 248.395724 138.053189 
L 246.764294 138.053189 
z
" clip-path="url(#p5e312ad9db)" style="fill: #1f77b4"/>
   </g>
   <g id="patch_110">
    <path d="M 248.395724 307.584 
L 250.027154 307.584 
L 250.027154 143.190486 
L 248.395724 143.190486 
z
" clip-path="url(#p5e312ad9db)" style="fill: #1f77b4"/>
   </g>
   <g id="patch_111">
    <path d="M 250.027154 307.584 
L 251.658584 307.584 
L 251.658584 144.902919 
L 250.027154 144.902919 
z
" clip-path="url(#p5e312ad9db)" style="fill: #1f77b4"/>
   </g>
   <g id="patch_112">
    <path d="M 251.658584 307.584 
L 253.290014 307.584 
L 253.290014 107.229405 
L 251.658584 107.229405 
z
" clip-path="url(#p5e312ad9db)" style="fill: #1f77b4"/>
   </g>
   <g id="patch_113">
    <path d="M 253.290014 307.584 
L 254.921444 307.584 
L 254.921444 132.915892 
L 253.290014 132.915892 
z
" clip-path="url(#p5e312ad9db)" style="fill: #1f77b4"/>
   </g>
   <g id="patch_114">
    <path d="M 254.921444 307.584 
L 256.552873 307.584 
L 256.552873 146.615351 
L 254.921444 146.615351 
z
" clip-path="url(#p5e312ad9db)" style="fill: #1f77b4"/>
   </g>
   <g id="patch_115">
    <path d="M 256.552873 307.584 
L 258.184303 307.584 
L 258.184303 160.314811 
L 256.552873 160.314811 
z
" clip-path="url(#p5e312ad9db)" style="fill: #1f77b4"/>
   </g>
   <g id="patch_116">
    <path d="M 258.184303 307.584 
L 259.815733 307.584 
L 259.815733 192.851027 
L 258.184303 192.851027 
z
" clip-path="url(#p5e312ad9db)" style="fill: #1f77b4"/>
   </g>
   <g id="patch_117">
    <path d="M 259.815733 307.584 
L 261.447163 307.584 
L 261.447163 156.889946 
L 259.815733 156.889946 
z
" clip-path="url(#p5e312ad9db)" style="fill: #1f77b4"/>
   </g>
   <g id="patch_118">
    <path d="M 261.447163 307.584 
L 263.078593 307.584 
L 263.078593 196.275892 
L 261.447163 196.275892 
z
" clip-path="url(#p5e312ad9db)" style="fill: #1f77b4"/>
   </g>
   <g id="patch_119">
    <path d="M 263.078593 307.584 
L 264.710023 307.584 
L 264.710023 182.576432 
L 263.078593 182.576432 
z
" clip-path="url(#p5e312ad9db)" style="fill: #1f77b4"/>
   </g>
   <g id="patch_120">
    <path d="M 264.710023 307.584 
L 266.341453 307.584 
L 266.341453 196.275892 
L 264.710023 196.275892 
z
" clip-path="url(#p5e312ad9db)" style="fill: #1f77b4"/>
   </g>
   <g id="patch_121">
    <path d="M 266.341453 307.584 
L 267.972883 307.584 
L 267.972883 203.125622 
L 266.341453 203.125622 
z
" clip-path="url(#p5e312ad9db)" style="fill: #1f77b4"/>
   </g>
   <g id="patch_122">
    <path d="M 267.972883 307.584 
L 269.604312 307.584 
L 269.604312 211.687784 
L 267.972883 211.687784 
z
" clip-path="url(#p5e312ad9db)" style="fill: #1f77b4"/>
   </g>
   <g id="patch_123">
    <path d="M 269.604312 307.584 
L 271.235742 307.584 
L 271.235742 208.262919 
L 269.604312 208.262919 
z
" clip-path="url(#p5e312ad9db)" style="fill: #1f77b4"/>
   </g>
   <g id="patch_124">
    <path d="M 271.235742 307.584 
L 272.867172 307.584 
L 272.867172 203.125622 
L 271.235742 203.125622 
z
" clip-path="url(#p5e312ad9db)" style="fill: #1f77b4"/>
   </g>
   <g id="patch_125">
    <path d="M 272.867172 307.584 
L 274.498602 307.584 
L 274.498602 206.550486 
L 272.867172 206.550486 
z
" clip-path="url(#p5e312ad9db)" style="fill: #1f77b4"/>
   </g>
   <g id="patch_126">
    <path d="M 274.498602 307.584 
L 276.130032 307.584 
L 276.130032 247.648865 
L 274.498602 247.648865 
z
" clip-path="url(#p5e312ad9db)" style="fill: #1f77b4"/>
   </g>
   <g id="patch_127">
    <path d="M 276.130032 307.584 
L 277.761462 307.584 
L 277.761462 225.387243 
L 276.130032 225.387243 
z
" clip-path="url(#p5e312ad9db)" style="fill: #1f77b4"/>
   </g>
   <g id="patch_128">
    <path d="M 277.761462 307.584 
L 279.392892 307.584 
L 279.392892 233.949405 
L 277.761462 233.949405 
z
" clip-path="url(#p5e312ad9db)" style="fill: #1f77b4"/>
   </g>
   <g id="patch_129">
    <path d="M 279.392892 307.584 
L 281.024322 307.584 
L 281.024322 220.249946 
L 279.392892 220.249946 
z
" clip-path="url(#p5e312ad9db)" style="fill: #1f77b4"/>
   </g>
   <g id="patch_130">
    <path d="M 281.024322 307.584 
L 282.655751 307.584 
L 282.655751 235.661838 
L 281.024322 235.661838 
z
" clip-path="url(#p5e312ad9db)" style="fill: #1f77b4"/>
   </g>
   <g id="patch_131">
    <path d="M 282.655751 307.584 
L 284.287181 307.584 
L 284.287181 257.923459 
L 282.655751 257.923459 
z
" clip-path="url(#p5e312ad9db)" style="fill: #1f77b4"/>
   </g>
   <g id="patch_132">
    <path d="M 284.287181 307.584 
L 285.918611 307.584 
L 285.918611 233.949405 
L 284.287181 233.949405 
z
" clip-path="url(#p5e312ad9db)" style="fill: #1f77b4"/>
   </g>
   <g id="patch_133">
    <path d="M 285.918611 307.584 
L 287.550041 307.584 
L 287.550041 242.511568 
L 285.918611 242.511568 
z
" clip-path="url(#p5e312ad9db)" style="fill: #1f77b4"/>
   </g>
   <g id="patch_134">
    <path d="M 287.550041 307.584 
L 289.181471 307.584 
L 289.181471 264.773189 
L 287.550041 264.773189 
z
" clip-path="url(#p5e312ad9db)" style="fill: #1f77b4"/>
   </g>
   <g id="patch_135">
    <path d="M 289.181471 307.584 
L 290.812901 307.584 
L 290.812901 230.524541 
L 289.181471 230.524541 
z
" clip-path="url(#p5e312ad9db)" style="fill: #1f77b4"/>
   </g>
   <g id="patch_136">
    <path d="M 290.812901 307.584 
L 292.444331 307.584 
L 292.444331 249.361297 
L 290.812901 249.361297 
z
" clip-path="url(#p5e312ad9db)" style="fill: #1f77b4"/>
   </g>
   <g id="patch_137">
    <path d="M 292.444331 307.584 
L 294.075761 307.584 
L 294.075761 257.923459 
L 292.444331 257.923459 
z
" clip-path="url(#p5e312ad9db)" style="fill: #1f77b4"/>
   </g>
   <g id="patch_138">
    <path d="M 294.075761 307.584 
L 295.70719 307.584 
L 295.70719 261.348324 
L 294.075761 261.348324 
z
" clip-path="url(#p5e312ad9db)" style="fill: #1f77b4"/>
   </g>
   <g id="patch_139">
    <path d="M 295.70719 307.584 
L 297.33862 307.584 
L 297.33862 266.485622 
L 295.70719 266.485622 
z
" clip-path="url(#p5e312ad9db)" style="fill: #1f77b4"/>
   </g>
   <g id="patch_140">
    <path d="M 297.33862 307.584 
L 298.97005 307.584 
L 298.97005 263.060757 
L 297.33862 263.060757 
z
" clip-path="url(#p5e312ad9db)" style="fill: #1f77b4"/>
   </g>
   <g id="patch_141">
    <path d="M 298.97005 307.584 
L 300.60148 307.584 
L 300.60148 273.335351 
L 298.97005 273.335351 
z
" clip-path="url(#p5e312ad9db)" style="fill: #1f77b4"/>
   </g>
   <g id="patch_142">
    <path d="M 300.60148 307.584 
L 302.23291 307.584 
L 302.23291 261.348324 
L 300.60148 261.348324 
z
" clip-path="url(#p5e312ad9db)" style="fill: #1f77b4"/>
   </g>
   <g id="patch_143">
    <path d="M 302.23291 307.584 
L 303.86434 307.584 
L 303.86434 271.622919 
L 302.23291 271.622919 
z
" clip-path="url(#p5e312ad9db)" style="fill: #1f77b4"/>
   </g>
   <g id="patch_144">
    <path d="M 303.86434 307.584 
L 305.49577 307.584 
L 305.49577 281.897514 
L 303.86434 281.897514 
z
" clip-path="url(#p5e312ad9db)" style="fill: #1f77b4"/>
   </g>
   <g id="patch_145">
    <path d="M 305.49577 307.584 
L 307.1272 307.584 
L 307.1272 261.348324 
L 305.49577 261.348324 
z
" clip-path="url(#p5e312ad9db)" style="fill: #1f77b4"/>
   </g>
   <g id="patch_146">
    <path d="M 307.1272 307.584 
L 308.75863 307.584 
L 308.75863 254.498595 
L 307.1272 254.498595 
z
" clip-path="url(#p5e312ad9db)" style="fill: #1f77b4"/>
   </g>
   <g id="patch_147">
    <path d="M 308.75863 307.584 
L 310.390059 307.584 
L 310.390059 266.485622 
L 308.75863 266.485622 
z
" clip-path="url(#p5e312ad9db)" style="fill: #1f77b4"/>
   </g>
   <g id="patch_148">
    <path d="M 310.390059 307.584 
L 312.021489 307.584 
L 312.021489 259.635892 
L 310.390059 259.635892 
z
" clip-path="url(#p5e312ad9db)" style="fill: #1f77b4"/>
   </g>
   <g id="patch_149">
    <path d="M 312.021489 307.584 
L 313.652919 307.584 
L 313.652919 263.060757 
L 312.021489 263.060757 
z
" clip-path="url(#p5e312ad9db)" style="fill: #1f77b4"/>
   </g>
   <g id="patch_150">
    <path d="M 313.652919 307.584 
L 315.284349 307.584 
L 315.284349 259.635892 
L 313.652919 259.635892 
z
" clip-path="url(#p5e312ad9db)" style="fill: #1f77b4"/>
   </g>
   <g id="patch_151">
    <path d="M 315.284349 307.584 
L 316.915779 307.584 
L 316.915779 254.498595 
L 315.284349 254.498595 
z
" clip-path="url(#p5e312ad9db)" style="fill: #1f77b4"/>
   </g>
   <g id="patch_152">
    <path d="M 316.915779 307.584 
L 318.547209 307.584 
L 318.547209 239.086703 
L 316.915779 239.086703 
z
" clip-path="url(#p5e312ad9db)" style="fill: #1f77b4"/>
   </g>
   <g id="patch_153">
    <path d="M 318.547209 307.584 
L 320.178639 307.584 
L 320.178639 239.086703 
L 318.547209 239.086703 
z
" clip-path="url(#p5e312ad9db)" style="fill: #1f77b4"/>
   </g>
   <g id="patch_154">
    <path d="M 320.178639 307.584 
L 321.810069 307.584 
L 321.810069 230.524541 
L 320.178639 230.524541 
z
" clip-path="url(#p5e312ad9db)" style="fill: #1f77b4"/>
   </g>
   <g id="patch_155">
    <path d="M 321.810069 307.584 
L 323.441498 307.584 
L 323.441498 249.361297 
L 321.810069 249.361297 
z
" clip-path="url(#p5e312ad9db)" style="fill: #1f77b4"/>
   </g>
   <g id="patch_156">
    <path d="M 323.441498 307.584 
L 325.072928 307.584 
L 325.072928 235.661838 
L 323.441498 235.661838 
z
" clip-path="url(#p5e312ad9db)" style="fill: #1f77b4"/>
   </g>
   <g id="patch_157">
    <path d="M 325.072928 307.584 
L 326.704358 307.584 
L 326.704358 244.224 
L 325.072928 244.224 
z
" clip-path="url(#p5e312ad9db)" style="fill: #1f77b4"/>
   </g>
   <g id="patch_158">
    <path d="M 326.704358 307.584 
L 328.335788 307.584 
L 328.335788 235.661838 
L 326.704358 235.661838 
z
" clip-path="url(#p5e312ad9db)" style="fill: #1f77b4"/>
   </g>
   <g id="patch_159">
    <path d="M 328.335788 307.584 
L 329.967218 307.584 
L 329.967218 251.07373 
L 328.335788 251.07373 
z
" clip-path="url(#p5e312ad9db)" style="fill: #1f77b4"/>
   </g>
   <g id="patch_160">
    <path d="M 329.967218 307.584 
L 331.598648 307.584 
L 331.598648 227.099676 
L 329.967218 227.099676 
z
" clip-path="url(#p5e312ad9db)" style="fill: #1f77b4"/>
   </g>
   <g id="patch_161">
    <path d="M 331.598648 307.584 
L 333.230078 307.584 
L 333.230078 240.799135 
L 331.598648 240.799135 
z
" clip-path="url(#p5e312ad9db)" style="fill: #1f77b4"/>
   </g>
   <g id="patch_162">
    <path d="M 333.230078 307.584 
L 334.861508 307.584 
L 334.861508 209.975351 
L 333.230078 209.975351 
z
" clip-path="url(#p5e312ad9db)" style="fill: #1f77b4"/>
   </g>
   <g id="patch_163">
    <path d="M 334.861508 307.584 
L 336.492937 307.584 
L 336.492937 220.249946 
L 334.861508 220.249946 
z
" clip-path="url(#p5e312ad9db)" style="fill: #1f77b4"/>
   </g>
   <g id="patch_164">
    <path d="M 336.492937 307.584 
L 338.124367 307.584 
L 338.124367 201.413189 
L 336.492937 201.413189 
z
" clip-path="url(#p5e312ad9db)" style="fill: #1f77b4"/>
   </g>
   <g id="patch_165">
    <path d="M 338.124367 307.584 
L 339.755797 307.584 
L 339.755797 239.086703 
L 338.124367 239.086703 
z
" clip-path="url(#p5e312ad9db)" style="fill: #1f77b4"/>
   </g>
   <g id="patch_166">
    <path d="M 339.755797 307.584 
L 341.387227 307.584 
L 341.387227 225.387243 
L 339.755797 225.387243 
z
" clip-path="url(#p5e312ad9db)" style="fill: #1f77b4"/>
   </g>
   <g id="patch_167">
    <path d="M 341.387227 307.584 
L 343.018657 307.584 
L 343.018657 216.825081 
L 341.387227 216.825081 
z
" clip-path="url(#p5e312ad9db)" style="fill: #1f77b4"/>
   </g>
   <g id="patch_168">
    <path d="M 343.018657 307.584 
L 344.650087 307.584 
L 344.650087 206.550486 
L 343.018657 206.550486 
z
" clip-path="url(#p5e312ad9db)" style="fill: #1f77b4"/>
   </g>
   <g id="patch_169">
    <path d="M 344.650087 307.584 
L 346.281517 307.584 
L 346.281517 191.138595 
L 344.650087 191.138595 
z
" clip-path="url(#p5e312ad9db)" style="fill: #1f77b4"/>
   </g>
   <g id="patch_170">
    <path d="M 346.281517 307.584 
L 347.912947 307.584 
L 347.912947 218.537514 
L 346.281517 218.537514 
z
" clip-path="url(#p5e312ad9db)" style="fill: #1f77b4"/>
   </g>
   <g id="patch_171">
    <path d="M 347.912947 307.584 
L 349.544376 307.584 
L 349.544376 203.125622 
L 347.912947 203.125622 
z
" clip-path="url(#p5e312ad9db)" style="fill: #1f77b4"/>
   </g>
   <g id="patch_172">
    <path d="M 349.544376 307.584 
L 351.175806 307.584 
L 351.175806 213.400216 
L 349.544376 213.400216 
z
" clip-path="url(#p5e312ad9db)" style="fill: #1f77b4"/>
   </g>
   <g id="patch_173">
    <path d="M 351.175806 307.584 
L 352.807236 307.584 
L 352.807236 201.413189 
L 351.175806 201.413189 
z
" clip-path="url(#p5e312ad9db)" style="fill: #1f77b4"/>
   </g>
   <g id="patch_174">
    <path d="M 352.807236 307.584 
L 354.438666 307.584 
L 354.438666 235.661838 
L 352.807236 235.661838 
z
" clip-path="url(#p5e312ad9db)" style="fill: #1f77b4"/>
   </g>
   <g id="patch_175">
    <path d="M 354.438666 307.584 
L 356.070096 307.584 
L 356.070096 208.262919 
L 354.438666 208.262919 
z
" clip-path="url(#p5e312ad9db)" style="fill: #1f77b4"/>
   </g>
   <g id="patch_176">
    <path d="M 356.070096 307.584 
L 357.701526 307.584 
L 357.701526 208.262919 
L 356.070096 208.262919 
z
" clip-path="url(#p5e312ad9db)" style="fill: #1f77b4"/>
   </g>
   <g id="patch_177">
    <path d="M 357.701526 307.584 
L 359.332956 307.584 
L 359.332956 203.125622 
L 357.701526 203.125622 
z
" clip-path="url(#p5e312ad9db)" style="fill: #1f77b4"/>
   </g>
   <g id="patch_178">
    <path d="M 359.332956 307.584 
L 360.964386 307.584 
L 360.964386 216.825081 
L 359.332956 216.825081 
z
" clip-path="url(#p5e312ad9db)" style="fill: #1f77b4"/>
   </g>
   <g id="patch_179">
    <path d="M 360.964386 307.584 
L 362.595815 307.584 
L 362.595815 223.674811 
L 360.964386 223.674811 
z
" clip-path="url(#p5e312ad9db)" style="fill: #1f77b4"/>
   </g>
   <g id="patch_180">
    <path d="M 362.595815 307.584 
L 364.227245 307.584 
L 364.227245 225.387243 
L 362.595815 225.387243 
z
" clip-path="url(#p5e312ad9db)" style="fill: #1f77b4"/>
   </g>
   <g id="patch_181">
    <path d="M 364.227245 307.584 
L 365.858675 307.584 
L 365.858675 215.112649 
L 364.227245 215.112649 
z
" clip-path="url(#p5e312ad9db)" style="fill: #1f77b4"/>
   </g>
   <g id="patch_182">
    <path d="M 365.858675 307.584 
L 367.490105 307.584 
L 367.490105 199.700757 
L 365.858675 199.700757 
z
" clip-path="url(#p5e312ad9db)" style="fill: #1f77b4"/>
   </g>
   <g id="patch_183">
    <path d="M 367.490105 307.584 
L 369.121535 307.584 
L 369.121535 240.799135 
L 367.490105 240.799135 
z
" clip-path="url(#p5e312ad9db)" style="fill: #1f77b4"/>
   </g>
   <g id="patch_184">
    <path d="M 369.121535 307.584 
L 370.752965 307.584 
L 370.752965 230.524541 
L 369.121535 230.524541 
z
" clip-path="url(#p5e312ad9db)" style="fill: #1f77b4"/>
   </g>
   <g id="patch_185">
    <path d="M 370.752965 307.584 
L 372.384395 307.584 
L 372.384395 209.975351 
L 370.752965 209.975351 
z
" clip-path="url(#p5e312ad9db)" style="fill: #1f77b4"/>
   </g>
   <g id="patch_186">
    <path d="M 372.384395 307.584 
L 374.015825 307.584 
L 374.015825 228.812108 
L 372.384395 228.812108 
z
" clip-path="url(#p5e312ad9db)" style="fill: #1f77b4"/>
   </g>
   <g id="patch_187">
    <path d="M 374.015825 307.584 
L 375.647254 307.584 
L 375.647254 239.086703 
L 374.015825 239.086703 
z
" clip-path="url(#p5e312ad9db)" style="fill: #1f77b4"/>
   </g>
   <g id="patch_188">
    <path d="M 375.647254 307.584 
L 377.278684 307.584 
L 377.278684 249.361297 
L 375.647254 249.361297 
z
" clip-path="url(#p5e312ad9db)" style="fill: #1f77b4"/>
   </g>
   <g id="patch_189">
    <path d="M 377.278684 307.584 
L 378.910114 307.584 
L 378.910114 221.962378 
L 377.278684 221.962378 
z
" clip-path="url(#p5e312ad9db)" style="fill: #1f77b4"/>
   </g>
   <g id="patch_190">
    <path d="M 378.910114 307.584 
L 380.541544 307.584 
L 380.541544 242.511568 
L 378.910114 242.511568 
z
" clip-path="url(#p5e312ad9db)" style="fill: #1f77b4"/>
   </g>
   <g id="patch_191">
    <path d="M 380.541544 307.584 
L 382.172974 307.584 
L 382.172974 235.661838 
L 380.541544 235.661838 
z
" clip-path="url(#p5e312ad9db)" style="fill: #1f77b4"/>
   </g>
   <g id="patch_192">
    <path d="M 382.172974 307.584 
L 383.804404 307.584 
L 383.804404 275.047784 
L 382.172974 275.047784 
z
" clip-path="url(#p5e312ad9db)" style="fill: #1f77b4"/>
   </g>
   <g id="patch_193">
    <path d="M 383.804404 307.584 
L 385.435834 307.584 
L 385.435834 257.923459 
L 383.804404 257.923459 
z
" clip-path="url(#p5e312ad9db)" style="fill: #1f77b4"/>
   </g>
   <g id="patch_194">
    <path d="M 385.435834 307.584 
L 387.067264 307.584 
L 387.067264 264.773189 
L 385.435834 264.773189 
z
" clip-path="url(#p5e312ad9db)" style="fill: #1f77b4"/>
   </g>
   <g id="patch_195">
    <path d="M 387.067264 307.584 
L 388.698693 307.584 
L 388.698693 259.635892 
L 387.067264 259.635892 
z
" clip-path="url(#p5e312ad9db)" style="fill: #1f77b4"/>
   </g>
   <g id="patch_196">
    <path d="M 388.698693 307.584 
L 390.330123 307.584 
L 390.330123 261.348324 
L 388.698693 261.348324 
z
" clip-path="url(#p5e312ad9db)" style="fill: #1f77b4"/>
   </g>
   <g id="patch_197">
    <path d="M 390.330123 307.584 
L 391.961553 307.584 
L 391.961553 290.459676 
L 390.330123 290.459676 
z
" clip-path="url(#p5e312ad9db)" style="fill: #1f77b4"/>
   </g>
   <g id="patch_198">
    <path d="M 391.961553 307.584 
L 393.592983 307.584 
L 393.592983 273.335351 
L 391.961553 273.335351 
z
" clip-path="url(#p5e312ad9db)" style="fill: #1f77b4"/>
   </g>
   <g id="patch_199">
    <path d="M 393.592983 307.584 
L 395.224413 307.584 
L 395.224413 283.609946 
L 393.592983 283.609946 
z
" clip-path="url(#p5e312ad9db)" style="fill: #1f77b4"/>
   </g>
   <g id="patch_200">
    <path d="M 395.224413 307.584 
L 396.855843 307.584 
L 396.855843 292.172108 
L 395.224413 292.172108 
z
" clip-path="url(#p5e312ad9db)" style="fill: #1f77b4"/>
   </g>
   <g id="patch_201">
    <path d="M 396.855843 307.584 
L 398.487273 307.584 
L 398.487273 295.596973 
L 396.855843 295.596973 
z
" clip-path="url(#p5e312ad9db)" style="fill: #1f77b4"/>
   </g>
   <g id="matplotlib.axis_1">
    <g id="xtick_1">
     <g id="line2d_1">
      <defs>
       <path id="m9b056693f7" d="M 0 0 
L 0 3.5 
" style="stroke: #000000; stroke-width: 0.8"/>
      </defs>
      <g>
       <use xlink:href="#m9b056693f7" x="73.832727" y="307.584" style="stroke: #000000; stroke-width: 0.8"/>
      </g>
     </g>
     <g id="text_1">
      <!-- −1.00 -->
      <g transform="translate(58.510071 322.182437)scale(0.1 -0.1)">
       <defs>
        <path id="DejaVuSans-2212" d="M 678 2272 
L 4684 2272 
L 4684 1741 
L 678 1741 
L 678 2272 
z
" transform="scale(0.015625)"/>
        <path id="DejaVuSans-31" d="M 794 531 
L 1825 531 
L 1825 4091 
L 703 3866 
L 703 4441 
L 1819 4666 
L 2450 4666 
L 2450 531 
L 3481 531 
L 3481 0 
L 794 0 
L 794 531 
z
" transform="scale(0.015625)"/>
        <path id="DejaVuSans-2e" d="M 684 794 
L 1344 794 
L 1344 0 
L 684 0 
L 684 794 
z
" transform="scale(0.015625)"/>
        <path id="DejaVuSans-30" d="M 2034 4250 
Q 1547 4250 1301 3770 
Q 1056 3291 1056 2328 
Q 1056 1369 1301 889 
Q 1547 409 2034 409 
Q 2525 409 2770 889 
Q 3016 1369 3016 2328 
Q 3016 3291 2770 3770 
Q 2525 4250 2034 4250 
z
M 2034 4750 
Q 2819 4750 3233 4129 
Q 3647 3509 3647 2328 
Q 3647 1150 3233 529 
Q 2819 -91 2034 -91 
Q 1250 -91 836 529 
Q 422 1150 422 2328 
Q 422 3509 836 4129 
Q 1250 4750 2034 4750 
z
" transform="scale(0.015625)"/>
       </defs>
       <use xlink:href="#DejaVuSans-2212"/>
       <use xlink:href="#DejaVuSans-31" x="83.789062"/>
       <use xlink:href="#DejaVuSans-2e" x="147.412109"/>
       <use xlink:href="#DejaVuSans-30" x="179.199219"/>
       <use xlink:href="#DejaVuSans-30" x="242.822266"/>
      </g>
     </g>
    </g>
    <g id="xtick_2">
     <g id="line2d_2">
      <g>
       <use xlink:href="#m9b056693f7" x="114.618474" y="307.584" style="stroke: #000000; stroke-width: 0.8"/>
      </g>
     </g>
     <g id="text_2">
      <!-- −0.75 -->
      <g transform="translate(99.295818 322.182437)scale(0.1 -0.1)">
       <defs>
        <path id="DejaVuSans-37" d="M 525 4666 
L 3525 4666 
L 3525 4397 
L 1831 0 
L 1172 0 
L 2766 4134 
L 525 4134 
L 525 4666 
z
" transform="scale(0.015625)"/>
        <path id="DejaVuSans-35" d="M 691 4666 
L 3169 4666 
L 3169 4134 
L 1269 4134 
L 1269 2991 
Q 1406 3038 1543 3061 
Q 1681 3084 1819 3084 
Q 2600 3084 3056 2656 
Q 3513 2228 3513 1497 
Q 3513 744 3044 326 
Q 2575 -91 1722 -91 
Q 1428 -91 1123 -41 
Q 819 9 494 109 
L 494 744 
Q 775 591 1075 516 
Q 1375 441 1709 441 
Q 2250 441 2565 725 
Q 2881 1009 2881 1497 
Q 2881 1984 2565 2268 
Q 2250 2553 1709 2553 
Q 1456 2553 1204 2497 
Q 953 2441 691 2322 
L 691 4666 
z
" transform="scale(0.015625)"/>
       </defs>
       <use xlink:href="#DejaVuSans-2212"/>
       <use xlink:href="#DejaVuSans-30" x="83.789062"/>
       <use xlink:href="#DejaVuSans-2e" x="147.412109"/>
       <use xlink:href="#DejaVuSans-37" x="179.199219"/>
       <use xlink:href="#DejaVuSans-35" x="242.822266"/>
      </g>
     </g>
    </g>
    <g id="xtick_3">
     <g id="line2d_3">
      <g>
       <use xlink:href="#m9b056693f7" x="155.404221" y="307.584" style="stroke: #000000; stroke-width: 0.8"/>
      </g>
     </g>
     <g id="text_3">
      <!-- −0.50 -->
      <g transform="translate(140.081565 322.182437)scale(0.1 -0.1)">
       <use xlink:href="#DejaVuSans-2212"/>
       <use xlink:href="#DejaVuSans-30" x="83.789062"/>
       <use xlink:href="#DejaVuSans-2e" x="147.412109"/>
       <use xlink:href="#DejaVuSans-35" x="179.199219"/>
       <use xlink:href="#DejaVuSans-30" x="242.822266"/>
      </g>
     </g>
    </g>
    <g id="xtick_4">
     <g id="line2d_4">
      <g>
       <use xlink:href="#m9b056693f7" x="196.189968" y="307.584" style="stroke: #000000; stroke-width: 0.8"/>
      </g>
     </g>
     <g id="text_4">
      <!-- −0.25 -->
      <g transform="translate(180.867312 322.182437)scale(0.1 -0.1)">
       <defs>
        <path id="DejaVuSans-32" d="M 1228 531 
L 3431 531 
L 3431 0 
L 469 0 
L 469 531 
Q 828 903 1448 1529 
Q 2069 2156 2228 2338 
Q 2531 2678 2651 2914 
Q 2772 3150 2772 3378 
Q 2772 3750 2511 3984 
Q 2250 4219 1831 4219 
Q 1534 4219 1204 4116 
Q 875 4013 500 3803 
L 500 4441 
Q 881 4594 1212 4672 
Q 1544 4750 1819 4750 
Q 2544 4750 2975 4387 
Q 3406 4025 3406 3419 
Q 3406 3131 3298 2873 
Q 3191 2616 2906 2266 
Q 2828 2175 2409 1742 
Q 1991 1309 1228 531 
z
" transform="scale(0.015625)"/>
       </defs>
       <use xlink:href="#DejaVuSans-2212"/>
       <use xlink:href="#DejaVuSans-30" x="83.789062"/>
       <use xlink:href="#DejaVuSans-2e" x="147.412109"/>
       <use xlink:href="#DejaVuSans-32" x="179.199219"/>
       <use xlink:href="#DejaVuSans-35" x="242.822266"/>
      </g>
     </g>
    </g>
    <g id="xtick_5">
     <g id="line2d_5">
      <g>
       <use xlink:href="#m9b056693f7" x="236.975715" y="307.584" style="stroke: #000000; stroke-width: 0.8"/>
      </g>
     </g>
     <g id="text_5">
      <!-- 0.00 -->
      <g transform="translate(225.842902 322.182437)scale(0.1 -0.1)">
       <use xlink:href="#DejaVuSans-30"/>
       <use xlink:href="#DejaVuSans-2e" x="63.623047"/>
       <use xlink:href="#DejaVuSans-30" x="95.410156"/>
       <use xlink:href="#DejaVuSans-30" x="159.033203"/>
      </g>
     </g>
    </g>
    <g id="xtick_6">
     <g id="line2d_6">
      <g>
       <use xlink:href="#m9b056693f7" x="277.761462" y="307.584" style="stroke: #000000; stroke-width: 0.8"/>
      </g>
     </g>
     <g id="text_6">
      <!-- 0.25 -->
      <g transform="translate(266.628649 322.182437)scale(0.1 -0.1)">
       <use xlink:href="#DejaVuSans-30"/>
       <use xlink:href="#DejaVuSans-2e" x="63.623047"/>
       <use xlink:href="#DejaVuSans-32" x="95.410156"/>
       <use xlink:href="#DejaVuSans-35" x="159.033203"/>
      </g>
     </g>
    </g>
    <g id="xtick_7">
     <g id="line2d_7">
      <g>
       <use xlink:href="#m9b056693f7" x="318.547209" y="307.584" style="stroke: #000000; stroke-width: 0.8"/>
      </g>
     </g>
     <g id="text_7">
      <!-- 0.50 -->
      <g transform="translate(307.414396 322.182437)scale(0.1 -0.1)">
       <use xlink:href="#DejaVuSans-30"/>
       <use xlink:href="#DejaVuSans-2e" x="63.623047"/>
       <use xlink:href="#DejaVuSans-35" x="95.410156"/>
       <use xlink:href="#DejaVuSans-30" x="159.033203"/>
      </g>
     </g>
    </g>
    <g id="xtick_8">
     <g id="line2d_8">
      <g>
       <use xlink:href="#m9b056693f7" x="359.332956" y="307.584" style="stroke: #000000; stroke-width: 0.8"/>
      </g>
     </g>
     <g id="text_8">
      <!-- 0.75 -->
      <g transform="translate(348.200143 322.182437)scale(0.1 -0.1)">
       <use xlink:href="#DejaVuSans-30"/>
       <use xlink:href="#DejaVuSans-2e" x="63.623047"/>
       <use xlink:href="#DejaVuSans-37" x="95.410156"/>
       <use xlink:href="#DejaVuSans-35" x="159.033203"/>
      </g>
     </g>
    </g>
    <g id="xtick_9">
     <g id="line2d_9">
      <g>
       <use xlink:href="#m9b056693f7" x="400.118703" y="307.584" style="stroke: #000000; stroke-width: 0.8"/>
      </g>
     </g>
     <g id="text_9">
      <!-- 1.00 -->
      <g transform="translate(388.98589 322.182437)scale(0.1 -0.1)">
       <use xlink:href="#DejaVuSans-31"/>
       <use xlink:href="#DejaVuSans-2e" x="63.623047"/>
       <use xlink:href="#DejaVuSans-30" x="95.410156"/>
       <use xlink:href="#DejaVuSans-30" x="159.033203"/>
      </g>
     </g>
    </g>
    <g id="text_10">
     <!-- Value of k -->
     <g transform="translate(211.535781 335.860562)scale(0.1 -0.1)">
      <defs>
       <path id="DejaVuSans-56" d="M 1831 0 
L 50 4666 
L 709 4666 
L 2188 738 
L 3669 4666 
L 4325 4666 
L 2547 0 
L 1831 0 
z
" transform="scale(0.015625)"/>
       <path id="DejaVuSans-61" d="M 2194 1759 
Q 1497 1759 1228 1600 
Q 959 1441 959 1056 
Q 959 750 1161 570 
Q 1363 391 1709 391 
Q 2188 391 2477 730 
Q 2766 1069 2766 1631 
L 2766 1759 
L 2194 1759 
z
M 3341 1997 
L 3341 0 
L 2766 0 
L 2766 531 
Q 2569 213 2275 61 
Q 1981 -91 1556 -91 
Q 1019 -91 701 211 
Q 384 513 384 1019 
Q 384 1609 779 1909 
Q 1175 2209 1959 2209 
L 2766 2209 
L 2766 2266 
Q 2766 2663 2505 2880 
Q 2244 3097 1772 3097 
Q 1472 3097 1187 3025 
Q 903 2953 641 2809 
L 641 3341 
Q 956 3463 1253 3523 
Q 1550 3584 1831 3584 
Q 2591 3584 2966 3190 
Q 3341 2797 3341 1997 
z
" transform="scale(0.015625)"/>
       <path id="DejaVuSans-6c" d="M 603 4863 
L 1178 4863 
L 1178 0 
L 603 0 
L 603 4863 
z
" transform="scale(0.015625)"/>
       <path id="DejaVuSans-75" d="M 544 1381 
L 544 3500 
L 1119 3500 
L 1119 1403 
Q 1119 906 1312 657 
Q 1506 409 1894 409 
Q 2359 409 2629 706 
Q 2900 1003 2900 1516 
L 2900 3500 
L 3475 3500 
L 3475 0 
L 2900 0 
L 2900 538 
Q 2691 219 2414 64 
Q 2138 -91 1772 -91 
Q 1169 -91 856 284 
Q 544 659 544 1381 
z
M 1991 3584 
L 1991 3584 
z
" transform="scale(0.015625)"/>
       <path id="DejaVuSans-65" d="M 3597 1894 
L 3597 1613 
L 953 1613 
Q 991 1019 1311 708 
Q 1631 397 2203 397 
Q 2534 397 2845 478 
Q 3156 559 3463 722 
L 3463 178 
Q 3153 47 2828 -22 
Q 2503 -91 2169 -91 
Q 1331 -91 842 396 
Q 353 884 353 1716 
Q 353 2575 817 3079 
Q 1281 3584 2069 3584 
Q 2775 3584 3186 3129 
Q 3597 2675 3597 1894 
z
M 3022 2063 
Q 3016 2534 2758 2815 
Q 2500 3097 2075 3097 
Q 1594 3097 1305 2825 
Q 1016 2553 972 2059 
L 3022 2063 
z
" transform="scale(0.015625)"/>
       <path id="DejaVuSans-20" transform="scale(0.015625)"/>
       <path id="DejaVuSans-6f" d="M 1959 3097 
Q 1497 3097 1228 2736 
Q 959 2375 959 1747 
Q 959 1119 1226 758 
Q 1494 397 1959 397 
Q 2419 397 2687 759 
Q 2956 1122 2956 1747 
Q 2956 2369 2687 2733 
Q 2419 3097 1959 3097 
z
M 1959 3584 
Q 2709 3584 3137 3096 
Q 3566 2609 3566 1747 
Q 3566 888 3137 398 
Q 2709 -91 1959 -91 
Q 1206 -91 779 398 
Q 353 888 353 1747 
Q 353 2609 779 3096 
Q 1206 3584 1959 3584 
z
" transform="scale(0.015625)"/>
       <path id="DejaVuSans-66" d="M 2375 4863 
L 2375 4384 
L 1825 4384 
Q 1516 4384 1395 4259 
Q 1275 4134 1275 3809 
L 1275 3500 
L 2222 3500 
L 2222 3053 
L 1275 3053 
L 1275 0 
L 697 0 
L 697 3053 
L 147 3053 
L 147 3500 
L 697 3500 
L 697 3744 
Q 697 4328 969 4595 
Q 1241 4863 1831 4863 
L 2375 4863 
z
" transform="scale(0.015625)"/>
       <path id="DejaVuSans-6b" d="M 581 4863 
L 1159 4863 
L 1159 1991 
L 2875 3500 
L 3609 3500 
L 1753 1863 
L 3688 0 
L 2938 0 
L 1159 1709 
L 1159 0 
L 581 0 
L 581 4863 
z
" transform="scale(0.015625)"/>
      </defs>
      <use xlink:href="#DejaVuSans-56"/>
      <use xlink:href="#DejaVuSans-61" x="60.658203"/>
      <use xlink:href="#DejaVuSans-6c" x="121.9375"/>
      <use xlink:href="#DejaVuSans-75" x="149.720703"/>
      <use xlink:href="#DejaVuSans-65" x="213.099609"/>
      <use xlink:href="#DejaVuSans-20" x="274.623047"/>
      <use xlink:href="#DejaVuSans-6f" x="306.410156"/>
      <use xlink:href="#DejaVuSans-66" x="367.591797"/>
      <use xlink:href="#DejaVuSans-20" x="402.796875"/>
      <use xlink:href="#DejaVuSans-6b" x="434.583984"/>
     </g>
    </g>
   </g>
   <g id="matplotlib.axis_2">
    <g id="ytick_1">
     <g id="line2d_10">
      <defs>
       <path id="m3288d13fc2" d="M 0 0 
L -3.5 0 
" style="stroke: #000000; stroke-width: 0.8"/>
      </defs>
      <g>
       <use xlink:href="#m3288d13fc2" x="57.6" y="307.584" style="stroke: #000000; stroke-width: 0.8"/>
      </g>
     </g>
     <g id="text_11">
      <!-- 0 -->
      <g transform="translate(44.2375 311.383219)scale(0.1 -0.1)">
       <use xlink:href="#DejaVuSans-30"/>
      </g>
     </g>
    </g>
    <g id="ytick_2">
     <g id="line2d_11">
      <g>
       <use xlink:href="#m3288d13fc2" x="57.6" y="273.335351" style="stroke: #000000; stroke-width: 0.8"/>
      </g>
     </g>
     <g id="text_12">
      <!-- 20 -->
      <g transform="translate(37.875 277.13457)scale(0.1 -0.1)">
       <use xlink:href="#DejaVuSans-32"/>
       <use xlink:href="#DejaVuSans-30" x="63.623047"/>
      </g>
     </g>
    </g>
    <g id="ytick_3">
     <g id="line2d_12">
      <g>
       <use xlink:href="#m3288d13fc2" x="57.6" y="239.086703" style="stroke: #000000; stroke-width: 0.8"/>
      </g>
     </g>
     <g id="text_13">
      <!-- 40 -->
      <g transform="translate(37.875 242.885921)scale(0.1 -0.1)">
       <defs>
        <path id="DejaVuSans-34" d="M 2419 4116 
L 825 1625 
L 2419 1625 
L 2419 4116 
z
M 2253 4666 
L 3047 4666 
L 3047 1625 
L 3713 1625 
L 3713 1100 
L 3047 1100 
L 3047 0 
L 2419 0 
L 2419 1100 
L 313 1100 
L 313 1709 
L 2253 4666 
z
" transform="scale(0.015625)"/>
       </defs>
       <use xlink:href="#DejaVuSans-34"/>
       <use xlink:href="#DejaVuSans-30" x="63.623047"/>
      </g>
     </g>
    </g>
    <g id="ytick_4">
     <g id="line2d_13">
      <g>
       <use xlink:href="#m3288d13fc2" x="57.6" y="204.838054" style="stroke: #000000; stroke-width: 0.8"/>
      </g>
     </g>
     <g id="text_14">
      <!-- 60 -->
      <g transform="translate(37.875 208.637273)scale(0.1 -0.1)">
       <defs>
        <path id="DejaVuSans-36" d="M 2113 2584 
Q 1688 2584 1439 2293 
Q 1191 2003 1191 1497 
Q 1191 994 1439 701 
Q 1688 409 2113 409 
Q 2538 409 2786 701 
Q 3034 994 3034 1497 
Q 3034 2003 2786 2293 
Q 2538 2584 2113 2584 
z
M 3366 4563 
L 3366 3988 
Q 3128 4100 2886 4159 
Q 2644 4219 2406 4219 
Q 1781 4219 1451 3797 
Q 1122 3375 1075 2522 
Q 1259 2794 1537 2939 
Q 1816 3084 2150 3084 
Q 2853 3084 3261 2657 
Q 3669 2231 3669 1497 
Q 3669 778 3244 343 
Q 2819 -91 2113 -91 
Q 1303 -91 875 529 
Q 447 1150 447 2328 
Q 447 3434 972 4092 
Q 1497 4750 2381 4750 
Q 2619 4750 2861 4703 
Q 3103 4656 3366 4563 
z
" transform="scale(0.015625)"/>
       </defs>
       <use xlink:href="#DejaVuSans-36"/>
       <use xlink:href="#DejaVuSans-30" x="63.623047"/>
      </g>
     </g>
    </g>
    <g id="ytick_5">
     <g id="line2d_14">
      <g>
       <use xlink:href="#m3288d13fc2" x="57.6" y="170.589405" style="stroke: #000000; stroke-width: 0.8"/>
      </g>
     </g>
     <g id="text_15">
      <!-- 80 -->
      <g transform="translate(37.875 174.388624)scale(0.1 -0.1)">
       <defs>
        <path id="DejaVuSans-38" d="M 2034 2216 
Q 1584 2216 1326 1975 
Q 1069 1734 1069 1313 
Q 1069 891 1326 650 
Q 1584 409 2034 409 
Q 2484 409 2743 651 
Q 3003 894 3003 1313 
Q 3003 1734 2745 1975 
Q 2488 2216 2034 2216 
z
M 1403 2484 
Q 997 2584 770 2862 
Q 544 3141 544 3541 
Q 544 4100 942 4425 
Q 1341 4750 2034 4750 
Q 2731 4750 3128 4425 
Q 3525 4100 3525 3541 
Q 3525 3141 3298 2862 
Q 3072 2584 2669 2484 
Q 3125 2378 3379 2068 
Q 3634 1759 3634 1313 
Q 3634 634 3220 271 
Q 2806 -91 2034 -91 
Q 1263 -91 848 271 
Q 434 634 434 1313 
Q 434 1759 690 2068 
Q 947 2378 1403 2484 
z
M 1172 3481 
Q 1172 3119 1398 2916 
Q 1625 2713 2034 2713 
Q 2441 2713 2670 2916 
Q 2900 3119 2900 3481 
Q 2900 3844 2670 4047 
Q 2441 4250 2034 4250 
Q 1625 4250 1398 4047 
Q 1172 3844 1172 3481 
z
" transform="scale(0.015625)"/>
       </defs>
       <use xlink:href="#DejaVuSans-38"/>
       <use xlink:href="#DejaVuSans-30" x="63.623047"/>
      </g>
     </g>
    </g>
    <g id="ytick_6">
     <g id="line2d_15">
      <g>
       <use xlink:href="#m3288d13fc2" x="57.6" y="136.340757" style="stroke: #000000; stroke-width: 0.8"/>
      </g>
     </g>
     <g id="text_16">
      <!-- 100 -->
      <g transform="translate(31.5125 140.139976)scale(0.1 -0.1)">
       <use xlink:href="#DejaVuSans-31"/>
       <use xlink:href="#DejaVuSans-30" x="63.623047"/>
       <use xlink:href="#DejaVuSans-30" x="127.246094"/>
      </g>
     </g>
    </g>
    <g id="ytick_7">
     <g id="line2d_16">
      <g>
       <use xlink:href="#m3288d13fc2" x="57.6" y="102.092108" style="stroke: #000000; stroke-width: 0.8"/>
      </g>
     </g>
     <g id="text_17">
      <!-- 120 -->
      <g transform="translate(31.5125 105.891327)scale(0.1 -0.1)">
       <use xlink:href="#DejaVuSans-31"/>
       <use xlink:href="#DejaVuSans-32" x="63.623047"/>
       <use xlink:href="#DejaVuSans-30" x="127.246094"/>
      </g>
     </g>
    </g>
    <g id="ytick_8">
     <g id="line2d_17">
      <g>
       <use xlink:href="#m3288d13fc2" x="57.6" y="67.843459" style="stroke: #000000; stroke-width: 0.8"/>
      </g>
     </g>
     <g id="text_18">
      <!-- 140 -->
      <g transform="translate(31.5125 71.642678)scale(0.1 -0.1)">
       <use xlink:href="#DejaVuSans-31"/>
       <use xlink:href="#DejaVuSans-34" x="63.623047"/>
       <use xlink:href="#DejaVuSans-30" x="127.246094"/>
      </g>
     </g>
    </g>
    <g id="text_19">
     <!-- Y(k; N = 2) -->
     <g transform="translate(25.432812 201.942062)rotate(-90)scale(0.1 -0.1)">
      <defs>
       <path id="DejaVuSans-59" d="M -13 4666 
L 666 4666 
L 1959 2747 
L 3244 4666 
L 3922 4666 
L 2272 2222 
L 2272 0 
L 1638 0 
L 1638 2222 
L -13 4666 
z
" transform="scale(0.015625)"/>
       <path id="DejaVuSans-28" d="M 1984 4856 
Q 1566 4138 1362 3434 
Q 1159 2731 1159 2009 
Q 1159 1288 1364 580 
Q 1569 -128 1984 -844 
L 1484 -844 
Q 1016 -109 783 600 
Q 550 1309 550 2009 
Q 550 2706 781 3412 
Q 1013 4119 1484 4856 
L 1984 4856 
z
" transform="scale(0.015625)"/>
       <path id="DejaVuSans-3b" d="M 750 3309 
L 1409 3309 
L 1409 2516 
L 750 2516 
L 750 3309 
z
M 750 794 
L 1409 794 
L 1409 256 
L 897 -744 
L 494 -744 
L 750 256 
L 750 794 
z
" transform="scale(0.015625)"/>
       <path id="DejaVuSans-4e" d="M 628 4666 
L 1478 4666 
L 3547 763 
L 3547 4666 
L 4159 4666 
L 4159 0 
L 3309 0 
L 1241 3903 
L 1241 0 
L 628 0 
L 628 4666 
z
" transform="scale(0.015625)"/>
       <path id="DejaVuSans-3d" d="M 678 2906 
L 4684 2906 
L 4684 2381 
L 678 2381 
L 678 2906 
z
M 678 1631 
L 4684 1631 
L 4684 1100 
L 678 1100 
L 678 1631 
z
" transform="scale(0.015625)"/>
       <path id="DejaVuSans-29" d="M 513 4856 
L 1013 4856 
Q 1481 4119 1714 3412 
Q 1947 2706 1947 2009 
Q 1947 1309 1714 600 
Q 1481 -109 1013 -844 
L 513 -844 
Q 928 -128 1133 580 
Q 1338 1288 1338 2009 
Q 1338 2731 1133 3434 
Q 928 4138 513 4856 
z
" transform="scale(0.015625)"/>
      </defs>
      <use xlink:href="#DejaVuSans-59"/>
      <use xlink:href="#DejaVuSans-28" x="61.083984"/>
      <use xlink:href="#DejaVuSans-6b" x="100.097656"/>
      <use xlink:href="#DejaVuSans-3b" x="158.007812"/>
      <use xlink:href="#DejaVuSans-20" x="191.699219"/>
      <use xlink:href="#DejaVuSans-4e" x="223.486328"/>
      <use xlink:href="#DejaVuSans-20" x="298.291016"/>
      <use xlink:href="#DejaVuSans-3d" x="330.078125"/>
      <use xlink:href="#DejaVuSans-20" x="413.867188"/>
      <use xlink:href="#DejaVuSans-32" x="445.654297"/>
      <use xlink:href="#DejaVuSans-29" x="509.277344"/>
     </g>
    </g>
   </g>
   <g id="patch_202">
    <path d="M 57.6 307.584 
L 57.6 41.472 
" style="fill: none; stroke: #000000; stroke-width: 0.8; stroke-linejoin: miter; stroke-linecap: square"/>
   </g>
   <g id="patch_203">
    <path d="M 414.72 307.584 
L 414.72 41.472 
" style="fill: none; stroke: #000000; stroke-width: 0.8; stroke-linejoin: miter; stroke-linecap: square"/>
   </g>
   <g id="patch_204">
    <path d="M 57.6 307.584 
L 414.72 307.584 
" style="fill: none; stroke: #000000; stroke-width: 0.8; stroke-linejoin: miter; stroke-linecap: square"/>
   </g>
   <g id="patch_205">
    <path d="M 57.6 41.472 
L 414.72 41.472 
" style="fill: none; stroke: #000000; stroke-width: 0.8; stroke-linejoin: miter; stroke-linecap: square"/>
   </g>
   <g id="text_20">
    <!-- Plot for N = 2 -->
    <g transform="translate(195.640312 35.472)scale(0.12 -0.12)">
     <defs>
      <path id="DejaVuSans-50" d="M 1259 4147 
L 1259 2394 
L 2053 2394 
Q 2494 2394 2734 2622 
Q 2975 2850 2975 3272 
Q 2975 3691 2734 3919 
Q 2494 4147 2053 4147 
L 1259 4147 
z
M 628 4666 
L 2053 4666 
Q 2838 4666 3239 4311 
Q 3641 3956 3641 3272 
Q 3641 2581 3239 2228 
Q 2838 1875 2053 1875 
L 1259 1875 
L 1259 0 
L 628 0 
L 628 4666 
z
" transform="scale(0.015625)"/>
      <path id="DejaVuSans-74" d="M 1172 4494 
L 1172 3500 
L 2356 3500 
L 2356 3053 
L 1172 3053 
L 1172 1153 
Q 1172 725 1289 603 
Q 1406 481 1766 481 
L 2356 481 
L 2356 0 
L 1766 0 
Q 1100 0 847 248 
Q 594 497 594 1153 
L 594 3053 
L 172 3053 
L 172 3500 
L 594 3500 
L 594 4494 
L 1172 4494 
z
" transform="scale(0.015625)"/>
      <path id="DejaVuSans-72" d="M 2631 2963 
Q 2534 3019 2420 3045 
Q 2306 3072 2169 3072 
Q 1681 3072 1420 2755 
Q 1159 2438 1159 1844 
L 1159 0 
L 581 0 
L 581 3500 
L 1159 3500 
L 1159 2956 
Q 1341 3275 1631 3429 
Q 1922 3584 2338 3584 
Q 2397 3584 2469 3576 
Q 2541 3569 2628 3553 
L 2631 2963 
z
" transform="scale(0.015625)"/>
     </defs>
     <use xlink:href="#DejaVuSans-50"/>
     <use xlink:href="#DejaVuSans-6c" x="60.302734"/>
     <use xlink:href="#DejaVuSans-6f" x="88.085938"/>
     <use xlink:href="#DejaVuSans-74" x="149.267578"/>
     <use xlink:href="#DejaVuSans-20" x="188.476562"/>
     <use xlink:href="#DejaVuSans-66" x="220.263672"/>
     <use xlink:href="#DejaVuSans-6f" x="255.46875"/>
     <use xlink:href="#DejaVuSans-72" x="316.650391"/>
     <use xlink:href="#DejaVuSans-20" x="357.763672"/>
     <use xlink:href="#DejaVuSans-4e" x="389.550781"/>
     <use xlink:href="#DejaVuSans-20" x="464.355469"/>
     <use xlink:href="#DejaVuSans-3d" x="496.142578"/>
     <use xlink:href="#DejaVuSans-20" x="579.931641"/>
     <use xlink:href="#DejaVuSans-32" x="611.71875"/>
    </g>
   </g>
  </g>
 </g>
 <defs>
  <clipPath id="p5e312ad9db">
   <rect x="57.6" y="41.472" width="357.12" height="266.112"/>
  </clipPath>
 </defs>
</svg>
